{"glyphs":{"0":{"ha":926,"x_min":54,"x_max":914,"o":"m 398 -19 q 134 118 214 -19 q 95 504 54 256 q 189 785 123 669 q 352 963 254 902 q 570 1024 449 1024 q 833 888 751 1024 q 873 504 914 752 q 780 222 845 339 q 617 43 714 105 q 398 -19 519 -19 m 423 135 q 588 229 518 135 q 689 504 658 323 q 679 778 719 685 q 545 872 639 872 q 380 778 451 872 q 280 504 310 685 q 289 229 250 322 q 423 135 329 135 z "},"1":{"ha":668,"x_min":125,"x_max":605,"o":"m 605 1010 l 437 0 l 254 0 l 393 832 l 387 832 l 125 681 l 153 849 l 431 1010 l 605 1010 z "},"2":{"ha":863,"x_min":27,"x_max":840,"o":"m 27 0 l 49 132 l 456 476 q 591 606 544 552 q 649 722 638 659 q 620 834 660 793 q 508 875 581 875 q 379 830 433 875 q 312 708 325 785 l 138 708 q 210 875 154 804 q 351 985 266 946 q 535 1024 435 1024 q 707 986 637 1024 q 809 882 777 948 q 826 731 840 816 q 785 619 816 674 q 689 498 754 565 q 509 337 623 431 l 306 160 l 305 153 l 744 153 l 719 0 l 27 0 z "},"3":{"ha":905,"x_min":54,"x_max":859,"o":"m 396 -14 q 209 23 288 -14 q 92 124 130 59 q 67 275 54 189 l 250 275 q 285 177 242 214 q 403 140 328 140 q 550 184 486 140 q 624 300 613 229 q 588 406 634 366 q 449 445 543 445 l 356 445 l 379 586 l 464 586 q 601 630 543 586 q 671 744 659 673 q 648 839 681 803 q 545 875 616 875 q 453 859 498 875 q 378 811 409 842 q 339 738 346 780 l 164 738 q 236 887 179 822 q 375 988 292 951 q 554 1024 458 1024 q 727 983 657 1024 q 827 877 796 943 q 846 734 859 811 q 773 595 832 649 q 626 524 713 542 l 626 518 q 774 435 725 503 q 807 270 823 366 q 736 122 793 185 q 592 22 680 58 q 396 -14 504 -14 z "},"4":{"ha":925,"x_min":40,"x_max":851,"o":"m 40 187 l 64 333 l 605 1010 l 833 1010 l 721 338 l 851 338 l 826 187 l 696 187 l 665 0 l 490 0 l 521 187 l 40 187 m 549 338 l 626 803 l 618 803 l 253 346 l 252 338 l 549 338 z "},"5":{"ha":878,"x_min":64,"x_max":855,"o":"m 376 -14 q 205 23 277 -14 q 99 126 134 61 q 74 275 64 191 l 252 275 q 289 174 247 213 q 400 134 332 134 q 543 188 481 134 q 618 327 604 243 q 588 469 633 414 q 460 524 544 524 q 368 507 415 524 q 291 462 321 490 l 130 489 l 269 1010 l 855 1010 l 831 857 l 396 857 l 322 589 l 328 589 q 417 645 362 623 q 533 666 472 666 q 690 623 625 666 q 783 505 754 580 q 795 332 812 429 q 720 154 779 232 q 572 31 661 75 q 376 -14 483 -14 z "},"6":{"ha":900,"x_min":68,"x_max":875,"o":"m 404 -14 q 263 12 329 -13 q 150 96 197 38 q 85 250 103 154 q 92 487 68 346 q 188 777 120 657 q 352 961 255 897 q 569 1024 450 1024 q 733 987 664 1024 q 839 885 802 949 q 872 739 875 821 l 696 739 q 659 832 694 798 q 559 866 624 866 q 378 774 453 866 q 273 518 302 683 l 281 528 q 400 628 328 593 q 549 663 471 663 q 706 619 641 663 q 802 499 772 575 q 815 324 832 422 q 742 150 799 227 q 598 30 685 73 q 404 -14 510 -14 m 410 134 q 515 162 466 134 q 598 236 564 189 q 640 340 631 283 q 612 471 653 418 q 494 524 571 524 q 388 496 438 524 q 304 421 338 468 q 261 319 270 374 q 291 188 250 243 q 410 134 332 134 z "},"7":{"ha":815,"x_min":64,"x_max":850,"o":"m 64 0 l 634 850 l 636 857 l 137 857 l 162 1010 l 850 1010 l 824 854 l 254 0 l 64 0 z "},"8":{"ha":897,"x_min":40,"x_max":860,"o":"m 388 -14 q 197 24 277 -14 q 79 128 117 62 q 54 275 40 193 q 102 390 65 337 q 191 477 138 442 q 305 522 245 512 l 305 528 q 194 610 230 545 q 172 758 157 675 q 239 895 186 836 q 372 990 292 955 q 549 1024 453 1024 q 720 988 648 1024 q 826 890 791 952 q 847 749 860 828 q 773 604 833 664 q 634 528 713 545 l 634 522 q 734 475 691 512 q 796 385 776 439 q 804 266 816 330 q 733 122 791 185 q 585 22 675 59 q 388 -14 496 -14 m 402 127 q 549 172 490 127 q 620 289 609 217 q 587 405 632 361 q 463 449 543 449 q 318 401 380 449 q 244 279 256 353 q 276 169 233 210 q 402 127 319 127 m 478 587 q 603 631 551 587 q 668 741 656 674 q 642 843 679 806 q 536 881 606 881 q 409 839 462 881 q 346 731 357 798 q 373 626 335 665 q 478 587 410 587 z "},"9":{"ha":900,"x_min":69,"x_max":875,"o":"m 540 1024 q 680 998 614 1023 q 794 915 747 972 q 858 762 840 857 q 851 526 875 666 q 756 234 823 354 q 591 50 689 113 q 374 -14 494 -14 q 210 23 279 -14 q 105 126 141 61 q 71 274 69 191 l 248 274 q 284 179 249 213 q 384 145 319 145 q 565 236 490 145 q 670 495 641 328 l 662 484 q 544 384 615 419 q 394 350 473 350 q 237 394 303 350 q 142 514 172 437 q 129 688 112 590 q 202 861 145 785 q 346 981 259 938 q 540 1024 433 1025 m 533 876 q 429 849 478 876 q 346 775 379 822 q 303 672 312 729 q 332 542 291 595 q 450 489 372 489 q 555 517 506 489 q 639 592 605 545 q 682 693 673 638 q 653 822 694 769 q 533 876 612 876 z "},"A":{"ha":1005,"x_min":-29,"x_max":908,"o":"m 166 0 l -29 0 l 494 1010 l 720 1010 l 908 0 l 713 0 l 671 249 l 291 249 l 166 0 m 365 396 l 646 396 l 578 803 l 570 803 l 365 396 z "},"Ä":{"ha":1005,"x_min":-29,"x_max":908,"o":"m 166 0 l -29 0 l 494 1010 l 720 1010 l 908 0 l 713 0 l 671 249 l 291 249 l 166 0 m 365 396 l 646 396 l 578 803 l 570 803 l 365 396 m 785 1122 q 717 1152 743 1122 q 697 1226 690 1183 q 732 1284 703 1261 q 796 1308 761 1308 q 865 1277 839 1308 q 884 1203 891 1247 q 851 1146 879 1170 q 785 1122 822 1122 m 489 1122 q 421 1153 447 1122 q 401 1226 395 1184 q 436 1284 406 1261 q 500 1308 465 1308 q 569 1277 544 1308 q 588 1203 595 1247 q 555 1146 583 1170 q 489 1122 526 1122 z "},"Ã":{"ha":1005,"x_min":-29,"x_max":909,"o":"m 166 0 l -29 0 l 494 1010 l 720 1010 l 908 0 l 713 0 l 671 249 l 291 249 l 166 0 m 365 396 l 646 396 l 578 803 l 570 803 l 365 396 m 480 1110 l 373 1112 q 441 1250 387 1200 q 560 1300 494 1300 q 629 1282 603 1300 q 677 1247 655 1265 q 730 1230 699 1230 q 779 1251 759 1230 q 804 1305 799 1272 l 909 1301 q 841 1164 894 1212 q 721 1115 787 1115 q 663 1125 685 1115 q 625 1150 641 1136 q 593 1174 610 1163 q 552 1185 577 1185 q 506 1164 526 1185 q 480 1110 486 1143 z "},"À":{"ha":1005,"x_min":-29,"x_max":908,"o":"m 166 0 l -29 0 l 494 1010 l 720 1010 l 908 0 l 713 0 l 671 249 l 291 249 l 166 0 m 365 396 l 646 396 l 578 803 l 570 803 l 365 396 m 560 1110 l 446 1335 l 621 1335 l 693 1110 l 560 1110 z "},"Á":{"ha":1005,"x_min":-29,"x_max":908,"o":"m 166 0 l -29 0 l 494 1010 l 720 1010 l 908 0 l 713 0 l 671 249 l 291 249 l 166 0 m 365 396 l 646 396 l 578 803 l 570 803 l 365 396 m 556 1110 l 703 1335 l 878 1335 l 689 1110 l 556 1110 z "},"Â":{"ha":1005,"x_min":-29,"x_max":908,"o":"m 166 0 l -29 0 l 494 1010 l 720 1010 l 908 0 l 713 0 l 671 249 l 291 249 l 166 0 m 365 396 l 646 396 l 578 803 l 570 803 l 365 396 m 522 1101 l 366 1101 l 367 1108 l 590 1321 l 730 1321 l 880 1108 l 879 1101 l 723 1101 l 644 1227 l 522 1101 z "},"Å":{"ha":1005,"x_min":-29,"x_max":908,"o":"m 166 0 l -29 0 l 494 1010 l 720 1010 l 908 0 l 713 0 l 671 249 l 291 249 l 166 0 m 365 396 l 646 396 l 578 803 l 570 803 l 365 396 m 618 1068 q 512 1113 552 1068 q 482 1222 472 1159 q 516 1299 489 1264 q 582 1354 543 1334 q 667 1375 622 1375 q 776 1330 734 1375 q 804 1222 817 1286 q 740 1112 792 1156 q 618 1068 689 1068 m 631 1151 q 687 1172 661 1151 q 717 1222 714 1193 q 704 1273 721 1253 q 654 1293 686 1293 q 600 1271 624 1293 q 569 1222 575 1250 q 582 1171 564 1192 q 631 1151 600 1151 z "},"Ǻ":{"ha":1005,"x_min":-29,"x_max":911,"o":"m 166 0 l -29 0 l 494 1010 l 720 1010 l 908 0 l 713 0 l 671 249 l 291 249 l 166 0 m 365 396 l 646 396 l 578 803 l 570 803 l 365 396 m 617 1063 q 537 1097 568 1063 q 514 1181 506 1132 q 564 1264 523 1229 q 655 1298 606 1298 q 737 1264 707 1298 q 758 1181 766 1229 q 709 1097 750 1132 q 617 1063 668 1063 m 599 1340 l 743 1476 l 911 1476 l 712 1340 l 599 1340 m 628 1133 q 665 1147 649 1133 q 684 1181 681 1162 q 676 1212 687 1199 q 644 1226 664 1226 q 607 1212 624 1226 q 587 1181 590 1199 q 596 1147 584 1162 q 628 1133 608 1133 z "},"Ā":{"ha":1005,"x_min":-29,"x_max":908,"o":"m 166 0 l -29 0 l 494 1010 l 720 1010 l 908 0 l 713 0 l 671 249 l 291 249 l 166 0 m 365 396 l 646 396 l 578 803 l 570 803 l 365 396 m 887 1263 l 870 1154 l 395 1154 l 412 1263 l 887 1263 z "},"Ă":{"ha":1005,"x_min":-29,"x_max":908,"o":"m 166 0 l -29 0 l 494 1010 l 720 1010 l 908 0 l 713 0 l 671 249 l 291 249 l 166 0 m 365 396 l 646 396 l 578 803 l 570 803 l 365 396 m 748 1271 l 882 1271 q 796 1131 868 1184 q 618 1077 725 1077 q 460 1131 513 1077 q 421 1271 406 1184 l 554 1271 q 565 1207 547 1235 q 636 1179 583 1179 q 715 1207 689 1179 q 748 1271 742 1235 z "},"Ą":{"ha":1005,"x_min":-29,"x_max":908,"o":"m 166 0 l -29 0 l 494 1010 l 720 1010 l 908 0 l 713 0 l 671 249 l 291 249 l 166 0 m 365 396 l 646 396 l 578 803 l 570 803 l 365 396 m 765 -287 q 664 -254 701 -287 q 630 -157 627 -220 q 673 -41 632 -99 q 796 52 714 17 l 908 0 q 823 -54 859 -26 q 781 -121 787 -83 q 821 -171 771 -171 q 854 -166 840 -171 q 880 -157 869 -161 l 881 -257 q 832 -277 862 -268 q 765 -287 802 -287 z "},"Ǎ":{"ha":1005,"x_min":-29,"x_max":915,"o":"m 166 0 l -29 0 l 494 1010 l 720 1010 l 908 0 l 713 0 l 671 249 l 291 249 l 166 0 m 365 396 l 646 396 l 578 803 l 570 803 l 365 396 m 558 1321 l 638 1195 l 759 1321 l 915 1321 l 914 1314 l 693 1101 l 553 1101 l 401 1314 l 402 1321 l 558 1321 z "},"Ǟ":{"ha":1005,"x_min":-29,"x_max":928,"o":"m 166 0 l -29 0 l 494 1010 l 720 1010 l 908 0 l 713 0 l 671 249 l 291 249 l 166 0 m 365 396 l 646 396 l 578 803 l 570 803 l 365 396 m 785 1122 q 716 1152 743 1122 q 696 1226 690 1183 q 732 1284 703 1261 q 795 1308 761 1308 q 865 1277 839 1308 q 883 1203 890 1247 q 850 1146 878 1170 q 785 1122 822 1122 m 489 1122 q 420 1153 447 1122 q 400 1226 394 1184 q 435 1284 406 1261 q 499 1308 465 1308 q 569 1277 543 1308 q 587 1203 594 1247 q 554 1146 582 1170 q 489 1122 526 1122 m 928 1515 l 910 1406 l 435 1406 l 452 1515 l 928 1515 z "},"Ǡ":{"ha":1005,"x_min":-29,"x_max":923,"o":"m 166 0 l -29 0 l 494 1010 l 720 1010 l 908 0 l 713 0 l 671 249 l 291 249 l 166 0 m 365 396 l 646 396 l 578 803 l 570 803 l 365 396 m 923 1515 l 906 1406 l 431 1406 l 448 1515 l 923 1515 m 629 1121 q 562 1149 588 1121 q 538 1214 535 1176 q 572 1280 541 1253 q 643 1308 603 1308 q 710 1280 684 1308 q 733 1214 736 1253 q 700 1149 731 1176 q 629 1121 669 1121 z "},"Ȁ":{"ha":1005,"x_min":-29,"x_max":908,"o":"m 166 0 l -29 0 l 494 1010 l 720 1010 l 908 0 l 713 0 l 671 249 l 291 249 l 166 0 m 365 396 l 646 396 l 578 803 l 570 803 l 365 396 m 749 1110 l 629 1247 l 695 1335 l 805 1198 l 749 1110 m 518 1110 l 371 1247 l 414 1335 l 557 1198 l 518 1110 z "},"Ȃ":{"ha":1005,"x_min":-29,"x_max":908,"o":"m 166 0 l -29 0 l 494 1010 l 720 1010 l 908 0 l 713 0 l 671 249 l 291 249 l 166 0 m 365 396 l 646 396 l 578 803 l 570 803 l 365 396 m 398 1133 q 483 1275 412 1220 q 660 1331 553 1331 q 820 1275 766 1331 q 859 1133 873 1220 l 726 1133 q 713 1197 731 1169 q 644 1225 695 1225 q 563 1197 590 1225 q 531 1133 536 1168 l 398 1133 z "},"Ȧ":{"ha":1005,"x_min":-29,"x_max":908,"o":"m 166 0 l -29 0 l 494 1010 l 720 1010 l 908 0 l 713 0 l 671 249 l 291 249 l 166 0 m 365 396 l 646 396 l 578 803 l 570 803 l 365 396 m 634 1118 q 563 1146 591 1118 q 538 1214 535 1174 q 575 1283 542 1255 q 650 1311 607 1311 q 720 1283 692 1311 q 745 1214 748 1255 q 709 1146 742 1174 q 634 1118 676 1118 z "},"Ḁ":{"ha":1005,"x_min":-29,"x_max":908,"o":"m 166 0 l -29 0 l 494 1010 l 720 1010 l 908 0 l 713 0 l 671 249 l 291 249 l 166 0 m 365 396 l 646 396 l 578 803 l 570 803 l 365 396 m 285 -158 q 336 -75 293 -109 q 433 -42 379 -42 q 517 -75 485 -42 q 540 -158 548 -109 q 489 -242 532 -210 q 395 -274 446 -274 q 309 -241 341 -274 q 285 -158 277 -209 m 358 -158 q 367 -196 355 -181 q 404 -212 380 -212 q 444 -196 426 -212 q 467 -158 463 -181 q 457 -121 471 -136 q 422 -106 443 -106 q 380 -121 398 -106 q 358 -158 362 -136 z "},"Ạ":{"ha":1005,"x_min":-29,"x_max":908,"o":"m 166 0 l -29 0 l 494 1010 l 720 1010 l 908 0 l 713 0 l 671 249 l 291 249 l 166 0 m 365 396 l 646 396 l 578 803 l 570 803 l 365 396 m 403 -271 q 333 -243 361 -271 q 308 -175 304 -215 q 344 -106 312 -134 q 420 -77 377 -77 q 490 -106 462 -77 q 514 -175 518 -134 q 479 -243 511 -215 q 403 -271 446 -271 z "},"Ả":{"ha":1005,"x_min":-29,"x_max":908,"o":"m 166 0 l -29 0 l 494 1010 l 720 1010 l 908 0 l 713 0 l 671 249 l 291 249 l 166 0 m 365 396 l 646 396 l 578 803 l 570 803 l 365 396 m 694 1117 l 558 1117 l 567 1211 q 643 1225 619 1214 q 669 1257 666 1236 q 647 1294 674 1284 q 576 1305 619 1305 l 596 1393 q 775 1358 718 1393 q 823 1261 833 1322 q 779 1191 815 1214 q 701 1162 742 1168 l 694 1117 z "},"Ấ":{"ha":1005,"x_min":-29,"x_max":1139,"o":"m 166 0 l -29 0 l 494 1010 l 720 1010 l 908 0 l 713 0 l 671 249 l 291 249 l 166 0 m 365 396 l 646 396 l 578 803 l 570 803 l 365 396 m 366 1094 l 593 1257 l 705 1257 l 878 1094 l 730 1094 l 637 1185 l 515 1094 l 366 1094 m 842 1193 l 982 1375 l 1139 1375 l 956 1193 l 842 1193 z "},"Ầ":{"ha":1005,"x_min":-29,"x_max":908,"o":"m 166 0 l -29 0 l 494 1010 l 720 1010 l 908 0 l 713 0 l 671 249 l 291 249 l 166 0 m 365 396 l 646 396 l 578 803 l 570 803 l 365 396 m 703 1256 l 877 1094 l 729 1094 l 638 1185 l 514 1094 l 367 1094 l 592 1256 l 703 1256 m 357 1375 l 435 1193 l 324 1193 l 200 1375 l 357 1375 z "},"Ẩ":{"ha":1005,"x_min":-29,"x_max":1043,"o":"m 166 0 l -29 0 l 494 1010 l 720 1010 l 908 0 l 713 0 l 671 249 l 291 249 l 166 0 m 365 396 l 646 396 l 578 803 l 570 803 l 365 396 m 710 1251 l 875 1089 l 738 1089 l 636 1188 l 503 1089 l 365 1089 l 584 1251 l 710 1251 m 927 1178 l 826 1178 l 832 1258 q 920 1296 914 1262 q 900 1327 924 1319 q 839 1336 877 1336 l 857 1411 q 999 1381 954 1411 q 1034 1300 1043 1351 q 997 1240 1028 1260 q 933 1215 966 1221 l 927 1178 z "},"Ẫ":{"ha":1005,"x_min":-29,"x_max":908,"o":"m 166 0 l -29 0 l 494 1010 l 720 1010 l 908 0 l 713 0 l 671 249 l 291 249 l 166 0 m 365 396 l 646 396 l 578 803 l 570 803 l 365 396 m 697 1239 l 874 1083 l 737 1083 l 633 1173 l 503 1083 l 363 1083 l 591 1239 l 697 1239 m 785 1409 l 849 1386 q 809 1313 842 1346 q 731 1280 775 1280 q 678 1291 699 1280 q 639 1314 657 1303 q 595 1325 620 1325 q 562 1310 577 1325 q 544 1277 547 1296 l 482 1295 q 521 1368 488 1334 q 598 1401 554 1401 q 646 1391 624 1401 q 689 1369 667 1380 q 734 1358 710 1358 q 767 1374 752 1358 q 785 1409 782 1390 z "},"Ậ":{"ha":1005,"x_min":-29,"x_max":908,"o":"m 166 0 l -29 0 l 494 1010 l 720 1010 l 908 0 l 713 0 l 671 249 l 291 249 l 166 0 m 365 396 l 646 396 l 578 803 l 570 803 l 365 396 m 522 1101 l 366 1101 l 367 1108 l 590 1321 l 730 1321 l 880 1108 l 879 1101 l 723 1101 l 644 1227 l 522 1101 m 403 -271 q 333 -243 361 -271 q 308 -175 304 -215 q 344 -106 312 -134 q 420 -77 377 -77 q 490 -106 462 -77 q 514 -175 518 -134 q 479 -243 511 -215 q 403 -271 446 -271 z "},"Ắ":{"ha":1005,"x_min":-29,"x_max":908,"o":"m 166 0 l -29 0 l 494 1010 l 720 1010 l 908 0 l 713 0 l 671 249 l 291 249 l 166 0 m 365 396 l 646 396 l 578 803 l 570 803 l 365 396 m 750 1247 l 877 1247 q 796 1135 866 1179 q 618 1092 726 1092 q 456 1135 511 1092 q 412 1247 401 1179 l 539 1247 q 554 1194 534 1217 q 632 1170 575 1170 q 717 1194 690 1170 q 750 1247 745 1217 m 593 1252 l 698 1381 l 831 1381 l 690 1252 l 593 1252 z "},"Ằ":{"ha":1005,"x_min":-29,"x_max":908,"o":"m 166 0 l -29 0 l 494 1010 l 720 1010 l 908 0 l 713 0 l 671 249 l 291 249 l 166 0 m 365 396 l 646 396 l 578 803 l 570 803 l 365 396 m 750 1248 l 877 1248 q 797 1137 867 1181 q 619 1093 727 1093 q 457 1137 512 1093 q 412 1248 401 1181 l 539 1248 q 554 1195 534 1218 q 632 1171 575 1171 q 717 1195 689 1171 q 750 1248 745 1218 m 608 1252 l 510 1381 l 644 1381 l 703 1252 l 608 1252 z "},"Ẳ":{"ha":1005,"x_min":-29,"x_max":908,"o":"m 166 0 l -29 0 l 494 1010 l 720 1010 l 908 0 l 713 0 l 671 249 l 291 249 l 166 0 m 365 396 l 646 396 l 578 803 l 570 803 l 365 396 m 745 1247 l 872 1247 q 792 1136 861 1178 q 616 1093 723 1093 q 455 1136 509 1093 q 411 1247 400 1178 l 536 1247 q 553 1195 532 1217 q 629 1173 573 1173 q 713 1195 686 1173 q 745 1247 741 1217 m 702 1266 l 586 1266 l 590 1342 q 664 1351 641 1344 q 690 1375 688 1359 q 667 1404 694 1397 q 597 1412 640 1412 l 614 1480 q 779 1453 727 1480 q 823 1379 832 1425 q 783 1325 818 1342 q 710 1303 748 1308 l 702 1266 z "},"Ẵ":{"ha":1005,"x_min":-29,"x_max":908,"o":"m 166 0 l -29 0 l 494 1010 l 720 1010 l 908 0 l 713 0 l 671 249 l 291 249 l 166 0 m 365 396 l 646 396 l 578 803 l 570 803 l 365 396 m 746 1250 l 873 1250 q 792 1137 861 1181 q 617 1093 723 1093 q 456 1137 511 1093 q 412 1250 400 1181 l 538 1250 q 554 1198 533 1220 q 631 1176 574 1176 q 714 1198 687 1176 q 746 1250 742 1220 m 802 1457 l 874 1434 q 829 1348 867 1385 q 740 1312 790 1312 q 681 1323 703 1312 q 638 1346 658 1335 q 588 1358 618 1358 q 551 1341 568 1358 q 529 1300 533 1325 l 456 1320 q 502 1407 464 1369 q 591 1445 541 1445 q 644 1433 620 1445 q 690 1410 667 1421 q 743 1398 714 1398 q 780 1415 762 1398 q 802 1457 798 1432 z "},"Ặ":{"ha":1005,"x_min":-29,"x_max":908,"o":"m 166 0 l -29 0 l 494 1010 l 720 1010 l 908 0 l 713 0 l 671 249 l 291 249 l 166 0 m 365 396 l 646 396 l 578 803 l 570 803 l 365 396 m 748 1271 l 882 1271 q 796 1131 868 1184 q 618 1077 725 1077 q 460 1131 513 1077 q 421 1271 406 1184 l 554 1271 q 565 1207 547 1235 q 636 1179 583 1179 q 715 1207 689 1179 q 748 1271 742 1235 m 403 -271 q 333 -243 361 -271 q 308 -175 304 -215 q 344 -106 312 -134 q 420 -77 377 -77 q 490 -106 462 -77 q 514 -175 518 -134 q 479 -243 511 -215 q 403 -271 446 -271 z "},"Α":{"ha":1005,"x_min":-29,"x_max":908,"o":"m 166 0 l -29 0 l 494 1010 l 720 1010 l 908 0 l 713 0 l 671 249 l 291 249 l 166 0 m 365 396 l 646 396 l 578 803 l 570 803 l 365 396 z "},"Ά":{"ha":1005,"x_min":-29,"x_max":908,"o":"m 166 0 l -29 0 l 494 1010 l 720 1010 l 908 0 l 713 0 l 671 249 l 291 249 l 166 0 m 365 396 l 646 396 l 578 803 l 570 803 l 365 396 m 192 846 l 277 1080 l 444 1080 l 302 846 l 192 846 z "},"Ἀ":{"ha":1005,"x_min":-29,"x_max":908,"o":"m 166 0 l -29 0 l 494 1010 l 720 1010 l 908 0 l 713 0 l 671 249 l 291 249 l 166 0 m 365 396 l 646 396 l 578 803 l 570 803 l 365 396 m 385 1010 l 375 948 q 325 839 365 886 q 227 765 285 792 l 180 820 q 232 877 214 845 q 256 952 250 909 l 265 1010 l 385 1010 z "},"Ἁ":{"ha":1005,"x_min":-29,"x_max":908,"o":"m 166 0 l -29 0 l 494 1010 l 720 1010 l 908 0 l 713 0 l 671 249 l 291 249 l 166 0 m 365 396 l 646 396 l 578 803 l 570 803 l 365 396 m 216 948 l 226 1010 l 347 1010 l 337 952 q 337 879 331 912 q 369 820 343 845 l 303 765 q 231 839 255 792 q 216 948 206 886 z "},"Ἂ":{"ha":1005,"x_min":-69,"x_max":908,"o":"m 166 0 l -29 0 l 494 1010 l 720 1010 l 908 0 l 713 0 l 671 249 l 291 249 l 166 0 m 365 396 l 646 396 l 578 803 l 570 803 l 365 396 m 146 1010 l 139 955 q 86 847 128 896 q -21 765 44 798 l -69 807 q -15 874 -35 838 q 13 959 6 911 l 21 1010 l 146 1010 m 366 791 l 364 781 l 299 781 l 176 996 l 178 1010 l 323 1010 l 366 791 z "},"Ἃ":{"ha":1005,"x_min":-29,"x_max":908,"o":"m 166 0 l -29 0 l 494 1010 l 720 1010 l 908 0 l 713 0 l 671 249 l 291 249 l 166 0 m 365 396 l 646 396 l 578 803 l 570 803 l 365 396 m 0 948 l 10 1010 l 132 1010 l 122 952 q 121 879 115 912 q 155 820 127 845 l 88 765 q 14 839 39 792 q 0 948 -10 886 m 371 794 l 369 780 l 305 780 l 182 996 l 183 1010 l 330 1010 l 371 794 z "},"Ἄ":{"ha":1005,"x_min":-33,"x_max":908,"o":"m 166 0 l -29 0 l 494 1010 l 720 1010 l 908 0 l 713 0 l 671 249 l 291 249 l 166 0 m 365 396 l 646 396 l 578 803 l 570 803 l 365 396 m 174 1010 l 163 948 q 113 840 154 887 q 13 765 72 792 l -33 820 q 18 879 1 845 q 43 952 36 912 l 53 1010 l 174 1010 m 153 780 l 155 794 l 270 1010 l 415 1010 l 413 996 l 218 780 l 153 780 z "},"Ἅ":{"ha":1005,"x_min":-44,"x_max":908,"o":"m 166 0 l -29 0 l 494 1010 l 720 1010 l 908 0 l 713 0 l 671 249 l 291 249 l 166 0 m 365 396 l 646 396 l 578 803 l 570 803 l 365 396 m 52 765 q -19 838 6 792 q -35 948 -44 885 l -24 1010 l 97 1010 l 87 952 q 87 877 80 909 q 119 820 94 845 l 52 765 m 147 780 l 149 794 l 260 1010 l 407 1010 l 405 996 l 210 780 l 147 780 z "},"Ἆ":{"ha":1005,"x_min":-29,"x_max":908,"o":"m 166 0 l -29 0 l 494 1010 l 720 1010 l 908 0 l 713 0 l 671 249 l 291 249 l 166 0 m 365 396 l 646 396 l 578 803 l 570 803 l 365 396 m 421 1176 l 494 1153 q 448 1068 485 1104 q 360 1031 410 1031 q 301 1043 324 1031 q 259 1066 279 1054 q 209 1078 239 1078 q 171 1060 187 1078 q 150 1018 155 1043 l 77 1040 q 123 1127 85 1089 q 211 1165 161 1165 q 265 1154 242 1165 q 311 1130 288 1142 q 362 1118 333 1118 q 400 1135 382 1118 q 421 1176 418 1152 m 335 996 l 327 945 q 286 857 319 898 q 207 794 254 817 l 157 838 q 201 888 187 860 q 219 945 214 915 l 227 996 l 335 996 z "},"Ἇ":{"ha":1005,"x_min":-29,"x_max":908,"o":"m 166 0 l -29 0 l 494 1010 l 720 1010 l 908 0 l 713 0 l 671 249 l 291 249 l 166 0 m 365 396 l 646 396 l 578 803 l 570 803 l 365 396 m 412 1176 l 485 1153 q 439 1068 476 1104 q 351 1031 401 1031 q 292 1043 315 1031 q 250 1066 270 1054 q 200 1078 230 1078 q 162 1060 179 1078 q 141 1018 146 1043 l 68 1040 q 114 1127 76 1089 q 202 1165 152 1165 q 256 1154 233 1165 q 302 1130 279 1142 q 353 1118 325 1118 q 391 1135 373 1118 q 412 1176 409 1152 m 207 945 l 216 996 l 324 996 l 315 945 q 315 888 311 915 q 342 838 319 860 l 276 794 q 219 857 238 817 q 207 945 200 897 z "},"Ᾰ":{"ha":1005,"x_min":-29,"x_max":908,"o":"m 166 0 l -29 0 l 494 1010 l 720 1010 l 908 0 l 713 0 l 671 249 l 291 249 l 166 0 m 365 396 l 646 396 l 578 803 l 570 803 l 365 396 m 748 1271 l 882 1271 q 796 1131 868 1184 q 618 1077 725 1077 q 460 1131 513 1077 q 421 1271 406 1184 l 554 1271 q 565 1207 547 1235 q 636 1179 583 1179 q 715 1207 689 1179 q 748 1271 742 1235 z "},"Ᾱ":{"ha":1005,"x_min":-29,"x_max":908,"o":"m 166 0 l -29 0 l 494 1010 l 720 1010 l 908 0 l 713 0 l 671 249 l 291 249 l 166 0 m 365 396 l 646 396 l 578 803 l 570 803 l 365 396 m 887 1263 l 870 1154 l 395 1154 l 412 1263 l 887 1263 z "},"Ὰ":{"ha":1005,"x_min":-29,"x_max":908,"o":"m 166 0 l -29 0 l 494 1010 l 720 1010 l 908 0 l 713 0 l 671 249 l 291 249 l 166 0 m 365 396 l 646 396 l 578 803 l 570 803 l 365 396 m 285 779 l 161 996 l 161 1010 l 308 1010 l 351 796 l 351 779 l 285 779 z "},"Ⱥ":{"ha":1005,"x_min":-29,"x_max":951,"o":"m 951 1138 l 765 767 l 908 0 l 713 0 l 671 249 l 506 249 l 317 -128 l 194 -128 l 383 249 l 291 249 l 166 0 l -29 0 l 494 1010 l 720 1010 l 732 947 l 828 1138 l 951 1138 m 456 396 l 598 680 l 578 803 l 570 803 l 365 396 l 456 396 m 629 496 l 580 396 l 646 396 l 629 496 z "},"Ά":{"ha":1005,"x_min":-29,"x_max":908,"o":"m 166 0 l -29 0 l 494 1010 l 720 1010 l 908 0 l 713 0 l 671 249 l 291 249 l 166 0 m 365 396 l 646 396 l 578 803 l 570 803 l 365 396 m 198 852 l 201 869 l 314 1083 l 487 1083 l 485 1069 l 289 852 l 198 852 z "},"А":{"ha":1005,"x_min":-29,"x_max":908,"o":"m 166 0 l -29 0 l 494 1010 l 720 1010 l 908 0 l 713 0 l 671 249 l 291 249 l 166 0 m 365 396 l 646 396 l 578 803 l 570 803 l 365 396 z "},"Ӑ":{"ha":1005,"x_min":-29,"x_max":908,"o":"m 166 0 l -29 0 l 494 1010 l 720 1010 l 908 0 l 713 0 l 671 249 l 291 249 l 166 0 m 365 396 l 646 396 l 578 803 l 570 803 l 365 396 m 748 1271 l 882 1271 q 796 1131 868 1184 q 618 1077 725 1077 q 460 1131 513 1077 q 421 1271 406 1184 l 554 1271 q 565 1207 547 1235 q 636 1179 583 1179 q 715 1207 689 1179 q 748 1271 742 1235 z "},"Ӓ":{"ha":1005,"x_min":-29,"x_max":908,"o":"m 166 0 l -29 0 l 494 1010 l 720 1010 l 908 0 l 713 0 l 671 249 l 291 249 l 166 0 m 365 396 l 646 396 l 578 803 l 570 803 l 365 396 m 785 1122 q 717 1152 743 1122 q 697 1226 690 1183 q 732 1284 703 1261 q 796 1308 761 1308 q 865 1277 839 1308 q 884 1203 891 1247 q 851 1146 879 1170 q 785 1122 822 1122 m 489 1122 q 421 1153 447 1122 q 401 1226 395 1184 q 436 1284 406 1261 q 500 1308 465 1308 q 569 1277 544 1308 q 588 1203 595 1247 q 555 1146 583 1170 q 489 1122 526 1122 z "},"ᾈ":{"ha":1005,"x_min":-29,"x_max":908,"o":"m 166 0 l -29 0 l 494 1010 l 720 1010 l 908 0 l 713 0 l 671 249 l 291 249 l 166 0 m 365 396 l 646 396 l 578 803 l 570 803 l 365 396 m 451 -335 q 368 -305 399 -335 q 348 -208 337 -275 l 372 -63 l 489 -63 l 466 -207 q 494 -252 458 -252 q 512 -251 504 -252 q 525 -250 520 -250 l 512 -327 q 486 -333 500 -330 q 451 -335 471 -335 m 385 1010 l 375 948 q 325 839 365 886 q 227 765 285 792 l 180 820 q 232 877 214 845 q 256 952 250 909 l 265 1010 l 385 1010 z "},"ᾉ":{"ha":1005,"x_min":-29,"x_max":908,"o":"m 166 0 l -29 0 l 494 1010 l 720 1010 l 908 0 l 713 0 l 671 249 l 291 249 l 166 0 m 365 396 l 646 396 l 578 803 l 570 803 l 365 396 m 451 -335 q 368 -305 399 -335 q 348 -208 337 -275 l 372 -63 l 489 -63 l 466 -207 q 494 -252 458 -252 q 512 -251 504 -252 q 525 -250 520 -250 l 512 -327 q 486 -333 500 -330 q 451 -335 471 -335 m 216 948 l 226 1010 l 347 1010 l 337 952 q 337 879 331 912 q 369 820 343 845 l 303 765 q 231 839 255 792 q 216 948 206 886 z "},"ᾊ":{"ha":1005,"x_min":-69,"x_max":908,"o":"m 166 0 l -29 0 l 494 1010 l 720 1010 l 908 0 l 713 0 l 671 249 l 291 249 l 166 0 m 365 396 l 646 396 l 578 803 l 570 803 l 365 396 m 451 -335 q 368 -305 399 -335 q 348 -208 337 -275 l 372 -63 l 489 -63 l 466 -207 q 494 -252 458 -252 q 512 -251 504 -252 q 525 -250 520 -250 l 512 -327 q 486 -333 500 -330 q 451 -335 471 -335 m 146 1010 l 139 955 q 86 847 128 896 q -21 765 44 798 l -69 807 q -15 874 -35 838 q 13 959 6 911 l 21 1010 l 146 1010 m 366 791 l 364 781 l 299 781 l 176 996 l 178 1010 l 323 1010 l 366 791 z "},"ᾋ":{"ha":1005,"x_min":-29,"x_max":908,"o":"m 166 0 l -29 0 l 494 1010 l 720 1010 l 908 0 l 713 0 l 671 249 l 291 249 l 166 0 m 365 396 l 646 396 l 578 803 l 570 803 l 365 396 m 451 -335 q 368 -305 399 -335 q 348 -208 337 -275 l 372 -63 l 489 -63 l 466 -207 q 494 -252 458 -252 q 512 -251 504 -252 q 525 -250 520 -250 l 512 -327 q 486 -333 500 -330 q 451 -335 471 -335 m 0 948 l 10 1010 l 132 1010 l 122 952 q 121 879 115 912 q 155 820 127 845 l 88 765 q 14 839 39 792 q 0 948 -10 886 m 371 794 l 369 780 l 305 780 l 182 996 l 183 1010 l 330 1010 l 371 794 z "},"ᾌ":{"ha":1005,"x_min":-33,"x_max":908,"o":"m 166 0 l -29 0 l 494 1010 l 720 1010 l 908 0 l 713 0 l 671 249 l 291 249 l 166 0 m 365 396 l 646 396 l 578 803 l 570 803 l 365 396 m 174 1010 l 163 948 q 113 840 154 887 q 13 765 72 792 l -33 820 q 18 879 1 845 q 43 952 36 912 l 53 1010 l 174 1010 m 153 780 l 155 794 l 270 1010 l 415 1010 l 413 996 l 218 780 l 153 780 m 451 -335 q 368 -305 399 -335 q 348 -208 337 -275 l 372 -63 l 489 -63 l 466 -207 q 494 -252 458 -252 q 512 -251 504 -252 q 525 -250 520 -250 l 512 -327 q 486 -333 500 -330 q 451 -335 471 -335 z "},"ᾍ":{"ha":1005,"x_min":-44,"x_max":908,"o":"m 166 0 l -29 0 l 494 1010 l 720 1010 l 908 0 l 713 0 l 671 249 l 291 249 l 166 0 m 365 396 l 646 396 l 578 803 l 570 803 l 365 396 m 451 -335 q 368 -305 399 -335 q 348 -208 337 -275 l 372 -63 l 489 -63 l 466 -207 q 494 -252 458 -252 q 512 -251 504 -252 q 525 -250 520 -250 l 512 -327 q 486 -333 500 -330 q 451 -335 471 -335 m 52 765 q -19 838 6 792 q -35 948 -44 885 l -24 1010 l 97 1010 l 87 952 q 87 877 80 909 q 119 820 94 845 l 52 765 m 147 780 l 149 794 l 260 1010 l 407 1010 l 405 996 l 210 780 l 147 780 z "},"ᾎ":{"ha":1005,"x_min":-29,"x_max":908,"o":"m 166 0 l -29 0 l 494 1010 l 720 1010 l 908 0 l 713 0 l 671 249 l 291 249 l 166 0 m 365 396 l 646 396 l 578 803 l 570 803 l 365 396 m 421 1176 l 494 1153 q 448 1068 485 1104 q 360 1031 410 1031 q 301 1043 324 1031 q 259 1066 279 1054 q 209 1078 239 1078 q 171 1060 187 1078 q 150 1018 155 1043 l 77 1040 q 123 1127 85 1089 q 211 1165 161 1165 q 265 1154 242 1165 q 311 1130 288 1142 q 362 1118 333 1118 q 400 1135 382 1118 q 421 1176 418 1152 m 335 996 l 327 945 q 286 857 319 898 q 207 794 254 817 l 157 838 q 201 888 187 860 q 219 945 214 915 l 227 996 l 335 996 m 451 -335 q 368 -305 399 -335 q 348 -208 337 -275 l 372 -63 l 489 -63 l 466 -207 q 494 -252 458 -252 q 512 -251 504 -252 q 525 -250 520 -250 l 512 -327 q 486 -333 500 -330 q 451 -335 471 -335 z "},"ᾏ":{"ha":1005,"x_min":-29,"x_max":908,"o":"m 166 0 l -29 0 l 494 1010 l 720 1010 l 908 0 l 713 0 l 671 249 l 291 249 l 166 0 m 365 396 l 646 396 l 578 803 l 570 803 l 365 396 m 451 -335 q 368 -305 399 -335 q 348 -208 337 -275 l 372 -63 l 489 -63 l 466 -207 q 494 -252 458 -252 q 512 -251 504 -252 q 525 -250 520 -250 l 512 -327 q 486 -333 500 -330 q 451 -335 471 -335 m 412 1176 l 485 1153 q 439 1068 476 1104 q 351 1031 401 1031 q 292 1043 315 1031 q 250 1066 270 1054 q 200 1078 230 1078 q 162 1060 179 1078 q 141 1018 146 1043 l 68 1040 q 114 1127 76 1089 q 202 1165 152 1165 q 256 1154 233 1165 q 302 1130 279 1142 q 353 1118 325 1118 q 391 1135 373 1118 q 412 1176 409 1152 m 207 945 l 216 996 l 324 996 l 315 945 q 315 888 311 915 q 342 838 319 860 l 276 794 q 219 857 238 817 q 207 945 200 897 z "},"ᾼ":{"ha":1005,"x_min":-29,"x_max":908,"o":"m 166 0 l -29 0 l 494 1010 l 720 1010 l 908 0 l 713 0 l 671 249 l 291 249 l 166 0 m 365 396 l 646 396 l 578 803 l 570 803 l 365 396 m 451 -335 q 368 -305 399 -335 q 348 -208 337 -275 l 372 -63 l 489 -63 l 466 -207 q 494 -252 458 -252 q 512 -251 504 -252 q 525 -250 520 -250 l 512 -327 q 486 -333 500 -330 q 451 -335 471 -335 z "},"Λ":{"ha":1005,"x_min":-29,"x_max":908,"o":"m 166 0 l -29 0 l 494 1010 l 720 1010 l 908 0 l 713 0 l 579 803 l 569 803 l 166 0 z "},"Æ":{"ha":1412,"x_min":-29,"x_max":1429,"o":"m -29 0 l 590 1010 l 1429 1010 l 1404 857 l 930 857 l 884 582 l 1324 582 l 1299 429 l 859 429 l 813 153 l 1291 153 l 1266 0 l 605 0 l 646 249 l 322 249 l 172 0 l -29 0 m 409 396 l 671 396 l 743 834 l 672 834 l 409 396 z "},"Ǣ":{"ha":1412,"x_min":-29,"x_max":1429,"o":"m -29 0 l 590 1010 l 1429 1010 l 1404 857 l 930 857 l 884 582 l 1324 582 l 1299 429 l 859 429 l 813 153 l 1291 153 l 1266 0 l 605 0 l 646 249 l 322 249 l 172 0 l -29 0 m 409 396 l 671 396 l 743 834 l 672 834 l 409 396 m 1290 1263 l 1272 1154 l 798 1154 l 815 1263 l 1290 1263 z "},"Ǽ":{"ha":1412,"x_min":-29,"x_max":1429,"o":"m -29 0 l 590 1010 l 1429 1010 l 1404 857 l 930 857 l 884 582 l 1324 582 l 1299 429 l 859 429 l 813 153 l 1291 153 l 1266 0 l 605 0 l 646 249 l 322 249 l 172 0 l -29 0 m 409 396 l 671 396 l 743 834 l 672 834 l 409 396 m 959 1110 l 1106 1335 l 1281 1335 l 1092 1110 l 959 1110 z "},"Ӕ":{"ha":1412,"x_min":-29,"x_max":1429,"o":"m -29 0 l 590 1010 l 1429 1010 l 1404 857 l 930 857 l 884 582 l 1324 582 l 1299 429 l 859 429 l 813 153 l 1291 153 l 1266 0 l 605 0 l 646 249 l 322 249 l 172 0 l -29 0 m 409 396 l 671 396 l 743 834 l 672 834 l 409 396 z "},"B":{"ha":913,"x_min":36,"x_max":894,"o":"m 36 0 l 204 1010 l 591 1010 q 824 936 755 1010 q 874 748 894 861 q 799 604 859 656 q 663 533 739 551 l 661 523 q 759 491 714 521 q 826 406 803 461 q 836 275 849 352 q 775 134 823 197 q 643 36 726 72 q 445 0 561 0 l 36 0 m 245 153 l 442 153 q 592 191 541 153 q 653 290 643 230 q 622 403 663 357 q 496 449 581 449 l 294 449 l 245 153 m 317 581 l 498 581 q 623 619 569 581 q 688 725 678 658 q 663 821 698 783 q 547 859 628 859 l 362 859 l 317 581 z "},"Ḃ":{"ha":913,"x_min":36,"x_max":894,"o":"m 36 0 l 204 1010 l 591 1010 q 824 936 755 1010 q 874 748 894 861 q 799 604 859 656 q 663 533 739 551 l 661 523 q 759 491 714 521 q 826 406 803 461 q 836 275 849 352 q 775 134 823 197 q 643 36 726 72 q 445 0 561 0 l 36 0 m 245 153 l 442 153 q 592 191 541 153 q 653 290 643 230 q 622 403 663 357 q 496 449 581 449 l 294 449 l 245 153 m 317 581 l 498 581 q 623 619 569 581 q 688 725 678 658 q 663 821 698 783 q 547 859 628 859 l 362 859 l 317 581 m 571 1118 q 500 1146 528 1118 q 475 1214 472 1174 q 511 1283 479 1255 q 587 1311 544 1311 q 657 1283 629 1311 q 682 1214 685 1255 q 646 1146 679 1174 q 571 1118 613 1118 z "},"Ḅ":{"ha":913,"x_min":36,"x_max":894,"o":"m 36 0 l 204 1010 l 591 1010 q 824 936 755 1010 q 874 748 894 861 q 799 604 859 656 q 663 533 739 551 l 661 523 q 759 491 714 521 q 826 406 803 461 q 836 275 849 352 q 775 134 823 197 q 643 36 726 72 q 445 0 561 0 l 36 0 m 245 153 l 442 153 q 592 191 541 153 q 653 290 643 230 q 622 403 663 357 q 496 449 581 449 l 294 449 l 245 153 m 317 581 l 498 581 q 623 619 569 581 q 688 725 678 658 q 663 821 698 783 q 547 859 628 859 l 362 859 l 317 581 m 344 -271 q 273 -243 301 -271 q 248 -175 245 -215 q 285 -106 252 -134 q 360 -77 317 -77 q 430 -106 402 -77 q 455 -175 458 -134 q 419 -243 452 -215 q 344 -271 386 -271 z "},"Ḇ":{"ha":913,"x_min":36,"x_max":894,"o":"m 36 0 l 204 1010 l 591 1010 q 824 936 755 1010 q 874 748 894 861 q 799 604 859 656 q 663 533 739 551 l 661 523 q 759 491 714 521 q 826 406 803 461 q 836 275 849 352 q 775 134 823 197 q 643 36 726 72 q 445 0 561 0 l 36 0 m 245 153 l 442 153 q 592 191 541 153 q 653 290 643 230 q 622 403 663 357 q 496 449 581 449 l 294 449 l 245 153 m 317 581 l 498 581 q 623 619 569 581 q 688 725 678 658 q 663 821 698 783 q 547 859 628 859 l 362 859 l 317 581 m 597 -125 l 579 -234 l 104 -234 l 121 -125 l 597 -125 z "},"Ƀ":{"ha":997,"x_min":12,"x_max":979,"o":"m 122 0 l 290 1010 l 676 1010 q 910 936 840 1010 q 960 748 979 861 q 884 604 944 656 q 748 533 825 551 l 746 523 q 844 491 799 521 q 911 406 889 461 q 921 275 934 352 q 860 134 908 197 q 729 36 811 72 q 531 0 646 0 l 122 0 m 330 153 l 527 153 q 677 191 626 153 q 738 290 728 230 q 708 403 749 357 q 581 449 666 449 l 379 449 l 330 153 m 402 581 l 583 581 q 709 619 654 581 q 773 725 763 658 q 748 821 783 783 q 633 859 713 859 l 447 859 l 402 581 m 12 244 l 32 357 l 505 357 l 485 244 l 12 244 z "},"Ɓ":{"ha":1174,"x_min":106,"x_max":1155,"o":"m 297 0 l 440 857 l 396 857 q 311 818 335 857 q 279 733 286 779 l 271 681 l 106 681 l 120 769 q 217 944 136 877 q 419 1010 297 1010 l 852 1010 q 1085 936 1016 1010 q 1135 748 1155 861 q 1060 604 1120 656 q 924 533 1000 551 l 922 523 q 1020 491 975 521 q 1087 406 1064 461 q 1097 275 1110 352 q 1036 134 1084 197 q 904 36 987 72 q 706 0 822 0 l 297 0 m 506 153 l 703 153 q 853 191 802 153 q 913 290 904 230 q 883 403 924 357 q 757 449 842 449 l 555 449 l 506 153 m 578 581 l 759 581 q 884 619 830 581 q 948 725 939 658 q 924 821 959 783 q 808 859 889 859 l 623 859 l 578 581 z "},"В":{"ha":913,"x_min":36,"x_max":894,"o":"m 36 0 l 204 1010 l 591 1010 q 824 936 755 1010 q 874 748 894 861 q 799 604 859 656 q 663 533 739 551 l 661 523 q 759 491 714 521 q 826 406 803 461 q 836 275 849 352 q 775 134 823 197 q 643 36 726 72 q 445 0 561 0 l 36 0 m 245 153 l 442 153 q 592 191 541 153 q 653 290 643 230 q 622 403 663 357 q 496 449 581 449 l 294 449 l 245 153 m 317 581 l 498 581 q 623 619 569 581 q 688 725 678 658 q 663 821 698 783 q 547 859 628 859 l 362 859 l 317 581 z "},"Β":{"ha":913,"x_min":36,"x_max":894,"o":"m 36 0 l 204 1010 l 591 1010 q 824 936 755 1010 q 874 748 894 861 q 799 604 859 656 q 663 533 739 551 l 661 523 q 759 491 714 521 q 826 406 803 461 q 836 275 849 352 q 775 134 823 197 q 643 36 726 72 q 445 0 561 0 l 36 0 m 245 153 l 442 153 q 592 191 541 153 q 653 290 643 230 q 622 403 663 357 q 496 449 581 449 l 294 449 l 245 153 m 317 581 l 498 581 q 623 619 569 581 q 688 725 678 658 q 663 821 698 783 q 547 859 628 859 l 362 859 l 317 581 z "},"C":{"ha":1033,"x_min":70,"x_max":1014,"o":"m 1011 669 l 830 669 q 774 810 829 760 q 629 860 718 860 q 472 817 545 860 q 347 692 399 774 q 277 494 296 611 q 311 237 250 325 q 491 150 373 150 q 663 199 586 150 q 773 335 741 247 l 957 335 q 860 160 927 239 q 696 33 793 80 q 482 -14 600 -14 q 251 50 347 -14 q 112 232 154 113 q 97 516 70 350 q 202 791 124 677 q 392 964 280 904 q 634 1024 505 1024 q 834 982 748 1024 q 967 861 920 940 q 1011 669 1014 782 z "},"Ƈ":{"ha":1131,"x_min":70,"x_max":1250,"o":"m 1011 669 l 830 669 q 774 810 829 760 q 629 860 718 860 q 472 817 545 860 q 347 692 399 774 q 277 494 296 611 q 311 237 250 325 q 491 150 373 150 q 663 199 586 150 q 773 335 741 247 l 957 335 q 860 160 927 239 q 696 33 793 80 q 482 -14 600 -14 q 251 50 347 -14 q 112 232 154 113 q 97 516 70 350 q 202 791 124 677 q 392 964 280 904 q 634 1024 505 1024 q 916 925 814 1024 q 1026 1007 961 979 q 1163 1035 1091 1035 q 1208 1034 1186 1035 q 1250 1029 1229 1033 l 1226 883 q 1201 885 1216 884 q 1174 886 1186 886 q 1083 861 1127 886 q 1027 768 1038 836 l 1011 669 z "},"Ç":{"ha":1033,"x_min":70,"x_max":1014,"o":"m 1011 669 l 830 669 q 774 810 829 760 q 629 860 718 860 q 472 817 545 860 q 347 692 399 774 q 277 494 296 611 q 311 237 250 325 q 491 150 373 150 q 663 199 586 150 q 773 335 741 247 l 957 335 q 860 160 927 239 q 696 33 793 80 q 482 -14 600 -14 q 251 50 347 -14 q 112 232 154 113 q 97 516 70 350 q 202 791 124 677 q 392 964 280 904 q 634 1024 505 1024 q 834 982 748 1024 q 967 861 920 940 q 1011 669 1014 782 m 427 1 l 524 1 l 508 -41 q 581 -77 553 -48 q 599 -160 609 -106 q 518 -272 588 -230 q 331 -315 448 -315 l 344 -227 q 436 -212 400 -227 q 478 -164 472 -196 q 462 -118 484 -133 q 388 -98 440 -104 l 427 1 z "},"Ć":{"ha":1033,"x_min":70,"x_max":1014,"o":"m 1011 669 l 830 669 q 774 810 829 760 q 629 860 718 860 q 472 817 545 860 q 347 692 399 774 q 277 494 296 611 q 311 237 250 325 q 491 150 373 150 q 663 199 586 150 q 773 335 741 247 l 957 335 q 860 160 927 239 q 696 33 793 80 q 482 -14 600 -14 q 251 50 347 -14 q 112 232 154 113 q 97 516 70 350 q 202 791 124 677 q 392 964 280 904 q 634 1024 505 1024 q 834 982 748 1024 q 967 861 920 940 q 1011 669 1014 782 m 591 1110 l 739 1335 l 913 1335 l 725 1110 l 591 1110 z "},"Ĉ":{"ha":1033,"x_min":70,"x_max":1014,"o":"m 1011 669 l 830 669 q 774 810 829 760 q 629 860 718 860 q 472 817 545 860 q 347 692 399 774 q 277 494 296 611 q 311 237 250 325 q 491 150 373 150 q 663 199 586 150 q 773 335 741 247 l 957 335 q 860 160 927 239 q 696 33 793 80 q 482 -14 600 -14 q 251 50 347 -14 q 112 232 154 113 q 97 516 70 350 q 202 791 124 677 q 392 964 280 904 q 634 1024 505 1024 q 834 982 748 1024 q 967 861 920 940 q 1011 669 1014 782 m 557 1101 l 401 1101 l 402 1108 l 625 1321 l 765 1321 l 915 1108 l 914 1101 l 758 1101 l 679 1227 l 557 1101 z "},"Ċ":{"ha":1033,"x_min":70,"x_max":1014,"o":"m 1011 669 l 830 669 q 774 810 829 760 q 629 860 718 860 q 472 817 545 860 q 347 692 399 774 q 277 494 296 611 q 311 237 250 325 q 491 150 373 150 q 663 199 586 150 q 773 335 741 247 l 957 335 q 860 160 927 239 q 696 33 793 80 q 482 -14 600 -14 q 251 50 347 -14 q 112 232 154 113 q 97 516 70 350 q 202 791 124 677 q 392 964 280 904 q 634 1024 505 1024 q 834 982 748 1024 q 967 861 920 940 q 1011 669 1014 782 m 669 1118 q 598 1146 626 1118 q 573 1214 570 1174 q 610 1283 577 1255 q 685 1311 642 1311 q 755 1283 727 1311 q 780 1214 783 1255 q 744 1146 777 1174 q 669 1118 711 1118 z "},"Č":{"ha":1033,"x_min":70,"x_max":1014,"o":"m 1011 669 l 830 669 q 774 810 829 760 q 629 860 718 860 q 472 817 545 860 q 347 692 399 774 q 277 494 296 611 q 311 237 250 325 q 491 150 373 150 q 663 199 586 150 q 773 335 741 247 l 957 335 q 860 160 927 239 q 696 33 793 80 q 482 -14 600 -14 q 251 50 347 -14 q 112 232 154 113 q 97 516 70 350 q 202 791 124 677 q 392 964 280 904 q 634 1024 505 1024 q 834 982 748 1024 q 967 861 920 940 q 1011 669 1014 782 m 593 1321 l 673 1195 l 794 1321 l 950 1321 l 949 1314 l 728 1101 l 588 1101 l 436 1314 l 437 1321 l 593 1321 z "},"Ḉ":{"ha":1033,"x_min":70,"x_max":1014,"o":"m 1011 669 l 830 669 q 774 810 829 760 q 629 860 718 860 q 472 817 545 860 q 347 692 399 774 q 277 494 296 611 q 311 237 250 325 q 491 150 373 150 q 663 199 586 150 q 773 335 741 247 l 957 335 q 860 160 927 239 q 696 33 793 80 q 482 -14 600 -14 q 251 50 347 -14 q 112 232 154 113 q 97 516 70 350 q 202 791 124 677 q 392 964 280 904 q 634 1024 505 1024 q 834 982 748 1024 q 967 861 920 940 q 1011 669 1014 782 m 427 1 l 524 1 l 508 -41 q 581 -77 553 -48 q 599 -160 609 -106 q 518 -272 588 -230 q 331 -315 448 -315 l 344 -227 q 436 -212 400 -227 q 478 -164 472 -196 q 462 -118 484 -133 q 388 -98 440 -104 l 427 1 m 591 1110 l 739 1335 l 913 1335 l 725 1110 l 591 1110 z "},"Ȼ":{"ha":1032,"x_min":70,"x_max":1014,"o":"m 162 -128 l 251 49 q 113 231 156 111 q 97 516 70 350 q 202 791 124 677 q 392 964 280 904 q 634 1024 505 1024 q 734 1015 687 1024 l 796 1138 l 920 1138 l 840 979 q 968 858 922 937 q 1011 669 1014 780 l 830 669 q 811 758 829 720 q 761 821 793 796 l 429 157 q 491 150 458 150 q 663 199 586 150 q 773 335 741 247 l 957 335 q 860 160 927 239 q 696 33 793 80 q 482 -14 600 -14 q 352 3 412 -14 l 286 -128 l 162 -128 m 332 211 l 656 859 q 629 860 643 860 q 472 817 545 860 q 347 692 399 774 q 277 494 296 611 q 276 324 261 395 q 332 211 292 254 z "},"Ɔ":{"ha":1033,"x_min":60,"x_max":1008,"o":"m 118 669 q 226 861 152 782 q 399 982 299 940 q 613 1024 499 1024 q 835 964 742 1024 q 967 791 927 904 q 981 516 1008 677 q 872 232 953 350 q 673 50 791 113 q 421 -14 556 -14 q 222 33 303 -14 q 101 160 142 80 q 61 335 60 239 l 245 335 q 310 199 249 247 q 467 150 371 150 q 675 237 584 150 q 794 494 765 325 q 789 692 813 611 q 707 817 765 774 q 563 860 648 860 q 402 810 474 860 q 299 669 330 760 l 118 669 z "},"Ϲ":{"ha":1033,"x_min":70,"x_max":1014,"o":"m 1011 669 l 830 669 q 774 810 829 760 q 629 860 718 860 q 472 817 545 860 q 347 692 399 774 q 277 494 296 611 q 311 237 250 325 q 491 150 373 150 q 663 199 586 150 q 773 335 741 247 l 957 335 q 860 160 927 239 q 696 33 793 80 q 482 -14 600 -14 q 251 50 347 -14 q 112 232 154 113 q 97 516 70 350 q 202 791 124 677 q 392 964 280 904 q 634 1024 505 1024 q 834 982 748 1024 q 967 861 920 940 q 1011 669 1014 782 z "},"D":{"ha":1006,"x_min":36,"x_max":978,"o":"m 384 0 l 36 0 l 204 1010 l 548 1010 q 798 948 699 1010 q 937 771 897 886 q 951 496 978 656 q 850 230 925 341 q 656 59 774 118 q 384 0 538 0 m 246 158 l 393 158 q 647 248 551 158 q 773 516 744 338 q 521 852 830 852 l 361 852 l 246 158 z "},"Ɗ":{"ha":1272,"x_min":106,"x_max":1243,"o":"m 106 681 l 119 769 q 216 944 136 877 q 419 1010 297 1010 l 814 1010 q 1063 948 964 1010 q 1203 771 1163 886 q 1216 496 1243 656 q 1115 230 1191 341 q 921 59 1040 118 q 649 0 803 0 l 302 0 l 443 852 l 394 852 q 309 815 333 852 q 279 733 286 779 l 270 681 l 106 681 m 511 158 l 658 158 q 913 248 816 158 q 1038 516 1009 338 q 787 852 1095 852 l 626 852 l 511 158 z "},"Ď":{"ha":1006,"x_min":36,"x_max":978,"o":"m 384 0 l 36 0 l 204 1010 l 548 1010 q 798 948 699 1010 q 937 771 897 886 q 951 496 978 656 q 850 230 925 341 q 656 59 774 118 q 384 0 538 0 m 246 158 l 393 158 q 647 248 551 158 q 773 516 744 338 q 521 852 830 852 l 361 852 l 246 158 m 544 1321 l 623 1195 l 744 1321 l 901 1321 l 900 1314 l 678 1101 l 539 1101 l 387 1314 l 388 1321 l 544 1321 z "},"Ḋ":{"ha":1006,"x_min":36,"x_max":978,"o":"m 384 0 l 36 0 l 204 1010 l 548 1010 q 798 948 699 1010 q 937 771 897 886 q 951 496 978 656 q 850 230 925 341 q 656 59 774 118 q 384 0 538 0 m 246 158 l 393 158 q 647 248 551 158 q 773 516 744 338 q 521 852 830 852 l 361 852 l 246 158 m 618 1118 q 548 1146 576 1118 q 523 1214 519 1174 q 559 1283 527 1255 q 635 1311 592 1311 q 705 1283 677 1311 q 729 1214 733 1255 q 694 1146 727 1174 q 618 1118 661 1118 z "},"Ḍ":{"ha":1006,"x_min":36,"x_max":978,"o":"m 384 0 l 36 0 l 204 1010 l 548 1010 q 798 948 699 1010 q 937 771 897 886 q 951 496 978 656 q 850 230 925 341 q 656 59 774 118 q 384 0 538 0 m 246 158 l 393 158 q 647 248 551 158 q 773 516 744 338 q 521 852 830 852 l 361 852 l 246 158 m 299 -271 q 229 -243 257 -271 q 204 -175 200 -215 q 240 -106 208 -134 q 316 -77 273 -77 q 386 -106 358 -77 q 410 -175 414 -134 q 375 -243 407 -215 q 299 -271 342 -271 z "},"Ḏ":{"ha":1006,"x_min":36,"x_max":978,"o":"m 384 0 l 36 0 l 204 1010 l 548 1010 q 798 948 699 1010 q 937 771 897 886 q 951 496 978 656 q 850 230 925 341 q 656 59 774 118 q 384 0 538 0 m 246 158 l 393 158 q 647 248 551 158 q 773 516 744 338 q 521 852 830 852 l 361 852 l 246 158 m 552 -125 l 535 -234 l 60 -234 l 77 -125 l 552 -125 z "},"Ḑ":{"ha":1006,"x_min":36,"x_max":978,"o":"m 384 0 l 36 0 l 204 1010 l 548 1010 q 798 948 699 1010 q 937 771 897 886 q 951 496 978 656 q 850 230 925 341 q 656 59 774 118 q 384 0 538 0 m 246 158 l 393 158 q 647 248 551 158 q 773 516 744 338 q 521 852 830 852 l 361 852 l 246 158 m 138 -327 l 239 -80 l 408 -80 l 267 -327 l 138 -327 z "},"Ḓ":{"ha":1006,"x_min":36,"x_max":978,"o":"m 384 0 l 36 0 l 204 1010 l 548 1010 q 798 948 699 1010 q 937 771 897 886 q 951 496 978 656 q 850 230 925 341 q 656 59 774 118 q 384 0 538 0 m 246 158 l 393 158 q 647 248 551 158 q 773 516 744 338 q 521 852 830 852 l 361 852 l 246 158 m 197 -283 l 41 -283 l 42 -276 l 265 -63 l 404 -63 l 555 -276 l 554 -283 l 398 -283 l 319 -157 l 197 -283 z "},"Ɖ":{"ha":1006,"x_min":-17,"x_max":978,"o":"m 384 0 l 36 0 l 204 1010 l 548 1010 q 798 948 699 1010 q 937 771 897 886 q 951 496 978 656 q 850 230 925 341 q 656 59 774 118 q 384 0 538 0 m 246 158 l 393 158 q 647 248 551 158 q 773 516 744 338 q 521 852 830 852 l 361 852 l 246 158 m -17 472 l 2 585 l 475 585 l 456 472 l -17 472 z "},"ǲ":{"ha":1788,"x_min":36,"x_max":1761,"o":"m 384 0 l 36 0 l 204 1010 l 548 1010 q 798 948 699 1010 q 937 771 897 886 q 951 496 978 656 q 850 230 925 341 q 656 59 774 118 q 384 0 538 0 m 246 158 l 393 158 q 647 248 551 158 q 773 516 744 338 q 521 852 830 852 l 361 852 l 246 158 m 1025 0 l 1045 113 l 1516 603 l 1518 610 l 1140 610 l 1165 758 l 1761 758 l 1741 636 l 1290 154 l 1288 148 l 1672 148 l 1648 0 l 1025 0 z "},"ǅ":{"ha":1788,"x_min":36,"x_max":1765,"o":"m 384 0 l 36 0 l 204 1010 l 548 1010 q 798 948 699 1010 q 937 771 897 886 q 951 496 978 656 q 850 230 925 341 q 656 59 774 118 q 384 0 538 0 m 246 158 l 393 158 q 647 248 551 158 q 773 516 744 338 q 521 852 830 852 l 361 852 l 246 158 m 1025 0 l 1045 113 l 1516 603 l 1518 610 l 1140 610 l 1165 758 l 1761 758 l 1741 636 l 1290 154 l 1288 148 l 1672 148 l 1648 0 l 1025 0 m 1408 1068 l 1488 942 l 1609 1068 l 1765 1068 l 1764 1061 l 1543 848 l 1403 848 l 1251 1061 l 1252 1068 l 1408 1068 z "},"E":{"ha":844,"x_min":36,"x_max":861,"o":"m 36 0 l 204 1010 l 861 1010 l 836 857 l 362 857 l 316 582 l 756 582 l 730 429 l 291 429 l 245 153 l 723 153 l 697 0 l 36 0 z "},"È":{"ha":844,"x_min":36,"x_max":861,"o":"m 36 0 l 204 1010 l 861 1010 l 836 857 l 362 857 l 316 582 l 756 582 l 730 429 l 291 429 l 245 153 l 723 153 l 697 0 l 36 0 m 485 1110 l 372 1335 l 546 1335 l 619 1110 l 485 1110 z "},"É":{"ha":844,"x_min":36,"x_max":861,"o":"m 36 0 l 204 1010 l 861 1010 l 836 857 l 362 857 l 316 582 l 756 582 l 730 429 l 291 429 l 245 153 l 723 153 l 697 0 l 36 0 m 482 1110 l 629 1335 l 804 1335 l 615 1110 l 482 1110 z "},"Ê":{"ha":844,"x_min":36,"x_max":861,"o":"m 36 0 l 204 1010 l 861 1010 l 836 857 l 362 857 l 316 582 l 756 582 l 730 429 l 291 429 l 245 153 l 723 153 l 697 0 l 36 0 m 448 1101 l 292 1101 l 293 1108 l 516 1321 l 656 1321 l 806 1108 l 805 1101 l 649 1101 l 570 1227 l 448 1101 z "},"Ë":{"ha":844,"x_min":36,"x_max":861,"o":"m 36 0 l 204 1010 l 861 1010 l 836 857 l 362 857 l 316 582 l 756 582 l 730 429 l 291 429 l 245 153 l 723 153 l 697 0 l 36 0 m 711 1122 q 642 1152 669 1122 q 622 1226 616 1183 q 658 1284 629 1261 q 721 1308 687 1308 q 791 1277 765 1308 q 809 1203 816 1247 q 776 1146 804 1170 q 711 1122 748 1122 m 415 1122 q 346 1153 373 1122 q 327 1226 320 1184 q 361 1284 332 1261 q 425 1308 391 1308 q 495 1277 469 1308 q 513 1203 520 1247 q 480 1146 509 1170 q 415 1122 452 1122 z "},"Ē":{"ha":844,"x_min":36,"x_max":861,"o":"m 36 0 l 204 1010 l 861 1010 l 836 857 l 362 857 l 316 582 l 756 582 l 730 429 l 291 429 l 245 153 l 723 153 l 697 0 l 36 0 m 813 1263 l 795 1154 l 320 1154 l 337 1263 l 813 1263 z "},"Ĕ":{"ha":844,"x_min":36,"x_max":861,"o":"m 36 0 l 204 1010 l 861 1010 l 836 857 l 362 857 l 316 582 l 756 582 l 730 429 l 291 429 l 245 153 l 723 153 l 697 0 l 36 0 m 674 1271 l 808 1271 q 722 1131 794 1184 q 545 1077 651 1077 q 386 1131 439 1077 q 347 1271 332 1184 l 480 1271 q 491 1207 473 1235 q 562 1179 509 1179 q 641 1207 615 1179 q 674 1271 668 1235 z "},"Ė":{"ha":844,"x_min":36,"x_max":861,"o":"m 36 0 l 204 1010 l 861 1010 l 836 857 l 362 857 l 316 582 l 756 582 l 730 429 l 291 429 l 245 153 l 723 153 l 697 0 l 36 0 m 559 1118 q 489 1146 517 1118 q 464 1214 460 1174 q 500 1283 468 1255 q 576 1311 533 1311 q 646 1283 618 1311 q 670 1214 674 1255 q 635 1146 667 1174 q 559 1118 602 1118 z "},"Ę":{"ha":844,"x_min":36,"x_max":861,"o":"m 36 0 l 204 1010 l 861 1010 l 836 857 l 362 857 l 316 582 l 756 582 l 730 429 l 291 429 l 245 153 l 723 153 l 697 0 l 36 0 m 554 -287 q 453 -254 490 -287 q 419 -157 416 -220 q 462 -41 421 -99 q 584 52 503 17 l 697 0 q 612 -54 648 -26 q 570 -121 576 -83 q 610 -171 560 -171 q 643 -166 629 -171 q 669 -157 658 -161 l 670 -257 q 621 -277 651 -268 q 554 -287 591 -287 z "},"Ě":{"ha":844,"x_min":36,"x_max":861,"o":"m 36 0 l 204 1010 l 861 1010 l 836 857 l 362 857 l 316 582 l 756 582 l 730 429 l 291 429 l 245 153 l 723 153 l 697 0 l 36 0 m 484 1321 l 564 1195 l 685 1321 l 841 1321 l 840 1314 l 619 1101 l 479 1101 l 327 1314 l 328 1321 l 484 1321 z "},"Ȅ":{"ha":844,"x_min":36,"x_max":861,"o":"m 36 0 l 204 1010 l 861 1010 l 836 857 l 362 857 l 316 582 l 756 582 l 730 429 l 291 429 l 245 153 l 723 153 l 697 0 l 36 0 m 675 1110 l 555 1247 l 621 1335 l 731 1198 l 675 1110 m 444 1110 l 297 1247 l 340 1335 l 483 1198 l 444 1110 z "},"Ȇ":{"ha":844,"x_min":36,"x_max":861,"o":"m 36 0 l 204 1010 l 861 1010 l 836 857 l 362 857 l 316 582 l 756 582 l 730 429 l 291 429 l 245 153 l 723 153 l 697 0 l 36 0 m 324 1133 q 409 1275 338 1220 q 586 1331 479 1331 q 746 1275 692 1331 q 785 1133 799 1220 l 652 1133 q 639 1197 657 1169 q 570 1225 621 1225 q 489 1197 516 1225 q 457 1133 462 1168 l 324 1133 z "},"Ȩ":{"ha":844,"x_min":36,"x_max":861,"o":"m 36 0 l 204 1010 l 861 1010 l 836 857 l 362 857 l 316 582 l 756 582 l 730 429 l 291 429 l 245 153 l 723 153 l 697 0 l 36 0 m 314 4 l 410 4 l 395 -38 q 468 -74 440 -45 q 485 -157 495 -103 q 404 -269 474 -227 q 218 -312 334 -312 l 230 -224 q 323 -209 287 -224 q 365 -161 359 -193 q 349 -115 371 -130 q 275 -95 327 -101 l 314 4 z "},"Ḕ":{"ha":844,"x_min":36,"x_max":861,"o":"m 36 0 l 204 1010 l 861 1010 l 836 857 l 362 857 l 316 582 l 756 582 l 730 429 l 291 429 l 245 153 l 723 153 l 697 0 l 36 0 m 808 1238 l 790 1129 l 315 1129 l 332 1238 l 808 1238 m 519 1316 l 378 1483 l 551 1483 l 665 1316 l 519 1316 z "},"Ḗ":{"ha":844,"x_min":36,"x_max":861,"o":"m 36 0 l 204 1010 l 861 1010 l 836 857 l 362 857 l 316 582 l 756 582 l 730 429 l 291 429 l 245 153 l 723 153 l 697 0 l 36 0 m 805 1238 l 787 1129 l 312 1129 l 329 1238 l 805 1238 m 502 1316 l 671 1483 l 844 1483 l 647 1316 l 502 1316 z "},"Ḙ":{"ha":844,"x_min":36,"x_max":861,"o":"m 36 0 l 204 1010 l 861 1010 l 836 857 l 362 857 l 316 582 l 756 582 l 730 429 l 291 429 l 245 153 l 723 153 l 697 0 l 36 0 m 221 -283 l 65 -283 l 66 -276 l 289 -63 l 429 -63 l 579 -276 l 578 -283 l 422 -283 l 343 -157 l 221 -283 z "},"Ḛ":{"ha":844,"x_min":36,"x_max":861,"o":"m 36 0 l 204 1010 l 861 1010 l 836 857 l 362 857 l 316 582 l 756 582 l 730 429 l 291 429 l 245 153 l 723 153 l 697 0 l 36 0 m 196 -264 l 89 -261 q 157 -124 104 -173 q 276 -74 211 -74 q 346 -91 320 -74 q 394 -127 372 -109 q 447 -144 416 -144 q 495 -123 475 -144 q 520 -69 515 -102 l 625 -73 q 557 -210 611 -161 q 437 -259 504 -258 q 380 -248 401 -259 q 342 -224 358 -238 q 310 -200 326 -210 q 269 -189 293 -189 q 222 -210 243 -189 q 196 -264 202 -230 z "},"Ḝ":{"ha":844,"x_min":36,"x_max":861,"o":"m 36 0 l 204 1010 l 861 1010 l 836 857 l 362 857 l 316 582 l 756 582 l 730 429 l 291 429 l 245 153 l 723 153 l 697 0 l 36 0 m 314 4 l 410 4 l 395 -38 q 468 -74 440 -45 q 485 -157 495 -103 q 404 -269 474 -227 q 218 -312 334 -312 l 230 -224 q 323 -209 287 -224 q 365 -161 359 -193 q 349 -115 371 -130 q 275 -95 327 -101 l 314 4 m 674 1271 l 808 1271 q 722 1131 794 1184 q 545 1077 651 1077 q 386 1131 439 1077 q 347 1271 332 1184 l 480 1271 q 491 1207 473 1235 q 562 1179 509 1179 q 641 1207 615 1179 q 674 1271 668 1235 z "},"Ẹ":{"ha":844,"x_min":36,"x_max":861,"o":"m 36 0 l 204 1010 l 861 1010 l 836 857 l 362 857 l 316 582 l 756 582 l 730 429 l 291 429 l 245 153 l 723 153 l 697 0 l 36 0 m 324 -271 q 253 -243 281 -271 q 228 -175 224 -215 q 264 -106 232 -134 q 340 -77 297 -77 q 410 -106 382 -77 q 435 -175 438 -134 q 399 -243 432 -215 q 324 -271 366 -271 z "},"Ẻ":{"ha":844,"x_min":36,"x_max":861,"o":"m 36 0 l 204 1010 l 861 1010 l 836 857 l 362 857 l 316 582 l 756 582 l 730 429 l 291 429 l 245 153 l 723 153 l 697 0 l 36 0 m 620 1117 l 484 1117 l 493 1211 q 569 1225 545 1214 q 595 1257 592 1236 q 573 1294 600 1284 q 502 1305 545 1305 l 522 1393 q 701 1358 644 1393 q 749 1261 759 1322 q 705 1191 741 1214 q 627 1162 668 1168 l 620 1117 z "},"Ẽ":{"ha":844,"x_min":36,"x_max":861,"o":"m 36 0 l 204 1010 l 861 1010 l 836 857 l 362 857 l 316 582 l 756 582 l 730 429 l 291 429 l 245 153 l 723 153 l 697 0 l 36 0 m 405 1102 l 298 1105 q 366 1243 312 1193 q 485 1292 419 1292 q 554 1275 528 1292 q 602 1240 581 1257 q 655 1222 624 1222 q 704 1243 684 1222 q 729 1298 724 1265 l 834 1293 q 766 1156 819 1205 q 646 1107 712 1108 q 588 1118 610 1107 q 550 1142 566 1128 q 518 1167 535 1156 q 477 1177 502 1177 q 431 1157 451 1177 q 405 1102 411 1136 z "},"Ế":{"ha":844,"x_min":36,"x_max":1065,"o":"m 36 0 l 204 1010 l 861 1010 l 836 857 l 362 857 l 316 582 l 756 582 l 730 429 l 291 429 l 245 153 l 723 153 l 697 0 l 36 0 m 292 1094 l 519 1257 l 631 1257 l 804 1094 l 656 1094 l 563 1185 l 441 1094 l 292 1094 m 768 1193 l 908 1375 l 1065 1375 l 882 1193 l 768 1193 z "},"Ề":{"ha":844,"x_min":36,"x_max":861,"o":"m 36 0 l 204 1010 l 861 1010 l 836 857 l 362 857 l 316 582 l 756 582 l 730 429 l 291 429 l 245 153 l 723 153 l 697 0 l 36 0 m 629 1256 l 803 1094 l 655 1094 l 564 1185 l 440 1094 l 293 1094 l 518 1256 l 629 1256 m 283 1375 l 361 1193 l 250 1193 l 126 1375 l 283 1375 z "},"Ể":{"ha":844,"x_min":36,"x_max":969,"o":"m 36 0 l 204 1010 l 861 1010 l 836 857 l 362 857 l 316 582 l 756 582 l 730 429 l 291 429 l 245 153 l 723 153 l 697 0 l 36 0 m 636 1251 l 801 1089 l 663 1089 l 562 1188 l 428 1089 l 291 1089 l 510 1251 l 636 1251 m 852 1178 l 752 1178 l 758 1258 q 846 1296 840 1262 q 826 1327 849 1319 q 764 1336 802 1336 l 783 1411 q 924 1381 879 1411 q 960 1300 969 1351 q 923 1240 953 1260 q 858 1215 892 1221 l 852 1178 z "},"Ễ":{"ha":844,"x_min":36,"x_max":861,"o":"m 36 0 l 204 1010 l 861 1010 l 836 857 l 362 857 l 316 582 l 756 582 l 730 429 l 291 429 l 245 153 l 723 153 l 697 0 l 36 0 m 623 1239 l 799 1083 l 662 1083 l 558 1173 l 428 1083 l 289 1083 l 516 1239 l 623 1239 m 711 1409 l 774 1386 q 734 1313 767 1346 q 657 1280 701 1280 q 604 1291 625 1280 q 564 1314 583 1303 q 521 1325 546 1325 q 488 1310 503 1325 q 470 1277 472 1296 l 407 1295 q 446 1368 413 1334 q 524 1401 479 1401 q 571 1391 550 1401 q 614 1369 593 1380 q 660 1358 635 1358 q 692 1374 677 1358 q 711 1409 708 1390 z "},"Ệ":{"ha":844,"x_min":36,"x_max":861,"o":"m 36 0 l 204 1010 l 861 1010 l 836 857 l 362 857 l 316 582 l 756 582 l 730 429 l 291 429 l 245 153 l 723 153 l 697 0 l 36 0 m 448 1101 l 292 1101 l 293 1108 l 516 1321 l 656 1321 l 806 1108 l 805 1101 l 649 1101 l 570 1227 l 448 1101 m 324 -271 q 253 -243 281 -271 q 228 -175 224 -215 q 264 -106 232 -134 q 340 -77 297 -77 q 410 -106 382 -77 q 435 -175 438 -134 q 399 -243 432 -215 q 324 -271 366 -271 z "},"Ɇ":{"ha":844,"x_min":36,"x_max":861,"o":"m 823 1138 l 764 1010 l 861 1010 l 836 857 l 694 857 l 570 582 l 756 582 l 730 429 l 500 429 l 375 153 l 723 153 l 697 0 l 305 0 l 247 -128 l 134 -128 l 192 0 l 36 0 l 204 1010 l 652 1010 l 710 1138 l 823 1138 m 582 857 l 362 857 l 316 582 l 457 582 l 582 857 m 388 429 l 291 429 l 245 153 l 262 153 l 388 429 z "},"Ǝ":{"ha":841,"x_min":-32,"x_max":793,"o":"m 793 1010 l 625 0 l -32 0 l -6 153 l 468 153 l 513 428 l 73 428 l 99 581 l 539 581 l 584 857 l 106 857 l 132 1010 l 793 1010 z "},"Ε":{"ha":844,"x_min":36,"x_max":861,"o":"m 36 0 l 204 1010 l 861 1010 l 836 857 l 362 857 l 316 582 l 756 582 l 730 429 l 291 429 l 245 153 l 723 153 l 697 0 l 36 0 z "},"Έ":{"ha":1046,"x_min":138,"x_max":1063,"o":"m 239 0 l 406 1010 l 1063 1010 l 1038 857 l 564 857 l 518 582 l 958 582 l 933 429 l 493 429 l 447 153 l 925 153 l 900 0 l 239 0 m 138 846 l 223 1080 l 390 1080 l 248 846 l 138 846 z "},"Ἐ":{"ha":1050,"x_min":128,"x_max":1067,"o":"m 242 0 l 410 1010 l 1067 1010 l 1041 857 l 567 857 l 522 582 l 962 582 l 936 429 l 496 429 l 451 153 l 929 153 l 903 0 l 242 0 m 333 1010 l 324 948 q 273 839 314 886 q 176 765 233 792 l 128 820 q 181 877 163 845 q 205 952 198 909 l 214 1010 l 333 1010 z "},"Ἑ":{"ha":1038,"x_min":143,"x_max":1055,"o":"m 230 0 l 398 1010 l 1055 1010 l 1029 857 l 555 857 l 510 582 l 950 582 l 924 429 l 484 429 l 439 153 l 917 153 l 891 0 l 230 0 m 152 948 l 163 1010 l 284 1010 l 274 952 q 274 879 268 912 q 306 820 280 845 l 240 765 q 167 839 192 792 q 152 948 143 886 z "},"Ἒ":{"ha":1299,"x_min":129,"x_max":1316,"o":"m 491 0 l 659 1010 l 1316 1010 l 1290 857 l 816 857 l 771 582 l 1211 582 l 1185 429 l 745 429 l 700 153 l 1178 153 l 1152 0 l 491 0 m 344 1010 l 336 955 q 284 847 326 896 q 177 765 242 798 l 129 807 q 183 874 163 838 q 211 959 204 911 l 218 1010 l 344 1010 m 564 791 l 562 781 l 497 781 l 374 996 l 376 1010 l 521 1010 l 564 791 z "},"Ἓ":{"ha":1252,"x_min":141,"x_max":1269,"o":"m 444 0 l 612 1010 l 1269 1010 l 1243 857 l 769 857 l 724 582 l 1163 582 l 1138 429 l 698 429 l 653 153 l 1130 153 l 1105 0 l 444 0 m 150 948 l 161 1010 l 283 1010 l 273 952 q 272 879 266 912 q 306 820 278 845 l 239 765 q 165 839 190 792 q 150 948 141 886 m 522 794 l 520 780 l 456 780 l 332 996 l 334 1010 l 481 1010 l 522 794 z "},"Ἔ":{"ha":1267,"x_min":133,"x_max":1284,"o":"m 459 0 l 627 1010 l 1284 1010 l 1258 857 l 784 857 l 739 582 l 1179 582 l 1153 429 l 713 429 l 668 153 l 1146 153 l 1120 0 l 459 0 m 340 1010 l 329 948 q 278 840 320 887 q 179 765 237 792 l 133 820 q 184 879 167 845 q 209 952 201 912 l 218 1010 l 340 1010 m 319 780 l 321 794 l 436 1010 l 581 1010 l 579 996 l 384 780 l 319 780 z "},"Ἕ":{"ha":1288,"x_min":143,"x_max":1305,"o":"m 480 0 l 648 1010 l 1305 1010 l 1279 857 l 805 857 l 760 582 l 1200 582 l 1174 429 l 734 429 l 689 153 l 1167 153 l 1141 0 l 480 0 m 240 765 q 168 838 193 792 q 153 948 143 885 l 163 1010 l 284 1010 l 275 952 q 274 877 268 909 q 307 820 281 845 l 240 765 m 334 780 l 336 794 l 448 1010 l 595 1010 l 593 996 l 398 780 l 334 780 z "},"Ὲ":{"ha":1102,"x_min":163,"x_max":1119,"o":"m 294 0 l 462 1010 l 1119 1010 l 1093 857 l 619 857 l 574 582 l 1014 582 l 988 429 l 548 429 l 503 153 l 981 153 l 955 0 l 294 0 m 286 779 l 163 996 l 163 1010 l 310 1010 l 352 796 l 352 779 l 286 779 z "},"Έ":{"ha":1069,"x_min":167,"x_max":1087,"o":"m 262 0 l 430 1010 l 1087 1010 l 1061 857 l 587 857 l 542 582 l 981 582 l 956 429 l 516 429 l 471 153 l 948 153 l 923 0 l 262 0 m 167 852 l 170 869 l 282 1083 l 455 1083 l 453 1069 l 257 852 l 167 852 z "},"Е":{"ha":844,"x_min":36,"x_max":861,"o":"m 36 0 l 204 1010 l 861 1010 l 836 857 l 362 857 l 316 582 l 756 582 l 730 429 l 291 429 l 245 153 l 723 153 l 697 0 l 36 0 z "},"Ѐ":{"ha":844,"x_min":36,"x_max":861,"o":"m 36 0 l 204 1010 l 861 1010 l 836 857 l 362 857 l 316 582 l 756 582 l 730 429 l 291 429 l 245 153 l 723 153 l 697 0 l 36 0 m 485 1110 l 372 1335 l 546 1335 l 619 1110 l 485 1110 z "},"Ё":{"ha":844,"x_min":36,"x_max":861,"o":"m 36 0 l 204 1010 l 861 1010 l 836 857 l 362 857 l 316 582 l 756 582 l 730 429 l 291 429 l 245 153 l 723 153 l 697 0 l 36 0 m 711 1122 q 643 1152 669 1122 q 623 1226 616 1183 q 658 1284 629 1261 q 722 1308 687 1308 q 791 1277 765 1308 q 810 1203 817 1247 q 777 1146 805 1170 q 711 1122 748 1122 m 415 1122 q 347 1153 373 1122 q 327 1226 321 1184 q 362 1284 332 1261 q 426 1308 391 1308 q 495 1277 470 1308 q 514 1203 521 1247 q 481 1146 509 1170 q 415 1122 452 1122 z "},"Ӗ":{"ha":844,"x_min":36,"x_max":861,"o":"m 36 0 l 204 1010 l 861 1010 l 836 857 l 362 857 l 316 582 l 756 582 l 730 429 l 291 429 l 245 153 l 723 153 l 697 0 l 36 0 m 674 1271 l 808 1271 q 722 1131 794 1184 q 545 1077 651 1077 q 386 1131 439 1077 q 347 1271 332 1184 l 480 1271 q 491 1207 473 1235 q 562 1179 509 1179 q 641 1207 615 1179 q 674 1271 668 1235 z "},"F":{"ha":813,"x_min":36,"x_max":851,"o":"m 36 0 l 204 1010 l 851 1010 l 826 857 l 362 857 l 316 582 l 736 582 l 710 429 l 291 429 l 219 0 l 36 0 z "},"Ƒ":{"ha":836,"x_min":-134,"x_max":873,"o":"m 58 0 l 59 0 l 226 1010 l 873 1010 l 848 857 l 384 857 l 338 582 l 758 582 l 732 429 l 313 429 l 242 0 l 232 -58 q 174 -194 217 -145 q 71 -264 132 -244 q -60 -284 9 -284 q -96 -283 -74 -284 q -134 -279 -118 -283 l -111 -138 q -91 -140 -103 -140 q -68 -141 -80 -141 q 7 -124 -28 -141 q 50 -57 42 -108 l 58 0 z "},"Ḟ":{"ha":813,"x_min":36,"x_max":851,"o":"m 36 0 l 204 1010 l 851 1010 l 826 857 l 362 857 l 316 582 l 736 582 l 710 429 l 291 429 l 219 0 l 36 0 m 563 1118 q 492 1146 520 1118 q 467 1214 464 1174 q 504 1283 471 1255 q 579 1311 536 1311 q 649 1283 621 1311 q 674 1214 677 1255 q 638 1146 671 1174 q 563 1118 605 1118 z "},"Ⅎ":{"ha":813,"x_min":3,"x_max":818,"o":"m 818 1010 l 651 0 l 3 0 l 29 153 l 493 153 l 539 428 l 119 428 l 145 581 l 564 581 l 635 1010 l 818 1010 z "},"G":{"ha":1049,"x_min":69,"x_max":1015,"o":"m 827 688 q 768 814 816 767 q 629 860 721 860 q 475 819 548 860 q 350 699 402 778 q 280 506 298 620 q 311 242 251 334 q 498 150 371 150 q 694 214 612 150 q 795 386 776 278 l 562 386 l 586 529 l 996 529 l 976 407 q 884 183 954 277 q 708 37 813 88 q 477 -14 602 -14 q 243 49 338 -14 q 109 228 148 112 q 96 504 69 344 q 202 783 122 667 q 397 962 282 900 q 644 1024 511 1024 q 839 981 755 1024 q 968 862 922 938 q 1013 688 1015 787 l 827 688 z "},"Ǥ":{"ha":1049,"x_min":69,"x_max":1016,"o":"m 1016 321 l 1002 237 l 918 237 q 736 52 853 118 q 477 -14 619 -14 q 243 49 338 -14 q 109 228 148 112 q 96 504 69 344 q 202 783 122 667 q 397 962 282 900 q 644 1024 511 1024 q 839 981 755 1024 q 968 862 922 938 q 1013 688 1015 787 l 827 688 q 768 814 816 767 q 629 860 721 860 q 475 819 548 860 q 350 699 402 778 q 280 506 298 620 q 311 242 251 334 q 498 150 371 150 q 621 173 565 150 q 719 237 678 195 l 538 237 l 551 321 l 776 321 q 795 386 789 351 l 562 386 l 586 529 l 996 529 l 976 407 q 954 321 968 363 l 1016 321 z "},"Ɠ":{"ha":1131,"x_min":69,"x_max":1250,"o":"m 1013 688 l 826 688 l 827 689 q 768 814 816 768 q 629 860 720 860 q 475 819 548 860 q 350 699 402 778 q 280 506 298 620 q 311 242 251 334 q 498 150 371 150 q 694 214 612 150 q 795 386 776 278 l 562 386 l 586 529 l 996 529 l 976 407 q 884 183 954 277 q 708 37 813 88 q 477 -14 602 -14 q 243 49 338 -14 q 109 228 148 112 q 96 504 69 344 q 202 783 122 667 q 397 962 282 900 q 644 1024 511 1024 q 786 1002 721 1024 q 899 943 851 981 q 1012 1041 942 1007 q 1164 1075 1082 1075 q 1209 1073 1187 1075 q 1250 1065 1231 1071 l 1227 921 q 1203 924 1215 922 q 1177 926 1190 926 q 1087 906 1126 926 q 1036 826 1047 886 l 1013 688 z "},"Ĝ":{"ha":1049,"x_min":69,"x_max":1015,"o":"m 827 688 q 768 814 816 767 q 629 860 721 860 q 475 819 548 860 q 350 699 402 778 q 280 506 298 620 q 311 242 251 334 q 498 150 371 150 q 694 214 612 150 q 795 386 776 278 l 562 386 l 586 529 l 996 529 l 976 407 q 884 183 954 277 q 708 37 813 88 q 477 -14 602 -14 q 243 49 338 -14 q 109 228 148 112 q 96 504 69 344 q 202 783 122 667 q 397 962 282 900 q 644 1024 511 1024 q 839 981 755 1024 q 968 862 922 938 q 1013 688 1015 787 l 827 688 m 553 1101 l 397 1101 l 398 1108 l 621 1321 l 761 1321 l 911 1108 l 910 1101 l 754 1101 l 675 1227 l 553 1101 z "},"Ğ":{"ha":1049,"x_min":69,"x_max":1015,"o":"m 827 688 q 768 814 816 767 q 629 860 721 860 q 475 819 548 860 q 350 699 402 778 q 280 506 298 620 q 311 242 251 334 q 498 150 371 150 q 694 214 612 150 q 795 386 776 278 l 562 386 l 586 529 l 996 529 l 976 407 q 884 183 954 277 q 708 37 813 88 q 477 -14 602 -14 q 243 49 338 -14 q 109 228 148 112 q 96 504 69 344 q 202 783 122 667 q 397 962 282 900 q 644 1024 511 1024 q 839 981 755 1024 q 968 862 922 938 q 1013 688 1015 787 l 827 688 m 779 1271 l 912 1271 q 827 1131 898 1184 q 649 1077 756 1077 q 490 1131 544 1077 q 451 1271 437 1184 l 584 1271 q 596 1207 578 1235 q 666 1179 614 1179 q 746 1207 719 1179 q 779 1271 772 1235 z "},"Ġ":{"ha":1049,"x_min":69,"x_max":1015,"o":"m 827 688 q 768 814 816 767 q 629 860 721 860 q 475 819 548 860 q 350 699 402 778 q 280 506 298 620 q 311 242 251 334 q 498 150 371 150 q 694 214 612 150 q 795 386 776 278 l 562 386 l 586 529 l 996 529 l 976 407 q 884 183 954 277 q 708 37 813 88 q 477 -14 602 -14 q 243 49 338 -14 q 109 228 148 112 q 96 504 69 344 q 202 783 122 667 q 397 962 282 900 q 644 1024 511 1024 q 839 981 755 1024 q 968 862 922 938 q 1013 688 1015 787 l 827 688 m 664 1118 q 593 1146 621 1118 q 568 1214 565 1174 q 605 1283 572 1255 q 680 1311 637 1311 q 750 1283 723 1311 q 775 1214 778 1255 q 739 1146 772 1174 q 664 1118 706 1118 z "},"Ģ":{"ha":1049,"x_min":69,"x_max":1015,"o":"m 827 688 q 768 814 816 767 q 629 860 721 860 q 475 819 548 860 q 350 699 402 778 q 280 506 298 620 q 311 242 251 334 q 498 150 371 150 q 694 214 612 150 q 795 386 776 278 l 562 386 l 586 529 l 996 529 l 976 407 q 884 183 954 277 q 708 37 813 88 q 477 -14 602 -14 q 243 49 338 -14 q 109 228 148 112 q 96 504 69 344 q 202 783 122 667 q 397 962 282 900 q 644 1024 511 1024 q 839 981 755 1024 q 968 862 922 938 q 1013 688 1015 787 l 827 688 m 271 -326 l 372 -78 l 542 -78 l 400 -326 l 271 -326 z "},"Ǧ":{"ha":1049,"x_min":69,"x_max":1015,"o":"m 827 688 q 768 814 816 767 q 629 860 721 860 q 475 819 548 860 q 350 699 402 778 q 280 506 298 620 q 311 242 251 334 q 498 150 371 150 q 694 214 612 150 q 795 386 776 278 l 562 386 l 586 529 l 996 529 l 976 407 q 884 183 954 277 q 708 37 813 88 q 477 -14 602 -14 q 243 49 338 -14 q 109 228 148 112 q 96 504 69 344 q 202 783 122 667 q 397 962 282 900 q 644 1024 511 1024 q 839 981 755 1024 q 968 862 922 938 q 1013 688 1015 787 l 827 688 m 589 1321 l 669 1195 l 790 1321 l 946 1321 l 945 1314 l 724 1101 l 584 1101 l 432 1314 l 433 1321 l 589 1321 z "},"Ǵ":{"ha":1049,"x_min":69,"x_max":1015,"o":"m 827 688 q 768 814 816 767 q 629 860 721 860 q 475 819 548 860 q 350 699 402 778 q 280 506 298 620 q 311 242 251 334 q 498 150 371 150 q 694 214 612 150 q 795 386 776 278 l 562 386 l 586 529 l 996 529 l 976 407 q 884 183 954 277 q 708 37 813 88 q 477 -14 602 -14 q 243 49 338 -14 q 109 228 148 112 q 96 504 69 344 q 202 783 122 667 q 397 962 282 900 q 644 1024 511 1024 q 839 981 755 1024 q 968 862 922 938 q 1013 688 1015 787 l 827 688 m 586 1110 l 734 1335 l 908 1335 l 720 1110 l 586 1110 z "},"Ḡ":{"ha":1049,"x_min":69,"x_max":1015,"o":"m 827 688 q 768 814 816 767 q 629 860 721 860 q 475 819 548 860 q 350 699 402 778 q 280 506 298 620 q 311 242 251 334 q 498 150 371 150 q 694 214 612 150 q 795 386 776 278 l 562 386 l 586 529 l 996 529 l 976 407 q 884 183 954 277 q 708 37 813 88 q 477 -14 602 -14 q 243 49 338 -14 q 109 228 148 112 q 96 504 69 344 q 202 783 122 667 q 397 962 282 900 q 644 1024 511 1024 q 839 981 755 1024 q 968 862 922 938 q 1013 688 1015 787 l 827 688 m 917 1263 l 900 1154 l 425 1154 l 442 1263 l 917 1263 z "},"":{"ha":1057,"x_min":69,"x_max":1025,"o":"m 477 -14 q 243 49 338 -14 q 109 228 148 112 q 96 504 69 344 q 203 783 122 667 q 400 962 284 900 q 648 1024 516 1024 q 845 981 760 1024 q 978 863 930 939 q 1024 688 1025 787 l 838 688 q 774 814 828 768 q 629 860 721 860 q 475 819 548 860 q 350 699 402 778 q 279 506 298 620 q 312 242 251 334 q 500 150 373 150 q 640 180 577 150 q 745 263 703 210 q 802 386 788 316 l 563 386 l 586 529 l 1005 529 l 917 0 l 786 0 l 793 118 l 788 118 q 648 20 724 55 q 477 -14 573 -14 z "},"":{"ha":1058,"x_min":69,"x_max":1025,"o":"m 1025 321 l 1012 237 l 957 237 l 917 0 l 786 0 l 793 118 l 788 118 q 648 20 724 55 q 477 -14 573 -14 q 243 49 338 -14 q 109 228 148 112 q 96 504 69 344 q 203 783 122 667 q 400 962 284 900 q 648 1024 516 1024 q 845 981 760 1024 q 978 863 930 939 q 1024 688 1025 787 l 838 688 q 774 814 828 768 q 629 860 721 860 q 475 819 548 860 q 350 699 402 778 q 279 506 298 620 q 312 242 251 334 q 500 150 373 150 q 624 173 567 150 q 722 237 681 196 l 538 237 l 551 321 l 781 321 q 802 386 795 352 l 563 386 l 586 529 l 1005 529 l 971 321 l 1025 321 z "},"":{"ha":1130,"x_min":69,"x_max":1262,"o":"m 1024 688 l 837 688 q 774 814 828 768 q 629 860 720 860 q 475 819 547 860 q 350 699 402 778 q 279 506 298 620 q 312 242 251 334 q 499 150 373 150 q 640 180 577 150 q 745 263 703 210 q 801 386 787 316 l 562 386 l 586 529 l 1005 529 l 917 0 l 786 0 l 793 118 l 787 118 q 648 20 723 55 q 477 -14 573 -14 q 243 49 338 -14 q 108 228 148 112 q 95 504 69 344 q 203 783 122 667 q 400 962 284 900 q 648 1024 516 1024 q 793 1002 727 1024 q 908 940 859 980 q 1022 1041 951 1006 q 1175 1075 1092 1075 q 1220 1073 1198 1075 q 1262 1065 1242 1071 l 1238 921 q 1214 924 1227 922 q 1188 926 1201 926 q 1097 906 1137 926 q 1047 826 1057 886 l 1024 688 z "},"":{"ha":1057,"x_min":69,"x_max":1025,"o":"m 477 -14 q 243 49 338 -14 q 109 228 148 112 q 96 504 69 344 q 203 783 122 667 q 400 962 284 900 q 648 1024 516 1024 q 845 981 760 1024 q 978 863 930 939 q 1024 688 1025 787 l 838 688 q 774 814 828 768 q 629 860 721 860 q 475 819 548 860 q 350 699 402 778 q 279 506 298 620 q 312 242 251 334 q 500 150 373 150 q 640 180 577 150 q 745 263 703 210 q 802 386 788 316 l 563 386 l 586 529 l 1005 529 l 917 0 l 786 0 l 793 118 l 788 118 q 648 20 724 55 q 477 -14 573 -14 m 553 1101 l 397 1101 l 398 1108 l 621 1321 l 761 1321 l 911 1108 l 910 1101 l 754 1101 l 675 1227 l 553 1101 z "},"":{"ha":1057,"x_min":69,"x_max":1025,"o":"m 477 -14 q 243 49 338 -14 q 109 228 148 112 q 96 504 69 344 q 203 783 122 667 q 400 962 284 900 q 648 1024 516 1024 q 845 981 760 1024 q 978 863 930 939 q 1024 688 1025 787 l 838 688 q 774 814 828 768 q 629 860 721 860 q 475 819 548 860 q 350 699 402 778 q 279 506 298 620 q 312 242 251 334 q 500 150 373 150 q 640 180 577 150 q 745 263 703 210 q 802 386 788 316 l 563 386 l 586 529 l 1005 529 l 917 0 l 786 0 l 793 118 l 788 118 q 648 20 724 55 q 477 -14 573 -14 m 779 1271 l 912 1271 q 827 1131 898 1184 q 649 1077 756 1077 q 490 1131 544 1077 q 451 1271 437 1184 l 584 1271 q 596 1207 578 1235 q 666 1179 614 1179 q 746 1207 719 1179 q 779 1271 772 1235 z "},"":{"ha":1057,"x_min":69,"x_max":1025,"o":"m 477 -14 q 243 49 338 -14 q 109 228 148 112 q 96 504 69 344 q 203 783 122 667 q 400 962 284 900 q 648 1024 516 1024 q 845 981 760 1024 q 978 863 930 939 q 1024 688 1025 787 l 838 688 q 774 814 828 768 q 629 860 721 860 q 475 819 548 860 q 350 699 402 778 q 279 506 298 620 q 312 242 251 334 q 500 150 373 150 q 640 180 577 150 q 745 263 703 210 q 802 386 788 316 l 563 386 l 586 529 l 1005 529 l 917 0 l 786 0 l 793 118 l 788 118 q 648 20 724 55 q 477 -14 573 -14 m 664 1118 q 593 1146 621 1118 q 568 1214 565 1174 q 605 1283 572 1255 q 680 1311 637 1311 q 750 1283 723 1311 q 775 1214 778 1255 q 739 1146 772 1174 q 664 1118 706 1118 z "},"":{"ha":1057,"x_min":69,"x_max":1025,"o":"m 477 -14 q 243 49 338 -14 q 109 228 148 112 q 96 504 69 344 q 203 783 122 667 q 400 962 284 900 q 648 1024 516 1024 q 845 981 760 1024 q 978 863 930 939 q 1024 688 1025 787 l 838 688 q 774 814 828 768 q 629 860 721 860 q 475 819 548 860 q 350 699 402 778 q 279 506 298 620 q 312 242 251 334 q 500 150 373 150 q 640 180 577 150 q 745 263 703 210 q 802 386 788 316 l 563 386 l 586 529 l 1005 529 l 917 0 l 786 0 l 793 118 l 788 118 q 648 20 724 55 q 477 -14 573 -14 m 272 -326 l 373 -78 l 543 -78 l 401 -326 l 272 -326 z "},"":{"ha":1057,"x_min":69,"x_max":1025,"o":"m 477 -14 q 243 49 338 -14 q 109 228 148 112 q 96 504 69 344 q 203 783 122 667 q 400 962 284 900 q 648 1024 516 1024 q 845 981 760 1024 q 978 863 930 939 q 1024 688 1025 787 l 838 688 q 774 814 828 768 q 629 860 721 860 q 475 819 548 860 q 350 699 402 778 q 279 506 298 620 q 312 242 251 334 q 500 150 373 150 q 640 180 577 150 q 745 263 703 210 q 802 386 788 316 l 563 386 l 586 529 l 1005 529 l 917 0 l 786 0 l 793 118 l 788 118 q 648 20 724 55 q 477 -14 573 -14 m 589 1321 l 669 1195 l 790 1321 l 946 1321 l 945 1314 l 724 1101 l 584 1101 l 432 1314 l 433 1321 l 589 1321 z "},"":{"ha":1057,"x_min":69,"x_max":1025,"o":"m 477 -14 q 243 49 338 -14 q 109 228 148 112 q 96 504 69 344 q 203 783 122 667 q 400 962 284 900 q 648 1024 516 1024 q 845 981 760 1024 q 978 863 930 939 q 1024 688 1025 787 l 838 688 q 774 814 828 768 q 629 860 721 860 q 475 819 548 860 q 350 699 402 778 q 279 506 298 620 q 312 242 251 334 q 500 150 373 150 q 640 180 577 150 q 745 263 703 210 q 802 386 788 316 l 563 386 l 586 529 l 1005 529 l 917 0 l 786 0 l 793 118 l 788 118 q 648 20 724 55 q 477 -14 573 -14 m 586 1110 l 734 1335 l 908 1335 l 720 1110 l 586 1110 z "},"":{"ha":1057,"x_min":69,"x_max":1025,"o":"m 477 -14 q 243 49 338 -14 q 109 228 148 112 q 96 504 69 344 q 203 783 122 667 q 400 962 284 900 q 648 1024 516 1024 q 845 981 760 1024 q 978 863 930 939 q 1024 688 1025 787 l 838 688 q 774 814 828 768 q 629 860 721 860 q 475 819 548 860 q 350 699 402 778 q 279 506 298 620 q 312 242 251 334 q 500 150 373 150 q 640 180 577 150 q 745 263 703 210 q 802 386 788 316 l 563 386 l 586 529 l 1005 529 l 917 0 l 786 0 l 793 118 l 788 118 q 648 20 724 55 q 477 -14 573 -14 m 917 1263 l 900 1154 l 425 1154 l 442 1263 l 917 1263 z "},"H":{"ha":1033,"x_min":36,"x_max":1039,"o":"m 36 0 l 204 1010 l 387 1010 l 316 582 l 784 582 l 855 1010 l 1039 1010 l 871 0 l 688 0 l 759 429 l 291 429 l 219 0 l 36 0 z "},"Ḩ":{"ha":1033,"x_min":-10,"x_max":1039,"o":"m 36 0 l 204 1010 l 387 1010 l 316 582 l 784 582 l 855 1010 l 1039 1010 l 871 0 l 688 0 l 759 429 l 291 429 l 219 0 l 36 0 m 86 4 l 182 4 l 167 -38 q 240 -74 212 -45 q 257 -157 267 -103 q 177 -269 247 -227 q -10 -312 107 -312 l 2 -224 q 95 -209 59 -224 q 137 -161 131 -193 q 121 -115 143 -130 q 47 -95 99 -101 l 86 4 z "},"Ĥ":{"ha":1033,"x_min":36,"x_max":1039,"o":"m 36 0 l 204 1010 l 387 1010 l 316 582 l 784 582 l 855 1010 l 1039 1010 l 871 0 l 688 0 l 759 429 l 291 429 l 219 0 l 36 0 m 539 1102 l 383 1102 l 384 1109 l 607 1322 l 747 1322 l 897 1109 l 896 1102 l 740 1102 l 661 1228 l 539 1102 z "},"Ȟ":{"ha":1033,"x_min":36,"x_max":1039,"o":"m 36 0 l 204 1010 l 387 1010 l 316 582 l 784 582 l 855 1010 l 1039 1010 l 871 0 l 688 0 l 759 429 l 291 429 l 219 0 l 36 0 m 575 1322 l 655 1196 l 776 1322 l 932 1322 l 931 1315 l 710 1102 l 570 1102 l 418 1315 l 419 1322 l 575 1322 z "},"Ḣ":{"ha":1033,"x_min":36,"x_max":1039,"o":"m 36 0 l 204 1010 l 387 1010 l 316 582 l 784 582 l 855 1010 l 1039 1010 l 871 0 l 688 0 l 759 429 l 291 429 l 219 0 l 36 0 m 651 1119 q 580 1147 608 1119 q 555 1215 551 1175 q 591 1284 559 1256 q 667 1312 624 1312 q 737 1284 709 1312 q 762 1215 765 1256 q 726 1147 759 1175 q 651 1119 693 1119 z "},"Ḥ":{"ha":1033,"x_min":36,"x_max":1039,"o":"m 36 0 l 204 1010 l 387 1010 l 316 582 l 784 582 l 855 1010 l 1039 1010 l 871 0 l 688 0 l 759 429 l 291 429 l 219 0 l 36 0 m 417 -271 q 346 -243 374 -271 q 321 -175 318 -215 q 358 -106 325 -134 q 433 -77 390 -77 q 503 -106 475 -77 q 528 -175 531 -134 q 492 -243 525 -215 q 417 -271 459 -271 z "},"Ḧ":{"ha":1033,"x_min":36,"x_max":1039,"o":"m 36 0 l 204 1010 l 387 1010 l 316 582 l 784 582 l 855 1010 l 1039 1010 l 871 0 l 688 0 l 759 429 l 291 429 l 219 0 l 36 0 m 802 1123 q 733 1153 760 1123 q 714 1227 707 1184 q 749 1285 720 1262 q 812 1308 778 1308 q 882 1278 856 1308 q 901 1204 908 1248 q 867 1147 896 1171 q 802 1123 839 1123 m 506 1123 q 438 1154 464 1123 q 418 1227 411 1185 q 453 1285 423 1262 q 516 1308 482 1308 q 586 1278 560 1308 q 605 1204 612 1248 q 571 1147 600 1171 q 506 1123 543 1123 z "},"Ḫ":{"ha":1033,"x_min":36,"x_max":1039,"o":"m 36 0 l 204 1010 l 387 1010 l 316 582 l 784 582 l 855 1010 l 1039 1010 l 871 0 l 688 0 l 759 429 l 291 429 l 219 0 l 36 0 m 542 -59 l 675 -59 q 588 -201 660 -145 q 410 -256 517 -256 q 252 -201 305 -256 q 213 -59 198 -145 l 346 -59 q 357 -123 339 -95 q 427 -151 375 -151 q 507 -122 479 -151 q 542 -59 535 -93 z "},"Ħ":{"ha":1110,"x_min":74,"x_max":1127,"o":"m 1127 822 l 1110 709 l 1026 709 l 908 0 l 725 0 l 796 429 l 328 429 l 257 0 l 74 0 l 192 709 l 110 709 l 128 822 l 211 822 l 242 1010 l 425 1010 l 394 822 l 862 822 l 893 1010 l 1076 1010 l 1045 822 l 1127 822 m 843 709 l 375 709 l 354 582 l 822 582 l 843 709 z "},"Ӈ":{"ha":1033,"x_min":36,"x_max":1039,"o":"m 688 0 l 759 429 l 291 429 l 219 0 l 36 0 l 204 1010 l 387 1010 l 316 582 l 784 582 l 855 1010 l 1039 1010 l 871 0 l 861 -62 q 836 -142 855 -101 q 781 -217 818 -182 q 686 -273 745 -252 q 542 -294 627 -294 q 501 -292 522 -294 q 472 -287 479 -290 l 491 -141 q 517 -144 502 -144 q 541 -145 533 -145 q 633 -124 589 -145 q 681 -48 676 -103 l 688 0 z "},"Ң":{"ha":1146,"x_min":36,"x_max":1060,"o":"m 36 0 l 204 1010 l 387 1010 l 316 582 l 784 582 l 855 1010 l 1039 1010 l 871 0 l 688 0 l 759 429 l 291 429 l 219 0 l 36 0 m 1060 133 l 999 -244 l 824 -244 l 885 133 l 1060 133 z "},"Ӊ":{"ha":1127,"x_min":36,"x_max":1042,"o":"m 36 0 l 204 1010 l 387 1010 l 316 582 l 784 582 l 855 1010 l 1039 1010 l 871 0 l 688 0 l 759 429 l 291 429 l 219 0 l 36 0 m 1042 102 l 1024 -7 q 967 -154 1012 -83 q 864 -279 922 -226 l 762 -240 q 825 -137 795 -188 q 867 -16 856 -85 l 886 102 l 1042 102 z "},"Ҥ":{"ha":1388,"x_min":36,"x_max":1437,"o":"m 1437 1010 l 1412 857 l 1013 857 l 871 0 l 688 0 l 759 429 l 291 429 l 219 0 l 36 0 l 204 1010 l 387 1010 l 316 582 l 784 582 l 855 1010 l 1437 1010 z "},"Ƕ":{"ha":1556,"x_min":36,"x_max":1525,"o":"m 1044 -14 q 799 76 881 -14 q 743 333 716 167 l 759 429 l 291 429 l 219 0 l 36 0 l 204 1010 l 387 1010 l 316 582 l 784 582 l 855 1010 l 1039 1010 l 926 333 q 949 191 910 238 q 1070 144 987 144 q 1205 191 1152 144 q 1273 333 1257 238 l 1342 744 l 1525 744 l 1456 333 q 1317 75 1428 165 q 1044 -14 1205 -14 z "},"Η":{"ha":1033,"x_min":36,"x_max":1039,"o":"m 36 0 l 204 1010 l 387 1010 l 316 582 l 784 582 l 855 1010 l 1039 1010 l 871 0 l 688 0 l 759 429 l 291 429 l 219 0 l 36 0 z "},"Ή":{"ha":1260,"x_min":168,"x_max":1267,"o":"m 264 0 l 432 1010 l 615 1010 l 544 582 l 1012 582 l 1083 1010 l 1267 1010 l 1099 0 l 915 0 l 986 429 l 518 429 l 447 0 l 264 0 m 168 846 l 253 1080 l 420 1080 l 277 846 l 168 846 z "},"Ἠ":{"ha":1266,"x_min":159,"x_max":1271,"o":"m 268 0 l 436 1010 l 619 1010 l 548 582 l 1016 582 l 1087 1010 l 1271 1010 l 1103 0 l 919 0 l 990 429 l 522 429 l 451 0 l 268 0 m 364 1010 l 355 948 q 304 839 344 886 q 207 765 264 792 l 159 820 q 211 877 193 845 q 236 952 229 909 l 244 1010 l 364 1010 z "},"Ἡ":{"ha":1253,"x_min":173,"x_max":1258,"o":"m 256 0 l 424 1010 l 607 1010 l 536 582 l 1004 582 l 1075 1010 l 1258 1010 l 1090 0 l 907 0 l 978 429 l 510 429 l 439 0 l 256 0 m 182 948 l 193 1010 l 313 1010 l 304 952 q 304 879 297 912 q 336 820 310 845 l 269 765 q 197 839 221 792 q 182 948 173 886 z "},"Ἢ":{"ha":1514,"x_min":159,"x_max":1519,"o":"m 517 0 l 685 1010 l 868 1010 l 797 582 l 1265 582 l 1336 1010 l 1519 1010 l 1351 0 l 1168 0 l 1239 429 l 771 429 l 700 0 l 517 0 m 374 1010 l 366 955 q 314 847 356 896 q 207 765 272 798 l 159 807 q 213 874 192 838 q 240 959 233 911 l 248 1010 l 374 1010 m 593 791 l 591 781 l 527 781 l 403 996 l 405 1010 l 550 1010 l 593 791 z "},"Ἣ":{"ha":1467,"x_min":170,"x_max":1472,"o":"m 470 0 l 637 1010 l 820 1010 l 749 582 l 1217 582 l 1288 1010 l 1472 1010 l 1304 0 l 1121 0 l 1192 429 l 724 429 l 653 0 l 470 0 m 180 948 l 190 1010 l 312 1010 l 303 952 q 301 879 295 912 q 335 820 307 845 l 269 765 q 195 839 219 792 q 180 948 170 886 m 552 794 l 550 780 l 485 780 l 362 996 l 364 1010 l 511 1010 l 552 794 z "},"Ἤ":{"ha":1482,"x_min":162,"x_max":1487,"o":"m 485 0 l 653 1010 l 836 1010 l 764 582 l 1233 582 l 1304 1010 l 1487 1010 l 1319 0 l 1136 0 l 1207 429 l 739 429 l 668 0 l 485 0 m 369 1010 l 359 948 q 308 840 349 887 q 209 765 267 792 l 162 820 q 214 879 197 845 q 238 952 231 912 l 248 1010 l 369 1010 m 349 780 l 351 794 l 465 1010 l 610 1010 l 608 996 l 414 780 l 349 780 z "},"Ἥ":{"ha":1503,"x_min":173,"x_max":1508,"o":"m 506 0 l 674 1010 l 857 1010 l 786 582 l 1254 582 l 1325 1010 l 1508 1010 l 1341 0 l 1157 0 l 1228 429 l 760 429 l 689 0 l 506 0 m 269 765 q 198 838 223 792 q 182 948 173 885 l 193 1010 l 314 1010 l 304 952 q 304 877 297 909 q 336 820 311 845 l 269 765 m 364 780 l 366 794 l 477 1010 l 624 1010 l 622 996 l 427 780 l 364 780 z "},"Ἦ":{"ha":1404,"x_min":195,"x_max":1410,"o":"m 407 0 l 575 1010 l 758 1010 l 687 582 l 1155 582 l 1226 1010 l 1410 1010 l 1242 0 l 1058 0 l 1129 429 l 661 429 l 590 0 l 407 0 m 540 1176 l 613 1153 q 566 1068 604 1104 q 478 1031 529 1031 q 420 1043 442 1031 q 377 1066 398 1054 q 327 1078 357 1078 q 290 1060 306 1078 q 268 1018 273 1043 l 195 1040 q 242 1127 204 1089 q 329 1165 280 1165 q 383 1154 360 1165 q 429 1130 406 1142 q 480 1118 452 1118 q 518 1135 501 1118 q 540 1176 536 1152 m 454 996 l 445 945 q 405 857 437 898 q 325 794 372 817 l 276 838 q 319 888 306 860 q 337 945 332 915 l 346 996 l 454 996 z "},"Ἧ":{"ha":1413,"x_min":195,"x_max":1418,"o":"m 416 0 l 584 1010 l 767 1010 l 696 582 l 1164 582 l 1235 1010 l 1418 1010 l 1251 0 l 1067 0 l 1138 429 l 670 429 l 599 0 l 416 0 m 540 1176 l 613 1153 q 566 1068 604 1104 q 478 1031 529 1031 q 420 1043 442 1031 q 377 1066 398 1054 q 327 1078 357 1078 q 290 1060 306 1078 q 268 1018 273 1043 l 195 1040 q 242 1127 204 1089 q 329 1165 280 1165 q 383 1154 360 1165 q 429 1130 406 1142 q 480 1118 452 1118 q 518 1135 501 1118 q 540 1176 536 1152 m 334 945 l 343 996 l 451 996 l 442 945 q 442 888 438 915 q 470 838 446 860 l 403 794 q 346 857 365 817 q 334 945 327 897 z "},"Ὴ":{"ha":1317,"x_min":192,"x_max":1322,"o":"m 320 0 l 487 1010 l 670 1010 l 599 582 l 1067 582 l 1138 1010 l 1322 1010 l 1154 0 l 971 0 l 1042 429 l 574 429 l 503 0 l 320 0 m 316 779 l 192 996 l 192 1010 l 339 1010 l 382 796 l 382 779 l 316 779 z "},"Ή":{"ha":1284,"x_min":196,"x_max":1290,"o":"m 288 0 l 455 1010 l 638 1010 l 567 582 l 1035 582 l 1106 1010 l 1290 1010 l 1122 0 l 939 0 l 1010 429 l 542 429 l 471 0 l 288 0 m 196 852 l 199 869 l 312 1083 l 485 1083 l 483 1069 l 287 852 l 196 852 z "},"Н":{"ha":1033,"x_min":36,"x_max":1039,"o":"m 36 0 l 204 1010 l 387 1010 l 316 582 l 784 582 l 855 1010 l 1039 1010 l 871 0 l 688 0 l 759 429 l 291 429 l 219 0 l 36 0 z "},"ᾘ":{"ha":1228,"x_min":121,"x_max":1233,"o":"m 231 0 l 399 1010 l 581 1010 l 510 582 l 979 582 l 1050 1010 l 1233 1010 l 1065 0 l 882 0 l 953 429 l 485 429 l 414 0 l 231 0 m 658 -335 q 575 -305 606 -335 q 555 -208 545 -275 l 580 -63 l 697 -63 l 674 -207 q 702 -252 665 -252 q 720 -251 712 -252 q 733 -250 728 -250 l 720 -327 q 693 -333 708 -330 q 658 -335 679 -335 m 327 1010 l 317 948 q 267 839 307 886 q 169 765 226 792 l 121 820 q 174 877 156 845 q 198 952 191 909 l 207 1010 l 327 1010 z "},"ᾙ":{"ha":1253,"x_min":173,"x_max":1258,"o":"m 256 0 l 424 1010 l 607 1010 l 536 582 l 1004 582 l 1075 1010 l 1258 1010 l 1090 0 l 907 0 l 978 429 l 510 429 l 439 0 l 256 0 m 684 -335 q 600 -305 631 -335 q 581 -208 570 -275 l 605 -63 l 722 -63 l 699 -207 q 727 -252 690 -252 q 745 -251 737 -252 q 758 -250 753 -250 l 745 -327 q 718 -333 733 -330 q 684 -335 704 -335 m 182 948 l 193 1010 l 313 1010 l 304 952 q 304 879 297 912 q 336 820 310 845 l 269 765 q 197 839 221 792 q 182 948 173 886 z "},"ᾚ":{"ha":1514,"x_min":159,"x_max":1519,"o":"m 517 0 l 685 1010 l 868 1010 l 797 582 l 1265 582 l 1336 1010 l 1519 1010 l 1351 0 l 1168 0 l 1239 429 l 771 429 l 700 0 l 517 0 m 945 -335 q 861 -305 892 -335 q 841 -208 831 -275 l 866 -63 l 983 -63 l 960 -207 q 988 -252 951 -252 q 1006 -251 998 -252 q 1019 -250 1014 -250 l 1006 -327 q 979 -333 994 -330 q 945 -335 965 -335 m 374 1010 l 366 955 q 314 847 356 896 q 207 765 272 798 l 159 807 q 213 874 192 838 q 240 959 233 911 l 248 1010 l 374 1010 m 593 791 l 591 781 l 527 781 l 403 996 l 405 1010 l 550 1010 l 593 791 z "},"ᾛ":{"ha":1467,"x_min":170,"x_max":1472,"o":"m 470 0 l 637 1010 l 820 1010 l 749 582 l 1217 582 l 1288 1010 l 1472 1010 l 1304 0 l 1121 0 l 1192 429 l 724 429 l 653 0 l 470 0 m 897 -335 q 814 -305 845 -335 q 794 -208 783 -275 l 818 -63 l 936 -63 l 912 -207 q 941 -252 904 -252 q 959 -251 950 -252 q 972 -250 967 -250 l 958 -327 q 932 -333 946 -330 q 897 -335 917 -335 m 180 948 l 190 1010 l 312 1010 l 303 952 q 301 879 295 912 q 335 820 307 845 l 269 765 q 195 839 219 792 q 180 948 170 886 m 552 794 l 550 780 l 485 780 l 362 996 l 364 1010 l 511 1010 l 552 794 z "},"ᾜ":{"ha":1482,"x_min":162,"x_max":1487,"o":"m 485 0 l 653 1010 l 836 1010 l 764 582 l 1233 582 l 1304 1010 l 1487 1010 l 1319 0 l 1136 0 l 1207 429 l 739 429 l 668 0 l 485 0 m 912 -335 q 829 -305 860 -335 q 809 -208 799 -275 l 834 -63 l 951 -63 l 928 -207 q 956 -252 919 -252 q 974 -251 966 -252 q 987 -250 982 -250 l 974 -327 q 947 -333 962 -330 q 912 -335 933 -335 m 369 1010 l 359 948 q 308 840 349 887 q 209 765 267 792 l 162 820 q 214 879 197 845 q 238 952 231 912 l 248 1010 l 369 1010 m 349 780 l 351 794 l 465 1010 l 610 1010 l 608 996 l 414 780 l 349 780 z "},"ᾝ":{"ha":1503,"x_min":173,"x_max":1508,"o":"m 506 0 l 674 1010 l 857 1010 l 786 582 l 1254 582 l 1325 1010 l 1508 1010 l 1341 0 l 1157 0 l 1228 429 l 760 429 l 689 0 l 506 0 m 934 -335 q 851 -305 881 -335 q 831 -208 820 -275 l 855 -63 l 972 -63 l 949 -207 q 977 -252 941 -252 q 995 -251 987 -252 q 1008 -250 1003 -250 l 995 -327 q 968 -333 983 -330 q 934 -335 954 -335 m 269 765 q 198 838 223 792 q 182 948 173 885 l 193 1010 l 314 1010 l 304 952 q 304 877 297 909 q 336 820 311 845 l 269 765 m 364 780 l 366 794 l 477 1010 l 624 1010 l 622 996 l 427 780 l 364 780 z "},"ᾞ":{"ha":1404,"x_min":195,"x_max":1410,"o":"m 407 0 l 575 1010 l 758 1010 l 687 582 l 1155 582 l 1226 1010 l 1410 1010 l 1242 0 l 1058 0 l 1129 429 l 661 429 l 590 0 l 407 0 m 835 -335 q 752 -305 783 -335 q 732 -208 721 -275 l 756 -63 l 873 -63 l 850 -207 q 878 -252 842 -252 q 896 -251 888 -252 q 909 -250 905 -250 l 896 -327 q 870 -333 884 -330 q 835 -335 855 -335 m 540 1176 l 613 1153 q 566 1068 604 1104 q 478 1031 529 1031 q 420 1043 442 1031 q 377 1066 398 1054 q 327 1078 357 1078 q 290 1060 306 1078 q 268 1018 273 1043 l 195 1040 q 242 1127 204 1089 q 329 1165 280 1165 q 383 1154 360 1165 q 429 1130 406 1142 q 480 1118 452 1118 q 518 1135 501 1118 q 540 1176 536 1152 m 454 996 l 445 945 q 405 857 437 898 q 325 794 372 817 l 276 838 q 319 888 306 860 q 337 945 332 915 l 346 996 l 454 996 z "},"ᾟ":{"ha":1413,"x_min":195,"x_max":1418,"o":"m 416 0 l 584 1010 l 767 1010 l 696 582 l 1164 582 l 1235 1010 l 1418 1010 l 1251 0 l 1067 0 l 1138 429 l 670 429 l 599 0 l 416 0 m 844 -335 q 761 -305 792 -335 q 741 -208 730 -275 l 765 -63 l 882 -63 l 859 -207 q 887 -252 851 -252 q 905 -251 897 -252 q 918 -250 913 -250 l 905 -327 q 879 -333 893 -330 q 844 -335 864 -335 m 540 1176 l 613 1153 q 566 1068 604 1104 q 478 1031 529 1031 q 420 1043 442 1031 q 377 1066 398 1054 q 327 1078 357 1078 q 290 1060 306 1078 q 268 1018 273 1043 l 195 1040 q 242 1127 204 1089 q 329 1165 280 1165 q 383 1154 360 1165 q 429 1130 406 1142 q 480 1118 452 1118 q 518 1135 501 1118 q 540 1176 536 1152 m 334 945 l 343 996 l 451 996 l 442 945 q 442 888 438 915 q 470 838 446 860 l 403 794 q 346 857 365 817 q 334 945 327 897 z "},"ῌ":{"ha":1033,"x_min":36,"x_max":1039,"o":"m 36 0 l 204 1010 l 387 1010 l 316 582 l 784 582 l 855 1010 l 1039 1010 l 871 0 l 688 0 l 759 429 l 291 429 l 219 0 l 36 0 m 464 -335 q 381 -305 412 -335 q 361 -208 350 -275 l 385 -63 l 503 -63 l 479 -207 q 508 -252 471 -252 q 526 -251 517 -252 q 539 -250 534 -250 l 525 -327 q 499 -333 513 -330 q 464 -335 484 -335 z "},"I":{"ha":382,"x_min":36,"x_max":387,"o":"m 387 1010 l 219 0 l 36 0 l 204 1010 l 387 1010 z "},"Ï":{"ha":382,"x_min":36,"x_max":578,"o":"m 387 1010 l 219 0 l 36 0 l 204 1010 l 387 1010 m 472 1122 q 404 1152 431 1122 q 384 1226 377 1183 q 419 1284 391 1261 q 483 1308 448 1308 q 552 1277 527 1308 q 571 1203 578 1247 q 538 1146 566 1170 q 472 1122 509 1122 m 177 1122 q 108 1153 135 1122 q 88 1226 82 1184 q 123 1284 94 1261 q 187 1308 152 1308 q 256 1277 231 1308 q 275 1203 282 1247 q 242 1146 270 1170 q 177 1122 214 1122 z "},"Ḯ":{"ha":382,"x_min":36,"x_max":601,"o":"m 387 1010 l 219 0 l 36 0 l 204 1010 l 387 1010 m 455 1082 q 388 1111 414 1082 q 369 1182 363 1141 q 403 1238 375 1215 q 465 1260 432 1260 q 533 1231 508 1260 q 551 1160 558 1202 q 519 1105 546 1128 q 455 1082 491 1082 m 167 1082 q 101 1111 126 1082 q 81 1182 75 1141 q 115 1238 86 1215 q 177 1260 144 1260 q 245 1231 220 1260 q 263 1160 270 1202 q 231 1105 258 1128 q 167 1082 203 1082 m 269 1326 l 430 1492 l 601 1492 l 404 1326 l 269 1326 z "},"Ɨ":{"ha":382,"x_min":-32,"x_max":461,"o":"m 387 1010 l 219 0 l 36 0 l 204 1010 l 387 1010 m -32 472 l -12 585 l 461 585 l 441 472 l -32 472 z "},"Ḭ":{"ha":382,"x_min":-141,"x_max":396,"o":"m 387 1010 l 219 0 l 36 0 l 204 1010 l 387 1010 m -34 -264 l -141 -261 q -73 -124 -126 -173 q 46 -74 -19 -74 q 116 -91 90 -74 q 164 -127 142 -109 q 217 -144 186 -144 q 265 -123 245 -144 q 291 -69 286 -102 l 396 -73 q 327 -210 381 -161 q 208 -259 274 -258 q 150 -248 172 -259 q 112 -224 128 -238 q 80 -200 96 -210 q 39 -189 64 -189 q -7 -210 13 -189 q -34 -264 -28 -230 z "},"Ì":{"ha":382,"x_min":36,"x_max":387,"o":"m 387 1010 l 219 0 l 36 0 l 204 1010 l 387 1010 m 247 1110 l 134 1335 l 308 1335 l 381 1110 l 247 1110 z "},"Í":{"ha":382,"x_min":36,"x_max":566,"o":"m 387 1010 l 219 0 l 36 0 l 204 1010 l 387 1010 m 244 1110 l 391 1335 l 566 1335 l 377 1110 l 244 1110 z "},"Î":{"ha":382,"x_min":36,"x_max":568,"o":"m 387 1010 l 219 0 l 36 0 l 204 1010 l 387 1010 m 210 1101 l 54 1101 l 55 1108 l 278 1321 l 417 1321 l 568 1108 l 567 1101 l 410 1101 l 331 1227 l 210 1101 z "},"Ĩ":{"ha":622,"x_min":157,"x_max":716,"o":"m 508 1010 l 340 0 l 157 0 l 325 1010 l 508 1010 m 287 1102 l 180 1105 q 248 1243 194 1193 q 367 1292 301 1292 q 436 1275 410 1292 q 485 1240 463 1257 q 538 1222 507 1222 q 586 1243 566 1222 q 611 1298 606 1265 l 716 1293 q 648 1156 701 1205 q 528 1107 594 1108 q 470 1118 492 1107 q 433 1142 448 1128 q 400 1167 417 1156 q 360 1177 384 1177 q 313 1157 333 1177 q 287 1102 293 1136 z "},"Ī":{"ha":382,"x_min":36,"x_max":575,"o":"m 387 1010 l 219 0 l 36 0 l 204 1010 l 387 1010 m 575 1263 l 557 1154 l 82 1154 l 99 1263 l 575 1263 z "},"Ĭ":{"ha":382,"x_min":36,"x_max":569,"o":"m 387 1010 l 219 0 l 36 0 l 204 1010 l 387 1010 m 436 1271 l 569 1271 q 484 1131 555 1184 q 306 1077 412 1077 q 147 1131 200 1077 q 108 1271 94 1184 l 241 1271 q 253 1207 235 1235 q 323 1179 270 1179 q 402 1207 376 1179 q 436 1271 429 1235 z "},"Į":{"ha":382,"x_min":-61,"x_max":387,"o":"m 387 1010 l 219 0 l 36 0 l 204 1010 l 387 1010 m 77 -287 q -24 -254 13 -287 q -58 -157 -61 -220 q -16 -41 -57 -99 q 107 52 26 17 l 219 0 q 135 -54 171 -26 q 93 -121 99 -83 q 133 -171 83 -171 q 166 -166 151 -171 q 191 -157 181 -161 l 193 -257 q 144 -277 174 -268 q 77 -287 114 -287 z "},"İ":{"ha":382,"x_min":36,"x_max":436,"o":"m 387 1010 l 219 0 l 36 0 l 204 1010 l 387 1010 m 321 1118 q 250 1146 279 1118 q 225 1214 222 1174 q 262 1283 229 1255 q 337 1311 294 1311 q 408 1283 380 1311 q 432 1214 436 1255 q 396 1146 429 1174 q 321 1118 363 1118 z "},"Ǐ":{"ha":382,"x_min":36,"x_max":603,"o":"m 387 1010 l 219 0 l 36 0 l 204 1010 l 387 1010 m 246 1321 l 326 1195 l 446 1321 l 603 1321 l 602 1314 l 380 1101 l 241 1101 l 89 1314 l 90 1321 l 246 1321 z "},"Ȉ":{"ha":382,"x_min":36,"x_max":493,"o":"m 387 1010 l 219 0 l 36 0 l 204 1010 l 387 1010 m 437 1110 l 317 1247 l 383 1335 l 493 1198 l 437 1110 m 206 1110 l 59 1247 l 102 1335 l 245 1198 l 206 1110 z "},"Ȋ":{"ha":382,"x_min":36,"x_max":561,"o":"m 387 1010 l 219 0 l 36 0 l 204 1010 l 387 1010 m 85 1133 q 170 1275 100 1220 q 348 1331 241 1331 q 508 1275 454 1331 q 547 1133 561 1220 l 413 1133 q 401 1197 419 1169 q 331 1225 383 1225 q 251 1197 278 1225 q 219 1133 224 1168 l 85 1133 z "},"Ỉ":{"ha":382,"x_min":36,"x_max":520,"o":"m 387 1010 l 219 0 l 36 0 l 204 1010 l 387 1010 m 382 1117 l 246 1117 l 254 1211 q 330 1225 306 1214 q 357 1257 354 1236 q 334 1294 362 1284 q 263 1305 306 1305 l 284 1393 q 463 1358 405 1393 q 510 1261 520 1322 q 466 1191 502 1214 q 389 1162 430 1168 l 382 1117 z "},"Ị":{"ha":382,"x_min":-6,"x_max":387,"o":"m 387 1010 l 219 0 l 36 0 l 204 1010 l 387 1010 m 93 -271 q 22 -243 51 -271 q -2 -175 -6 -215 q 34 -106 1 -134 q 109 -77 67 -77 q 180 -106 152 -77 q 204 -175 208 -134 q 168 -243 201 -215 q 93 -271 136 -271 z "},"Ι":{"ha":382,"x_min":36,"x_max":387,"o":"m 387 1010 l 219 0 l 36 0 l 204 1010 l 387 1010 z "},"Ί":{"ha":499,"x_min":83,"x_max":504,"o":"m 504 1010 l 336 0 l 153 0 l 321 1010 l 504 1010 m 83 846 l 168 1080 l 335 1080 l 192 846 l 83 846 z "},"Ϊ":{"ha":382,"x_min":36,"x_max":578,"o":"m 387 1010 l 219 0 l 36 0 l 204 1010 l 387 1010 m 472 1122 q 404 1152 431 1122 q 384 1226 377 1183 q 419 1284 391 1261 q 483 1308 448 1308 q 552 1277 527 1308 q 571 1203 578 1247 q 538 1146 566 1170 q 472 1122 509 1122 m 177 1122 q 108 1153 135 1122 q 88 1226 82 1184 q 123 1284 94 1261 q 187 1308 152 1308 q 256 1277 231 1308 q 275 1203 282 1247 q 242 1146 270 1170 q 177 1122 214 1122 z "},"Ἰ":{"ha":585,"x_min":159,"x_max":593,"o":"m 593 1010 l 426 0 l 243 0 l 410 1010 l 593 1010 m 364 1010 l 355 948 q 304 839 344 886 q 207 765 264 792 l 159 820 q 211 877 193 845 q 236 952 229 909 l 244 1010 l 364 1010 z "},"Ἱ":{"ha":573,"x_min":173,"x_max":581,"o":"m 581 1010 l 413 0 l 230 0 l 398 1010 l 581 1010 m 182 948 l 193 1010 l 313 1010 l 304 952 q 304 879 297 912 q 336 820 310 845 l 269 765 q 197 839 221 792 q 182 948 173 886 z "},"Ἲ":{"ha":834,"x_min":159,"x_max":841,"o":"m 841 1010 l 674 0 l 491 0 l 658 1010 l 841 1010 m 374 1010 l 366 955 q 314 847 356 896 q 207 765 272 798 l 159 807 q 213 874 192 838 q 240 959 233 911 l 248 1010 l 374 1010 m 593 791 l 591 781 l 527 781 l 403 996 l 405 1010 l 550 1010 l 593 791 z "},"Ἳ":{"ha":787,"x_min":170,"x_max":795,"o":"m 795 1010 l 627 0 l 444 0 l 612 1010 l 795 1010 m 180 948 l 190 1010 l 312 1010 l 303 952 q 301 879 295 912 q 335 820 307 845 l 269 765 q 195 839 219 792 q 180 948 170 886 m 552 794 l 550 780 l 485 780 l 362 996 l 364 1010 l 511 1010 l 552 794 z "},"Ἴ":{"ha":802,"x_min":162,"x_max":809,"o":"m 809 1010 l 642 0 l 459 0 l 626 1010 l 809 1010 m 369 1010 l 359 948 q 308 840 349 887 q 209 765 267 792 l 162 820 q 214 879 197 845 q 238 952 231 912 l 248 1010 l 369 1010 m 349 780 l 351 794 l 465 1010 l 610 1010 l 608 996 l 414 780 l 349 780 z "},"Ἵ":{"ha":823,"x_min":173,"x_max":831,"o":"m 831 1010 l 663 0 l 480 0 l 648 1010 l 831 1010 m 269 765 q 198 838 223 792 q 182 948 173 885 l 193 1010 l 314 1010 l 304 952 q 304 877 297 909 q 336 820 311 845 l 269 765 m 364 780 l 366 794 l 477 1010 l 624 1010 l 622 996 l 427 780 l 364 780 z "},"Ἶ":{"ha":725,"x_min":195,"x_max":732,"o":"m 732 1010 l 564 0 l 381 0 l 549 1010 l 732 1010 m 540 1176 l 613 1153 q 566 1068 604 1104 q 478 1031 529 1031 q 420 1043 442 1031 q 377 1066 398 1054 q 327 1078 357 1078 q 290 1060 306 1078 q 268 1018 273 1043 l 195 1040 q 242 1127 204 1089 q 329 1165 280 1165 q 383 1154 360 1165 q 429 1130 406 1142 q 480 1118 452 1118 q 518 1135 501 1118 q 540 1176 536 1152 m 454 996 l 445 945 q 405 857 437 898 q 325 794 372 817 l 276 838 q 319 888 306 860 q 337 945 332 915 l 346 996 l 454 996 z "},"Ἷ":{"ha":733,"x_min":195,"x_max":741,"o":"m 741 1010 l 573 0 l 390 0 l 558 1010 l 741 1010 m 540 1176 l 613 1153 q 566 1068 604 1104 q 478 1031 529 1031 q 420 1043 442 1031 q 377 1066 398 1054 q 327 1078 357 1078 q 290 1060 306 1078 q 268 1018 273 1043 l 195 1040 q 242 1127 204 1089 q 329 1165 280 1165 q 383 1154 360 1165 q 429 1130 406 1142 q 480 1118 452 1118 q 518 1135 501 1118 q 540 1176 536 1152 m 334 945 l 343 996 l 451 996 l 442 945 q 442 888 438 915 q 470 838 446 860 l 403 794 q 346 857 365 817 q 334 945 327 897 z "},"Ῐ":{"ha":382,"x_min":36,"x_max":569,"o":"m 387 1010 l 219 0 l 36 0 l 204 1010 l 387 1010 m 436 1271 l 569 1271 q 484 1131 555 1184 q 306 1077 412 1077 q 147 1131 200 1077 q 108 1271 94 1184 l 241 1271 q 253 1207 235 1235 q 323 1179 270 1179 q 402 1207 376 1179 q 436 1271 429 1235 z "},"Ῑ":{"ha":382,"x_min":36,"x_max":575,"o":"m 387 1010 l 219 0 l 36 0 l 204 1010 l 387 1010 m 575 1263 l 557 1154 l 82 1154 l 99 1263 l 575 1263 z "},"Ὶ":{"ha":637,"x_min":192,"x_max":645,"o":"m 645 1010 l 477 0 l 294 0 l 462 1010 l 645 1010 m 316 779 l 192 996 l 192 1010 l 339 1010 l 382 796 l 382 779 l 316 779 z "},"Ί":{"ha":605,"x_min":196,"x_max":612,"o":"m 612 1010 l 444 0 l 261 0 l 429 1010 l 612 1010 m 196 852 l 199 869 l 312 1083 l 485 1083 l 483 1069 l 287 852 l 196 852 z "},"І":{"ha":382,"x_min":36,"x_max":387,"o":"m 387 1010 l 219 0 l 36 0 l 204 1010 l 387 1010 z "},"Ї":{"ha":382,"x_min":36,"x_max":578,"o":"m 387 1010 l 219 0 l 36 0 l 204 1010 l 387 1010 m 472 1122 q 404 1152 431 1122 q 384 1226 377 1183 q 419 1284 391 1261 q 483 1308 448 1308 q 552 1277 527 1308 q 571 1203 578 1247 q 538 1146 566 1170 q 472 1122 509 1122 m 177 1122 q 108 1153 135 1122 q 88 1226 82 1184 q 123 1284 94 1261 q 187 1308 152 1308 q 256 1277 231 1308 q 275 1203 282 1247 q 242 1146 270 1170 q 177 1122 214 1122 z "},"":{"ha":650,"x_min":-8,"x_max":699,"o":"m 134 857 l 160 1010 l 699 1010 l 673 857 l 495 857 l 379 153 l 557 153 l 531 0 l -8 0 l 18 153 l 196 153 l 312 857 l 134 857 z "},"":{"ha":650,"x_min":-8,"x_max":712,"o":"m 134 857 l 160 1010 l 699 1010 l 673 857 l 495 857 l 379 153 l 557 153 l 531 0 l -8 0 l 18 153 l 196 153 l 312 857 l 134 857 m 606 1122 q 538 1152 564 1122 q 518 1226 511 1183 q 553 1284 524 1261 q 617 1308 582 1308 q 686 1277 660 1308 q 705 1203 712 1247 q 672 1146 700 1170 q 606 1122 643 1122 m 310 1122 q 242 1153 268 1122 q 222 1226 216 1184 q 257 1284 227 1261 q 321 1308 286 1308 q 390 1277 364 1308 q 409 1203 416 1247 q 376 1146 404 1170 q 310 1122 347 1122 z "},"":{"ha":650,"x_min":-8,"x_max":735,"o":"m 134 857 l 160 1010 l 699 1010 l 673 857 l 495 857 l 379 153 l 557 153 l 531 0 l -8 0 l 18 153 l 196 153 l 312 857 l 134 857 m 589 1082 q 523 1111 548 1082 q 504 1182 497 1141 q 538 1238 509 1215 q 599 1260 566 1260 q 667 1231 642 1260 q 686 1160 692 1202 q 653 1105 680 1128 q 589 1082 625 1082 m 301 1082 q 235 1111 260 1082 q 215 1182 209 1141 q 249 1238 220 1215 q 311 1260 278 1260 q 379 1231 354 1260 q 397 1160 404 1202 q 365 1105 392 1128 q 301 1082 337 1082 m 403 1326 l 564 1492 l 735 1492 l 539 1326 l 403 1326 z "},"":{"ha":650,"x_min":-8,"x_max":699,"o":"m 134 857 l 160 1010 l 699 1010 l 673 857 l 495 857 l 379 153 l 557 153 l 531 0 l -8 0 l 18 153 l 196 153 l 312 857 l 134 857 m 103 472 l 122 585 l 595 585 l 576 472 l 103 472 z "},"":{"ha":650,"x_min":-8,"x_max":699,"o":"m 134 857 l 160 1010 l 699 1010 l 673 857 l 495 857 l 379 153 l 557 153 l 531 0 l -8 0 l 18 153 l 196 153 l 312 857 l 134 857 m 100 -264 l -7 -261 q 61 -124 7 -173 q 180 -74 114 -74 q 250 -91 223 -74 q 298 -127 276 -109 q 351 -144 320 -144 q 399 -123 379 -144 q 424 -69 419 -102 l 529 -73 q 461 -210 514 -161 q 341 -259 407 -258 q 283 -248 305 -259 q 246 -224 261 -238 q 214 -200 230 -210 q 173 -189 197 -189 q 126 -210 146 -189 q 100 -264 106 -230 z "},"":{"ha":650,"x_min":-8,"x_max":699,"o":"m 134 857 l 160 1010 l 699 1010 l 673 857 l 495 857 l 379 153 l 557 153 l 531 0 l -8 0 l 18 153 l 196 153 l 312 857 l 134 857 m 381 1110 l 267 1335 l 442 1335 l 514 1110 l 381 1110 z "},"":{"ha":650,"x_min":-8,"x_max":699,"o":"m 134 857 l 160 1010 l 699 1010 l 673 857 l 495 857 l 379 153 l 557 153 l 531 0 l -8 0 l 18 153 l 196 153 l 312 857 l 134 857 m 377 1110 l 525 1335 l 699 1335 l 510 1110 l 377 1110 z "},"":{"ha":650,"x_min":-8,"x_max":702,"o":"m 134 857 l 160 1010 l 699 1010 l 673 857 l 495 857 l 379 153 l 557 153 l 531 0 l -8 0 l 18 153 l 196 153 l 312 857 l 134 857 m 344 1101 l 188 1101 l 189 1108 l 412 1321 l 551 1321 l 702 1108 l 701 1101 l 545 1101 l 466 1227 l 344 1101 z "},"":{"ha":650,"x_min":-8,"x_max":729,"o":"m 134 857 l 160 1010 l 699 1010 l 673 857 l 495 857 l 379 153 l 557 153 l 531 0 l -8 0 l 18 153 l 196 153 l 312 857 l 134 857 m 300 1102 l 193 1105 q 261 1243 208 1193 q 380 1292 315 1292 q 450 1275 424 1292 q 498 1240 476 1257 q 551 1222 520 1222 q 599 1243 579 1222 q 624 1298 619 1265 l 729 1293 q 661 1156 715 1205 q 542 1107 608 1108 q 484 1118 506 1107 q 446 1142 462 1128 q 414 1167 430 1156 q 373 1177 398 1177 q 327 1157 347 1177 q 300 1102 306 1136 z "},"":{"ha":650,"x_min":-8,"x_max":708,"o":"m 134 857 l 160 1010 l 699 1010 l 673 857 l 495 857 l 379 153 l 557 153 l 531 0 l -8 0 l 18 153 l 196 153 l 312 857 l 134 857 m 708 1263 l 690 1154 l 216 1154 l 233 1263 l 708 1263 z "},"":{"ha":650,"x_min":-8,"x_max":703,"o":"m 134 857 l 160 1010 l 699 1010 l 673 857 l 495 857 l 379 153 l 557 153 l 531 0 l -8 0 l 18 153 l 196 153 l 312 857 l 134 857 m 570 1271 l 703 1271 q 618 1131 689 1184 q 440 1077 546 1077 q 281 1131 334 1077 q 242 1271 228 1184 l 375 1271 q 387 1207 369 1235 q 457 1179 404 1179 q 537 1207 510 1179 q 570 1271 563 1235 z "},"":{"ha":650,"x_min":-8,"x_max":699,"o":"m 134 857 l 160 1010 l 699 1010 l 673 857 l 495 857 l 379 153 l 557 153 l 531 0 l -8 0 l 18 153 l 196 153 l 312 857 l 134 857 m 389 -287 q 288 -254 325 -287 q 254 -157 251 -220 q 296 -41 255 -99 q 419 52 337 17 l 531 0 q 446 -54 482 -26 q 404 -121 410 -83 q 444 -171 395 -171 q 478 -166 463 -171 q 503 -157 492 -161 l 505 -257 q 455 -277 485 -268 q 389 -287 426 -287 z "},"":{"ha":650,"x_min":-8,"x_max":699,"o":"m 134 857 l 160 1010 l 699 1010 l 673 857 l 495 857 l 379 153 l 557 153 l 531 0 l -8 0 l 18 153 l 196 153 l 312 857 l 134 857 m 455 1118 q 384 1146 412 1118 q 359 1214 356 1174 q 396 1283 363 1255 q 471 1311 428 1311 q 541 1283 513 1311 q 566 1214 569 1255 q 530 1146 563 1174 q 455 1118 497 1118 z "},"":{"ha":650,"x_min":-8,"x_max":737,"o":"m 134 857 l 160 1010 l 699 1010 l 673 857 l 495 857 l 379 153 l 557 153 l 531 0 l -8 0 l 18 153 l 196 153 l 312 857 l 134 857 m 380 1321 l 460 1195 l 581 1321 l 737 1321 l 736 1314 l 514 1101 l 375 1101 l 223 1314 l 224 1321 l 380 1321 z "},"":{"ha":650,"x_min":-8,"x_max":699,"o":"m 134 857 l 160 1010 l 699 1010 l 673 857 l 495 857 l 379 153 l 557 153 l 531 0 l -8 0 l 18 153 l 196 153 l 312 857 l 134 857 m 571 1110 l 451 1247 l 516 1335 l 626 1198 l 571 1110 m 340 1110 l 193 1247 l 236 1335 l 379 1198 l 340 1110 z "},"":{"ha":650,"x_min":-8,"x_max":699,"o":"m 134 857 l 160 1010 l 699 1010 l 673 857 l 495 857 l 379 153 l 557 153 l 531 0 l -8 0 l 18 153 l 196 153 l 312 857 l 134 857 m 219 1133 q 304 1275 233 1220 q 482 1331 375 1331 q 641 1275 588 1331 q 681 1133 695 1220 l 547 1133 q 535 1197 552 1169 q 465 1225 517 1225 q 384 1197 411 1225 q 353 1133 358 1168 l 219 1133 z "},"":{"ha":650,"x_min":-8,"x_max":699,"o":"m 134 857 l 160 1010 l 699 1010 l 673 857 l 495 857 l 379 153 l 557 153 l 531 0 l -8 0 l 18 153 l 196 153 l 312 857 l 134 857 m 516 1117 l 380 1117 l 388 1211 q 464 1225 440 1214 q 491 1257 488 1236 q 468 1294 496 1284 q 398 1305 440 1305 l 418 1393 q 597 1358 540 1393 q 644 1261 654 1322 q 600 1191 636 1214 q 523 1162 564 1168 l 516 1117 z "},"":{"ha":650,"x_min":-8,"x_max":699,"o":"m 134 857 l 160 1010 l 699 1010 l 673 857 l 495 857 l 379 153 l 557 153 l 531 0 l -8 0 l 18 153 l 196 153 l 312 857 l 134 857 m 227 -271 q 157 -243 185 -271 q 132 -175 128 -215 q 168 -106 136 -134 q 244 -77 201 -77 q 314 -106 286 -77 q 338 -175 342 -134 q 303 -243 335 -215 q 227 -271 270 -271 z "},"":{"ha":869,"x_min":128,"x_max":918,"o":"m 354 857 l 379 1010 l 918 1010 l 893 857 l 715 857 l 598 153 l 776 153 l 751 0 l 212 0 l 237 153 l 415 153 l 532 857 l 354 857 m 333 1010 l 324 948 q 273 839 314 886 q 176 765 233 792 l 128 820 q 181 877 163 845 q 205 952 198 909 l 214 1010 l 333 1010 z "},"":{"ha":854,"x_min":140,"x_max":903,"o":"m 338 857 l 364 1010 l 903 1010 l 877 857 l 699 857 l 583 153 l 761 153 l 735 0 l 196 0 l 222 153 l 400 153 l 516 857 l 338 857 m 149 948 l 160 1010 l 280 1010 l 271 952 q 271 879 264 912 q 303 820 277 845 l 236 765 q 164 839 188 792 q 149 948 140 886 z "},"":{"ha":1116,"x_min":127,"x_max":1165,"o":"m 600 857 l 626 1010 l 1165 1010 l 1139 857 l 961 857 l 845 153 l 1023 153 l 997 0 l 458 0 l 484 153 l 662 153 l 778 857 l 600 857 m 342 1010 l 334 955 q 282 847 324 896 q 175 765 240 798 l 127 807 q 181 874 160 838 q 208 959 201 911 l 216 1010 l 342 1010 m 561 791 l 559 781 l 495 781 l 371 996 l 373 1010 l 518 1010 l 561 791 z "},"":{"ha":1070,"x_min":140,"x_max":1120,"o":"m 555 857 l 581 1010 l 1120 1010 l 1094 857 l 916 857 l 799 153 l 978 153 l 952 0 l 413 0 l 438 153 l 617 153 l 733 857 l 555 857 m 149 948 l 160 1010 l 282 1010 l 272 952 q 271 879 265 912 q 305 820 277 845 l 238 765 q 164 839 189 792 q 149 948 140 886 m 521 794 l 519 780 l 455 780 l 331 996 l 333 1010 l 480 1010 l 521 794 z "},"":{"ha":1081,"x_min":128,"x_max":1130,"o":"m 566 857 l 591 1010 l 1130 1010 l 1105 857 l 927 857 l 810 153 l 988 153 l 963 0 l 424 0 l 449 153 l 627 153 l 744 857 l 566 857 m 335 1010 l 324 948 q 273 840 315 887 q 174 765 232 792 l 128 820 q 179 879 162 845 q 204 952 196 912 l 214 1010 l 335 1010 m 314 780 l 316 794 l 431 1010 l 576 1010 l 574 996 l 379 780 l 314 780 z "},"":{"ha":1104,"x_min":140,"x_max":1154,"o":"m 589 857 l 615 1010 l 1154 1010 l 1128 857 l 950 857 l 834 153 l 1012 153 l 986 0 l 447 0 l 472 153 l 651 153 l 767 857 l 589 857 m 236 765 q 165 838 190 792 q 149 948 140 885 l 160 1010 l 281 1010 l 271 952 q 271 877 264 909 q 303 820 278 845 l 236 765 m 331 780 l 333 794 l 444 1010 l 591 1010 l 589 996 l 394 780 l 331 780 z "},"":{"ha":1007,"x_min":164,"x_max":1056,"o":"m 492 857 l 517 1010 l 1056 1010 l 1031 857 l 853 857 l 736 153 l 914 153 l 889 0 l 350 0 l 375 153 l 553 153 l 670 857 l 492 857 m 508 1176 l 581 1153 q 535 1068 572 1104 q 447 1031 497 1031 q 388 1043 410 1031 q 346 1066 366 1054 q 295 1078 326 1078 q 258 1060 274 1078 q 237 1018 242 1043 l 164 1040 q 210 1127 172 1089 q 298 1165 248 1165 q 352 1154 328 1165 q 398 1130 375 1142 q 448 1118 420 1118 q 487 1135 469 1118 q 508 1176 505 1152 m 422 996 l 414 945 q 373 857 406 898 q 293 794 340 817 l 244 838 q 288 888 274 860 q 306 945 301 915 l 314 996 l 422 996 z "},"":{"ha":1017,"x_min":164,"x_max":1066,"o":"m 501 857 l 527 1010 l 1066 1010 l 1040 857 l 862 857 l 746 153 l 924 153 l 898 0 l 359 0 l 385 153 l 563 153 l 679 857 l 501 857 m 509 1176 l 581 1153 q 535 1068 573 1104 q 447 1031 498 1031 q 389 1043 411 1031 q 346 1066 366 1054 q 296 1078 326 1078 q 258 1060 275 1078 q 237 1018 242 1043 l 164 1040 q 211 1127 173 1089 q 298 1165 249 1165 q 352 1154 329 1165 q 398 1130 375 1142 q 449 1118 421 1118 q 487 1135 470 1118 q 509 1176 505 1152 m 303 945 l 312 996 l 420 996 l 411 945 q 411 888 407 915 q 438 838 415 860 l 372 794 q 315 857 334 817 q 303 945 296 897 z "},"":{"ha":650,"x_min":-8,"x_max":703,"o":"m 134 857 l 160 1010 l 699 1010 l 673 857 l 495 857 l 379 153 l 557 153 l 531 0 l -8 0 l 18 153 l 196 153 l 312 857 l 134 857 m 570 1271 l 703 1271 q 618 1131 689 1184 q 440 1077 546 1077 q 281 1131 334 1077 q 242 1271 228 1184 l 375 1271 q 387 1207 369 1235 q 457 1179 404 1179 q 537 1207 510 1179 q 570 1271 563 1235 z "},"":{"ha":650,"x_min":-8,"x_max":708,"o":"m 134 857 l 160 1010 l 699 1010 l 673 857 l 495 857 l 379 153 l 557 153 l 531 0 l -8 0 l 18 153 l 196 153 l 312 857 l 134 857 m 708 1263 l 690 1154 l 216 1154 l 233 1263 l 708 1263 z "},"":{"ha":918,"x_min":160,"x_max":968,"o":"m 403 857 l 429 1010 l 968 1010 l 943 857 l 764 857 l 648 153 l 826 153 l 800 0 l 261 0 l 287 153 l 465 153 l 581 857 l 403 857 m 283 779 l 160 996 l 160 1010 l 307 1010 l 349 796 l 349 779 l 283 779 z "},"":{"ha":884,"x_min":162,"x_max":934,"o":"m 369 857 l 395 1010 l 934 1010 l 908 857 l 730 857 l 614 153 l 792 153 l 766 0 l 227 0 l 253 153 l 431 153 l 547 857 l 369 857 m 162 852 l 165 869 l 278 1083 l 451 1083 l 449 1069 l 253 852 l 162 852 z "},"":{"ha":650,"x_min":-8,"x_max":699,"o":"m 134 857 l 160 1010 l 699 1010 l 673 857 l 495 857 l 379 153 l 557 153 l 531 0 l -8 0 l 18 153 l 196 153 l 312 857 l 134 857 z "},"":{"ha":650,"x_min":-8,"x_max":712,"o":"m 134 857 l 160 1010 l 699 1010 l 673 857 l 495 857 l 379 153 l 557 153 l 531 0 l -8 0 l 18 153 l 196 153 l 312 857 l 134 857 m 607 1122 q 538 1152 565 1122 q 518 1226 511 1183 q 554 1284 525 1261 q 617 1308 582 1308 q 687 1277 661 1308 q 705 1203 712 1247 q 672 1146 700 1170 q 607 1122 644 1122 m 311 1122 q 242 1153 269 1122 q 222 1226 216 1184 q 257 1284 228 1261 q 321 1308 287 1308 q 391 1277 365 1308 q 409 1203 416 1247 q 376 1146 404 1170 q 311 1122 348 1122 z "},"J":{"ha":779,"x_min":7,"x_max":784,"o":"m 603 1010 l 784 1010 l 666 297 q 541 69 642 151 q 293 -14 440 -14 q 137 18 204 -14 q 39 113 71 50 q 23 268 7 176 l 202 268 q 224 171 194 205 q 316 137 255 137 q 427 180 383 137 q 486 302 472 222 l 603 1010 z "},"Ĵ":{"ha":779,"x_min":7,"x_max":966,"o":"m 603 1010 l 784 1010 l 666 297 q 541 69 642 151 q 293 -14 440 -14 q 137 18 204 -14 q 39 113 71 50 q 23 268 7 176 l 202 268 q 224 171 194 205 q 316 137 255 137 q 427 180 383 137 q 486 302 472 222 l 603 1010 m 608 1101 l 452 1101 l 453 1108 l 676 1321 l 816 1321 l 966 1108 l 965 1101 l 809 1101 l 730 1227 l 608 1101 z "},"Ɉ":{"ha":779,"x_min":7,"x_max":872,"o":"m 603 1010 l 784 1010 l 666 297 q 541 69 642 151 q 293 -14 440 -14 q 137 18 204 -14 q 39 113 71 50 q 23 268 7 176 l 202 268 q 224 171 194 205 q 316 137 255 137 q 427 180 383 137 q 486 302 472 222 l 603 1010 m 379 546 l 399 659 l 872 659 l 852 546 l 379 546 z "},"Ϳ":{"ha":779,"x_min":7,"x_max":784,"o":"m 603 1010 l 784 1010 l 666 297 q 541 69 642 151 q 293 -14 440 -14 q 137 18 204 -14 q 39 113 71 50 q 23 268 7 176 l 202 268 q 224 171 194 205 q 316 137 255 137 q 427 180 383 137 q 486 302 472 222 l 603 1010 z "},"Ј":{"ha":779,"x_min":7,"x_max":784,"o":"m 603 1010 l 784 1010 l 666 297 q 541 69 642 151 q 293 -14 440 -14 q 137 18 204 -14 q 39 113 71 50 q 23 268 7 176 l 202 268 q 224 171 194 205 q 316 137 255 137 q 427 180 383 137 q 486 302 472 222 l 603 1010 z "},"K":{"ha":940,"x_min":36,"x_max":1017,"o":"m 36 0 l 204 1010 l 387 1010 l 311 546 l 323 546 l 794 1010 l 1017 1010 l 552 557 l 853 0 l 633 0 l 405 433 l 270 300 l 219 0 l 36 0 z "},"Ķ":{"ha":940,"x_min":36,"x_max":1017,"o":"m 36 0 l 204 1010 l 387 1010 l 311 546 l 323 546 l 794 1010 l 1017 1010 l 552 557 l 853 0 l 633 0 l 405 433 l 270 300 l 219 0 l 36 0 m 217 -327 l 317 -79 l 487 -79 l 345 -327 l 217 -327 z "},"Ǩ":{"ha":940,"x_min":36,"x_max":1017,"o":"m 36 0 l 204 1010 l 387 1010 l 311 546 l 323 546 l 794 1010 l 1017 1010 l 552 557 l 853 0 l 633 0 l 405 433 l 270 300 l 219 0 l 36 0 m 524 1321 l 604 1195 l 725 1321 l 881 1321 l 880 1314 l 659 1101 l 519 1101 l 367 1314 l 368 1321 l 524 1321 z "},"Ḱ":{"ha":940,"x_min":36,"x_max":1017,"o":"m 36 0 l 204 1010 l 387 1010 l 311 546 l 323 546 l 794 1010 l 1017 1010 l 552 557 l 853 0 l 633 0 l 405 433 l 270 300 l 219 0 l 36 0 m 522 1110 l 670 1335 l 844 1335 l 655 1110 l 522 1110 z "},"Ḳ":{"ha":940,"x_min":36,"x_max":1017,"o":"m 36 0 l 204 1010 l 387 1010 l 311 546 l 323 546 l 794 1010 l 1017 1010 l 552 557 l 853 0 l 633 0 l 405 433 l 270 300 l 219 0 l 36 0 m 378 -270 q 307 -242 335 -270 q 282 -174 279 -214 q 319 -105 286 -133 q 394 -76 351 -76 q 464 -105 436 -76 q 489 -174 492 -133 q 453 -242 486 -214 q 378 -270 420 -270 z "},"Ḵ":{"ha":940,"x_min":36,"x_max":1017,"o":"m 36 0 l 204 1010 l 387 1010 l 311 546 l 323 546 l 794 1010 l 1017 1010 l 552 557 l 853 0 l 633 0 l 405 433 l 270 300 l 219 0 l 36 0 m 631 -124 l 613 -233 l 138 -233 l 155 -124 l 631 -124 z "},"Ҡ":{"ha":1131,"x_min":100,"x_max":1172,"o":"m 797 0 l 538 441 l 448 441 l 374 0 l 191 0 l 335 863 l 100 863 l 123 1010 l 542 1010 l 473 595 l 519 595 l 947 1010 l 1172 1010 l 698 549 l 1022 0 l 797 0 z "},"Қ":{"ha":1004,"x_min":36,"x_max":1017,"o":"m 642 0 l 383 441 l 293 441 l 219 0 l 36 0 l 204 1010 l 387 1010 l 318 595 l 364 595 l 792 1010 l 1017 1010 l 543 549 l 867 0 l 642 0 m 912 138 l 851 -239 l 676 -239 l 737 138 l 912 138 z "},"Ƙ":{"ha":986,"x_min":36,"x_max":1076,"o":"m 36 0 l 204 1010 l 387 1010 l 311 553 l 324 553 l 742 934 q 913 1020 826 1010 q 1076 980 1001 1031 l 991 849 q 924 861 957 870 q 850 816 891 852 l 550 547 l 879 0 l 659 0 l 413 418 l 267 283 l 219 0 l 36 0 z "},"Κ":{"ha":940,"x_min":36,"x_max":1017,"o":"m 36 0 l 204 1010 l 387 1010 l 311 546 l 323 546 l 794 1010 l 1017 1010 l 552 557 l 853 0 l 633 0 l 405 433 l 270 300 l 219 0 l 36 0 z "},"L":{"ha":786,"x_min":36,"x_max":690,"o":"m 36 0 l 204 1010 l 387 1010 l 245 153 l 690 153 l 664 0 l 36 0 z "},"Ĺ":{"ha":786,"x_min":36,"x_max":690,"o":"m 36 0 l 204 1010 l 387 1010 l 245 153 l 690 153 l 664 0 l 36 0 m 244 1110 l 392 1335 l 566 1335 l 377 1110 l 244 1110 z "},"Ļ":{"ha":786,"x_min":36,"x_max":690,"o":"m 36 0 l 204 1010 l 387 1010 l 245 153 l 690 153 l 664 0 l 36 0 m 144 -327 l 245 -80 l 414 -80 l 273 -327 l 144 -327 z "},"Ľ":{"ha":786,"x_min":36,"x_max":698,"o":"m 36 0 l 204 1010 l 387 1010 l 245 153 l 690 153 l 664 0 l 36 0 m 510 802 l 553 1060 l 698 1060 l 620 802 l 510 802 z "},"Ḷ":{"ha":786,"x_min":36,"x_max":690,"o":"m 36 0 l 204 1010 l 387 1010 l 245 153 l 690 153 l 664 0 l 36 0 m 305 -271 q 235 -243 263 -271 q 210 -175 206 -215 q 246 -106 214 -134 q 322 -77 279 -77 q 392 -106 364 -77 q 416 -175 420 -134 q 381 -243 413 -215 q 305 -271 348 -271 z "},"Ḹ":{"ha":786,"x_min":36,"x_max":690,"o":"m 36 0 l 204 1010 l 387 1010 l 245 153 l 690 153 l 664 0 l 36 0 m 305 -271 q 235 -243 263 -271 q 210 -175 206 -215 q 246 -106 214 -134 q 322 -77 279 -77 q 392 -106 364 -77 q 416 -175 420 -134 q 381 -243 413 -215 q 305 -271 348 -271 m 576 1263 l 558 1154 l 83 1154 l 100 1263 l 576 1263 z "},"Ḻ":{"ha":786,"x_min":36,"x_max":690,"o":"m 36 0 l 204 1010 l 387 1010 l 245 153 l 690 153 l 664 0 l 36 0 m 558 -125 l 541 -234 l 66 -234 l 83 -125 l 558 -125 z "},"Ḽ":{"ha":786,"x_min":36,"x_max":690,"o":"m 36 0 l 204 1010 l 387 1010 l 245 153 l 690 153 l 664 0 l 36 0 m 203 -283 l 47 -283 l 48 -276 l 271 -63 l 410 -63 l 561 -276 l 560 -283 l 403 -283 l 325 -157 l 203 -283 z "},"Ł":{"ha":802,"x_min":25,"x_max":719,"o":"m 480 646 l 472 538 l 331 498 l 274 153 l 719 153 l 693 0 l 65 0 l 139 443 l 25 411 l 34 518 l 157 553 l 233 1010 l 416 1010 l 349 608 l 480 646 z "},"Ƚ":{"ha":786,"x_min":-32,"x_max":690,"o":"m 36 0 l 204 1010 l 387 1010 l 245 153 l 690 153 l 664 0 l 36 0 m -32 472 l -12 585 l 461 585 l 441 472 l -32 472 z "},"ǈ":{"ha":1148,"x_min":36,"x_max":1168,"o":"m 36 0 l 204 1010 l 387 1010 l 245 153 l 690 153 l 664 0 l 36 0 m 941 758 l 1120 758 l 986 -43 q 887 -225 966 -166 q 682 -284 807 -284 q 665 -284 673 -284 q 647 -283 656 -284 l 671 -138 q 684 -138 678 -138 q 696 -139 690 -139 q 774 -114 748 -139 q 809 -41 800 -89 l 941 758 m 1054 865 q 983 893 1012 865 q 958 962 955 922 q 995 1031 962 1002 q 1070 1059 1027 1059 q 1141 1031 1113 1059 q 1165 962 1168 1002 q 1129 893 1162 922 q 1054 865 1096 865 z "},"M":{"ha":1259,"x_min":36,"x_max":1264,"o":"m 204 1010 l 428 1010 l 607 278 l 619 278 l 1040 1010 l 1264 1010 l 1096 0 l 920 0 l 1036 694 l 1027 694 l 632 3 l 502 3 l 338 695 l 328 695 l 212 0 l 36 0 l 204 1010 z "},"Ḿ":{"ha":1259,"x_min":36,"x_max":1264,"o":"m 204 1010 l 428 1010 l 607 278 l 619 278 l 1040 1010 l 1264 1010 l 1096 0 l 920 0 l 1036 694 l 1027 694 l 632 3 l 502 3 l 338 695 l 328 695 l 212 0 l 36 0 l 204 1010 m 683 1110 l 830 1335 l 1005 1335 l 816 1110 l 683 1110 z "},"Ṁ":{"ha":1259,"x_min":36,"x_max":1264,"o":"m 204 1010 l 428 1010 l 607 278 l 619 278 l 1040 1010 l 1264 1010 l 1096 0 l 920 0 l 1036 694 l 1027 694 l 632 3 l 502 3 l 338 695 l 328 695 l 212 0 l 36 0 l 204 1010 m 760 1118 q 689 1146 718 1118 q 664 1214 661 1174 q 701 1283 668 1255 q 776 1311 733 1311 q 847 1283 819 1311 q 871 1214 874 1255 q 835 1146 868 1174 q 760 1118 802 1118 z "},"Ṃ":{"ha":1259,"x_min":36,"x_max":1264,"o":"m 204 1010 l 428 1010 l 607 278 l 619 278 l 1040 1010 l 1264 1010 l 1096 0 l 920 0 l 1036 694 l 1027 694 l 632 3 l 502 3 l 338 695 l 328 695 l 212 0 l 36 0 l 204 1010 m 530 -271 q 459 -243 488 -271 q 435 -175 431 -215 q 471 -106 438 -134 q 546 -77 504 -77 q 617 -106 589 -77 q 641 -175 645 -134 q 605 -243 638 -215 q 530 -271 573 -271 z "},"Ӎ":{"ha":1331,"x_min":36,"x_max":1264,"o":"m 204 1010 l 428 1010 l 607 278 l 619 278 l 1040 1010 l 1264 1010 l 1096 0 l 920 0 l 1036 694 l 1027 694 l 632 3 l 502 3 l 338 695 l 328 695 l 212 0 l 36 0 l 204 1010 m 1260 102 l 1242 -7 q 1185 -154 1230 -83 q 1082 -279 1140 -226 l 980 -240 q 1043 -137 1013 -188 q 1085 -16 1074 -85 l 1104 102 l 1260 102 z "},"Μ":{"ha":1259,"x_min":36,"x_max":1264,"o":"m 204 1010 l 428 1010 l 607 278 l 619 278 l 1040 1010 l 1264 1010 l 1096 0 l 920 0 l 1036 694 l 1027 694 l 632 3 l 502 3 l 338 695 l 328 695 l 212 0 l 36 0 l 204 1010 z "},"Ϻ":{"ha":1259,"x_min":36,"x_max":1264,"o":"m 204 1010 l 428 1010 l 607 278 l 619 278 l 1040 1010 l 1264 1010 l 1096 0 l 920 0 l 1036 694 l 1027 694 l 632 3 l 502 3 l 338 695 l 328 695 l 212 0 l 36 0 l 204 1010 z "},"М":{"ha":1259,"x_min":36,"x_max":1264,"o":"m 204 1010 l 428 1010 l 607 278 l 619 278 l 1040 1010 l 1264 1010 l 1096 0 l 920 0 l 1036 694 l 1027 694 l 632 3 l 502 3 l 338 695 l 328 695 l 212 0 l 36 0 l 204 1010 z "},"N":{"ha":1029,"x_min":36,"x_max":1034,"o":"m 1034 1010 l 867 0 l 704 0 l 342 688 l 334 688 l 219 0 l 36 0 l 204 1010 l 368 1010 l 729 322 l 738 322 l 852 1010 l 1034 1010 z "},"Ñ":{"ha":1029,"x_min":36,"x_max":1034,"o":"m 1034 1010 l 867 0 l 704 0 l 342 688 l 334 688 l 219 0 l 36 0 l 204 1010 l 368 1010 l 729 322 l 738 322 l 852 1010 l 1034 1010 m 491 1102 l 384 1105 q 452 1243 399 1193 q 571 1292 506 1292 q 641 1275 615 1292 q 689 1240 667 1257 q 742 1222 711 1222 q 790 1243 770 1222 q 815 1298 810 1265 l 920 1293 q 852 1156 906 1205 q 732 1107 799 1108 q 674 1118 696 1107 q 637 1142 653 1128 q 605 1167 621 1156 q 564 1177 588 1177 q 517 1157 538 1177 q 491 1102 497 1136 z "},"Ń":{"ha":1029,"x_min":36,"x_max":1034,"o":"m 1034 1010 l 867 0 l 704 0 l 342 688 l 334 688 l 219 0 l 36 0 l 204 1010 l 368 1010 l 729 322 l 738 322 l 852 1010 l 1034 1010 m 568 1110 l 716 1335 l 890 1335 l 701 1110 l 568 1110 z "},"Ņ":{"ha":1029,"x_min":36,"x_max":1034,"o":"m 1034 1010 l 867 0 l 704 0 l 342 688 l 334 688 l 219 0 l 36 0 l 204 1010 l 368 1010 l 729 322 l 738 322 l 852 1010 l 1034 1010 m 254 -327 l 355 -80 l 525 -80 l 383 -327 l 254 -327 z "},"Ň":{"ha":1029,"x_min":36,"x_max":1034,"o":"m 1034 1010 l 867 0 l 704 0 l 342 688 l 334 688 l 219 0 l 36 0 l 204 1010 l 368 1010 l 729 322 l 738 322 l 852 1010 l 1034 1010 m 571 1321 l 651 1195 l 771 1321 l 928 1321 l 927 1314 l 705 1101 l 566 1101 l 414 1314 l 415 1321 l 571 1321 z "},"Ǹ":{"ha":1029,"x_min":36,"x_max":1034,"o":"m 1034 1010 l 867 0 l 704 0 l 342 688 l 334 688 l 219 0 l 36 0 l 204 1010 l 368 1010 l 729 322 l 738 322 l 852 1010 l 1034 1010 m 572 1110 l 459 1335 l 633 1335 l 706 1110 l 572 1110 z "},"Ṅ":{"ha":1029,"x_min":36,"x_max":1034,"o":"m 1034 1010 l 867 0 l 704 0 l 342 688 l 334 688 l 219 0 l 36 0 l 204 1010 l 368 1010 l 729 322 l 738 322 l 852 1010 l 1034 1010 m 646 1118 q 575 1146 603 1118 q 550 1214 546 1174 q 586 1283 554 1255 q 662 1311 619 1311 q 732 1283 704 1311 q 757 1214 760 1255 q 721 1146 754 1174 q 646 1118 688 1118 z "},"Ṇ":{"ha":1029,"x_min":36,"x_max":1034,"o":"m 1034 1010 l 867 0 l 704 0 l 342 688 l 334 688 l 219 0 l 36 0 l 204 1010 l 368 1010 l 729 322 l 738 322 l 852 1010 l 1034 1010 m 416 -271 q 345 -243 373 -271 q 320 -175 317 -215 q 357 -106 324 -134 q 432 -77 389 -77 q 502 -106 474 -77 q 527 -175 530 -134 q 491 -243 524 -215 q 416 -271 458 -271 z "},"Ṉ":{"ha":1029,"x_min":36,"x_max":1034,"o":"m 1034 1010 l 867 0 l 704 0 l 342 688 l 334 688 l 219 0 l 36 0 l 204 1010 l 368 1010 l 729 322 l 738 322 l 852 1010 l 1034 1010 m 669 -125 l 651 -234 l 176 -234 l 193 -125 l 669 -125 z "},"Ṋ":{"ha":1029,"x_min":36,"x_max":1034,"o":"m 1034 1010 l 867 0 l 704 0 l 342 688 l 334 688 l 219 0 l 36 0 l 204 1010 l 368 1010 l 729 322 l 738 322 l 852 1010 l 1034 1010 m 313 -283 l 157 -283 l 158 -276 l 381 -63 l 521 -63 l 671 -276 l 670 -283 l 514 -283 l 435 -157 l 313 -283 z "},"Ɲ":{"ha":1049,"x_min":-138,"x_max":1054,"o":"m 56 0 l 57 0 l 224 1010 l 388 1010 l 749 322 l 759 322 l 872 1010 l 1054 1010 l 887 0 l 724 0 l 363 688 l 355 688 l 240 0 l 228 -58 q 171 -197 212 -148 q 74 -266 130 -247 q -43 -285 18 -285 q -93 -284 -66 -285 q -138 -279 -121 -282 l -115 -138 q -95 -140 -107 -140 q -74 -141 -84 -141 q 4 -123 -31 -141 q 46 -57 38 -106 l 56 0 z "},"Ŋ":{"ha":1029,"x_min":36,"x_max":1034,"o":"m 704 0 l 342 688 l 334 688 l 219 0 l 36 0 l 204 1010 l 368 1010 l 729 322 l 738 322 l 852 1010 l 1034 1010 l 867 0 l 856 -54 q 752 -238 835 -182 q 551 -294 669 -294 q 514 -292 534 -294 q 480 -285 495 -290 l 503 -146 q 531 -150 515 -148 q 563 -152 547 -152 q 649 -130 614 -152 q 693 -55 684 -107 l 704 0 z "},"И":{"ha":1029,"x_min":36,"x_max":1033,"o":"m 203 1010 l 385 1010 l 271 322 l 280 322 l 869 1010 l 1033 1010 l 866 0 l 683 0 l 796 688 l 788 688 l 199 0 l 36 0 l 203 1010 z "},"Ѝ":{"ha":1029,"x_min":36,"x_max":1033,"o":"m 203 1010 l 385 1010 l 271 322 l 280 322 l 869 1010 l 1033 1010 l 866 0 l 683 0 l 796 688 l 788 688 l 199 0 l 36 0 l 203 1010 m 568 1110 l 455 1335 l 629 1335 l 702 1110 l 568 1110 z "},"Й":{"ha":1029,"x_min":36,"x_max":1033,"o":"m 203 1010 l 385 1010 l 271 322 l 280 322 l 869 1010 l 1033 1010 l 866 0 l 683 0 l 796 688 l 788 688 l 199 0 l 36 0 l 203 1010 m 757 1271 l 890 1271 q 805 1131 876 1184 q 627 1077 733 1077 q 468 1131 521 1077 q 429 1271 415 1184 l 562 1271 q 574 1207 556 1235 q 644 1179 591 1179 q 724 1207 697 1179 q 757 1271 750 1235 z "},"Ӣ":{"ha":1029,"x_min":36,"x_max":1033,"o":"m 203 1010 l 385 1010 l 271 322 l 280 322 l 869 1010 l 1033 1010 l 866 0 l 683 0 l 796 688 l 788 688 l 199 0 l 36 0 l 203 1010 m 896 1263 l 878 1154 l 403 1154 l 420 1263 l 896 1263 z "},"Ӥ":{"ha":1029,"x_min":36,"x_max":1033,"o":"m 203 1010 l 385 1010 l 271 322 l 280 322 l 869 1010 l 1033 1010 l 866 0 l 683 0 l 796 688 l 788 688 l 199 0 l 36 0 l 203 1010 m 794 1122 q 725 1152 752 1122 q 705 1226 698 1183 q 741 1284 712 1261 q 804 1308 769 1308 q 873 1277 848 1308 q 892 1203 899 1247 q 859 1146 887 1170 q 794 1122 831 1122 m 498 1122 q 429 1153 456 1122 q 409 1226 403 1184 q 444 1284 415 1261 q 508 1308 473 1308 q 578 1277 552 1308 q 596 1203 603 1247 q 563 1146 591 1170 q 498 1122 535 1122 z "},"Ҋ":{"ha":1029,"x_min":36,"x_max":1036,"o":"m 203 1010 l 385 1010 l 271 322 l 280 322 l 869 1010 l 1033 1010 l 866 0 l 683 0 l 796 688 l 788 688 l 199 0 l 36 0 l 203 1010 m 757 1271 l 890 1271 q 805 1131 876 1184 q 627 1077 733 1077 q 468 1131 521 1077 q 429 1271 415 1184 l 562 1271 q 574 1207 556 1235 q 644 1179 591 1179 q 724 1207 697 1179 q 757 1271 750 1235 m 1036 102 l 1018 -7 q 962 -154 1006 -83 q 858 -279 917 -226 l 757 -240 q 820 -137 790 -188 q 861 -16 850 -85 l 880 102 l 1036 102 z "},"Ͷ":{"ha":1067,"x_min":54,"x_max":1051,"o":"m 221 1010 l 403 1010 l 289 322 l 298 322 l 887 1010 l 1051 1010 l 884 0 l 701 0 l 814 688 l 806 688 l 217 0 l 54 0 l 221 1010 z "},"Ν":{"ha":1029,"x_min":36,"x_max":1034,"o":"m 1034 1010 l 867 0 l 704 0 l 342 688 l 334 688 l 219 0 l 36 0 l 204 1010 l 368 1010 l 729 322 l 738 322 l 852 1010 l 1034 1010 z "},"ǋ":{"ha":1360,"x_min":36,"x_max":1381,"o":"m 1034 1010 l 867 0 l 704 0 l 342 688 l 334 688 l 219 0 l 36 0 l 204 1010 l 368 1010 l 729 322 l 738 322 l 852 1010 l 1034 1010 m 1153 758 l 1332 758 l 1199 -43 q 1099 -225 1178 -166 q 894 -284 1019 -284 q 877 -284 885 -284 q 859 -283 868 -284 l 883 -138 q 896 -138 890 -138 q 908 -139 902 -139 q 986 -114 960 -139 q 1021 -41 1013 -89 l 1153 758 m 1266 865 q 1195 893 1224 865 q 1170 962 1167 922 q 1207 1031 1174 1002 q 1282 1059 1239 1059 q 1353 1031 1325 1059 q 1377 962 1381 1002 q 1341 893 1374 922 q 1266 865 1308 865 z "},"O":{"ha":1076,"x_min":70,"x_max":1049,"o":"m 1021 493 q 916 219 994 333 q 726 46 838 106 q 484 -14 614 -14 q 252 49 349 -14 q 112 231 155 112 q 97 515 70 350 q 201 790 123 676 q 392 964 280 904 q 636 1024 505 1024 q 867 961 770 1024 q 1006 778 963 897 q 1021 493 1049 659 m 841 515 q 808 772 869 684 q 628 860 748 860 q 470 817 543 860 q 346 692 397 774 q 277 493 296 611 q 310 237 248 324 q 490 150 372 150 q 648 193 576 150 q 771 317 720 235 q 841 515 822 398 z "},"Ö":{"ha":1076,"x_min":70,"x_max":1049,"o":"m 1021 493 q 916 219 994 333 q 726 46 838 106 q 484 -14 614 -14 q 252 49 349 -14 q 112 231 155 112 q 97 515 70 350 q 201 790 123 676 q 392 964 280 904 q 636 1024 505 1024 q 867 961 770 1024 q 1006 778 963 897 q 1021 493 1049 659 m 841 515 q 808 772 869 684 q 628 860 748 860 q 470 817 543 860 q 346 692 397 774 q 277 493 296 611 q 310 237 248 324 q 490 150 372 150 q 648 193 576 150 q 771 317 720 235 q 841 515 822 398 m 819 1122 q 751 1152 777 1122 q 731 1226 724 1183 q 766 1284 737 1261 q 830 1308 795 1308 q 899 1277 873 1308 q 918 1203 925 1247 q 885 1146 913 1170 q 819 1122 856 1122 m 523 1122 q 455 1153 481 1122 q 435 1226 429 1184 q 470 1284 440 1261 q 534 1308 499 1308 q 603 1277 578 1308 q 622 1203 629 1247 q 589 1146 617 1170 q 523 1122 560 1122 z "},"Õ":{"ha":1076,"x_min":70,"x_max":1049,"o":"m 1021 493 q 916 219 994 333 q 726 46 838 106 q 484 -14 614 -14 q 252 49 349 -14 q 112 231 155 112 q 97 515 70 350 q 201 790 123 676 q 392 964 280 904 q 636 1024 505 1024 q 867 961 770 1024 q 1006 778 963 897 q 1021 493 1049 659 m 841 515 q 808 772 869 684 q 628 860 748 860 q 470 817 543 860 q 346 692 397 774 q 277 493 296 611 q 310 237 248 324 q 490 150 372 150 q 648 193 576 150 q 771 317 720 235 q 841 515 822 398 m 514 1110 l 407 1112 q 475 1250 421 1200 q 594 1300 528 1300 q 663 1282 637 1300 q 711 1247 690 1265 q 764 1230 733 1230 q 813 1251 793 1230 q 838 1305 833 1272 l 943 1301 q 875 1164 928 1212 q 755 1115 821 1115 q 697 1125 719 1115 q 659 1150 675 1136 q 627 1174 644 1163 q 586 1185 611 1185 q 540 1164 560 1185 q 514 1110 520 1143 z "},"Ø":{"ha":1078,"x_min":74,"x_max":1044,"o":"m 209 -46 l 125 15 l 189 101 q 100 273 126 169 q 97 514 74 378 q 201 789 123 675 q 392 963 280 903 q 636 1023 505 1023 q 847 972 757 1023 l 910 1054 l 994 993 l 929 907 q 1018 734 992 838 q 1021 492 1044 629 q 916 218 994 332 q 726 45 838 105 q 484 -15 614 -15 q 272 36 363 -15 l 209 -46 m 302 250 l 742 832 q 628 859 694 859 q 470 816 543 859 q 346 691 397 773 q 277 492 296 610 q 271 353 264 414 q 302 250 278 292 m 841 514 q 847 653 854 592 q 816 758 840 714 l 377 176 q 490 149 425 149 q 648 192 576 149 q 771 316 720 234 q 841 514 822 397 z "},"Ơ":{"ha":1112,"x_min":70,"x_max":1208,"o":"m 1080 1067 l 1208 1067 q 1139 886 1190 957 q 1002 787 1088 814 q 1030 653 1024 727 q 1021 493 1035 580 q 916 219 994 333 q 726 46 838 106 q 484 -14 614 -14 q 252 49 349 -14 q 112 231 155 112 q 97 515 70 350 q 201 790 123 676 q 392 964 280 904 q 636 1024 505 1024 q 952 881 844 1024 q 1036 941 1007 893 q 1080 1067 1066 989 m 841 515 q 808 772 869 684 q 628 860 748 860 q 470 817 543 860 q 346 692 397 774 q 277 493 296 611 q 310 237 248 324 q 490 150 372 150 q 648 193 576 150 q 771 317 720 235 q 841 515 822 398 z "},"Ò":{"ha":1076,"x_min":70,"x_max":1049,"o":"m 1021 493 q 916 219 994 333 q 726 46 838 106 q 484 -14 614 -14 q 252 49 349 -14 q 112 231 155 112 q 97 515 70 350 q 201 790 123 676 q 392 964 280 904 q 636 1024 505 1024 q 867 961 770 1024 q 1006 778 963 897 q 1021 493 1049 659 m 841 515 q 808 772 869 684 q 628 860 748 860 q 470 817 543 860 q 346 692 397 774 q 277 493 296 611 q 310 237 248 324 q 490 150 372 150 q 648 193 576 150 q 771 317 720 235 q 841 515 822 398 m 594 1110 l 480 1335 l 655 1335 l 727 1110 l 594 1110 z "},"Ó":{"ha":1076,"x_min":70,"x_max":1049,"o":"m 1021 493 q 916 219 994 333 q 726 46 838 106 q 484 -14 614 -14 q 252 49 349 -14 q 112 231 155 112 q 97 515 70 350 q 201 790 123 676 q 392 964 280 904 q 636 1024 505 1024 q 867 961 770 1024 q 1006 778 963 897 q 1021 493 1049 659 m 841 515 q 808 772 869 684 q 628 860 748 860 q 470 817 543 860 q 346 692 397 774 q 277 493 296 611 q 310 237 248 324 q 490 150 372 150 q 648 193 576 150 q 771 317 720 235 q 841 515 822 398 m 590 1110 l 738 1335 l 912 1335 l 724 1110 l 590 1110 z "},"Ô":{"ha":1076,"x_min":70,"x_max":1049,"o":"m 1021 493 q 916 219 994 333 q 726 46 838 106 q 484 -14 614 -14 q 252 49 349 -14 q 112 231 155 112 q 97 515 70 350 q 201 790 123 676 q 392 964 280 904 q 636 1024 505 1024 q 867 961 770 1024 q 1006 778 963 897 q 1021 493 1049 659 m 841 515 q 808 772 869 684 q 628 860 748 860 q 470 817 543 860 q 346 692 397 774 q 277 493 296 611 q 310 237 248 324 q 490 150 372 150 q 648 193 576 150 q 771 317 720 235 q 841 515 822 398 m 557 1101 l 401 1101 l 402 1108 l 625 1321 l 764 1321 l 915 1108 l 914 1101 l 758 1101 l 679 1227 l 557 1101 z "},"Ō":{"ha":1076,"x_min":70,"x_max":1049,"o":"m 1021 493 q 916 219 994 333 q 726 46 838 106 q 484 -14 614 -14 q 252 49 349 -14 q 112 231 155 112 q 97 515 70 350 q 201 790 123 676 q 392 964 280 904 q 636 1024 505 1024 q 867 961 770 1024 q 1006 778 963 897 q 1021 493 1049 659 m 841 515 q 808 772 869 684 q 628 860 748 860 q 470 817 543 860 q 346 692 397 774 q 277 493 296 611 q 310 237 248 324 q 490 150 372 150 q 648 193 576 150 q 771 317 720 235 q 841 515 822 398 m 921 1263 l 904 1154 l 429 1154 l 446 1263 l 921 1263 z "},"Ŏ":{"ha":1076,"x_min":70,"x_max":1049,"o":"m 1021 493 q 916 219 994 333 q 726 46 838 106 q 484 -14 614 -14 q 252 49 349 -14 q 112 231 155 112 q 97 515 70 350 q 201 790 123 676 q 392 964 280 904 q 636 1024 505 1024 q 867 961 770 1024 q 1006 778 963 897 q 1021 493 1049 659 m 841 515 q 808 772 869 684 q 628 860 748 860 q 470 817 543 860 q 346 692 397 774 q 277 493 296 611 q 310 237 248 324 q 490 150 372 150 q 648 193 576 150 q 771 317 720 235 q 841 515 822 398 m 783 1271 l 916 1271 q 831 1131 902 1184 q 653 1077 760 1077 q 494 1131 547 1077 q 455 1271 441 1184 l 588 1271 q 600 1207 582 1235 q 670 1179 618 1179 q 750 1207 723 1179 q 783 1271 776 1235 z "},"Ő":{"ha":1076,"x_min":70,"x_max":1049,"o":"m 1021 493 q 916 219 994 333 q 726 46 838 106 q 484 -14 614 -14 q 252 49 349 -14 q 112 231 155 112 q 97 515 70 350 q 201 790 123 676 q 392 964 280 904 q 636 1024 505 1024 q 867 961 770 1024 q 1006 778 963 897 q 1021 493 1049 659 m 841 515 q 808 772 869 684 q 628 860 748 860 q 470 817 543 860 q 346 692 397 774 q 277 493 296 611 q 310 237 248 324 q 490 150 372 150 q 648 193 576 150 q 771 317 720 235 q 841 515 822 398 m 690 1096 l 880 1302 l 1042 1302 l 824 1096 l 690 1096 m 454 1096 l 614 1302 l 774 1302 l 583 1096 l 454 1096 z "},"Ǒ":{"ha":1076,"x_min":70,"x_max":1049,"o":"m 1021 493 q 916 219 994 333 q 726 46 838 106 q 484 -14 614 -14 q 252 49 349 -14 q 112 231 155 112 q 97 515 70 350 q 201 790 123 676 q 392 964 280 904 q 636 1024 505 1024 q 867 961 770 1024 q 1006 778 963 897 q 1021 493 1049 659 m 841 515 q 808 772 869 684 q 628 860 748 860 q 470 817 543 860 q 346 692 397 774 q 277 493 296 611 q 310 237 248 324 q 490 150 372 150 q 648 193 576 150 q 771 317 720 235 q 841 515 822 398 m 593 1321 l 673 1195 l 794 1321 l 950 1321 l 949 1314 l 727 1101 l 588 1101 l 436 1314 l 437 1321 l 593 1321 z "},"Ǫ":{"ha":1076,"x_min":70,"x_max":1049,"o":"m 1021 493 q 916 219 994 333 q 726 46 838 106 q 484 -14 614 -14 q 252 49 349 -14 q 112 231 155 112 q 97 515 70 350 q 201 790 123 676 q 392 964 280 904 q 636 1024 505 1024 q 867 961 770 1024 q 1006 778 963 897 q 1021 493 1049 659 m 841 515 q 808 772 869 684 q 628 860 748 860 q 470 817 543 860 q 346 692 397 774 q 277 493 296 611 q 310 237 248 324 q 490 150 372 150 q 648 193 576 150 q 771 317 720 235 q 841 515 822 398 m 452 -286 q 351 -252 388 -286 q 317 -155 314 -218 q 359 -39 318 -97 q 482 53 400 19 l 594 1 q 509 -53 545 -24 q 468 -120 473 -81 q 508 -169 458 -169 q 541 -164 526 -169 q 566 -155 555 -159 l 568 -256 q 519 -276 548 -266 q 452 -286 489 -286 z "},"Ǭ":{"ha":1076,"x_min":70,"x_max":1049,"o":"m 1021 493 q 916 219 994 333 q 726 46 838 106 q 484 -14 614 -14 q 252 49 349 -14 q 112 231 155 112 q 97 515 70 350 q 201 790 123 676 q 392 964 280 904 q 636 1024 505 1024 q 867 961 770 1024 q 1006 778 963 897 q 1021 493 1049 659 m 841 515 q 808 772 869 684 q 628 860 748 860 q 470 817 543 860 q 346 692 397 774 q 277 493 296 611 q 310 237 248 324 q 490 150 372 150 q 648 193 576 150 q 771 317 720 235 q 841 515 822 398 m 452 -286 q 351 -252 388 -286 q 317 -155 314 -218 q 359 -39 318 -97 q 482 53 400 19 l 594 1 q 509 -53 545 -24 q 468 -120 473 -81 q 508 -169 458 -169 q 541 -164 526 -169 q 566 -155 555 -159 l 568 -256 q 519 -276 548 -266 q 452 -286 489 -286 m 921 1263 l 904 1154 l 429 1154 l 446 1263 l 921 1263 z "},"Ȍ":{"ha":1076,"x_min":70,"x_max":1049,"o":"m 1021 493 q 916 219 994 333 q 726 46 838 106 q 484 -14 614 -14 q 252 49 349 -14 q 112 231 155 112 q 97 515 70 350 q 201 790 123 676 q 392 964 280 904 q 636 1024 505 1024 q 867 961 770 1024 q 1006 778 963 897 q 1021 493 1049 659 m 841 515 q 808 772 869 684 q 628 860 748 860 q 470 817 543 860 q 346 692 397 774 q 277 493 296 611 q 310 237 248 324 q 490 150 372 150 q 648 193 576 150 q 771 317 720 235 q 841 515 822 398 m 784 1110 l 664 1247 l 729 1335 l 839 1198 l 784 1110 m 553 1110 l 406 1247 l 449 1335 l 592 1198 l 553 1110 z "},"Ȏ":{"ha":1076,"x_min":70,"x_max":1049,"o":"m 1021 493 q 916 219 994 333 q 726 46 838 106 q 484 -14 614 -14 q 252 49 349 -14 q 112 231 155 112 q 97 515 70 350 q 201 790 123 676 q 392 964 280 904 q 636 1024 505 1024 q 867 961 770 1024 q 1006 778 963 897 q 1021 493 1049 659 m 841 515 q 808 772 869 684 q 628 860 748 860 q 470 817 543 860 q 346 692 397 774 q 277 493 296 611 q 310 237 248 324 q 490 150 372 150 q 648 193 576 150 q 771 317 720 235 q 841 515 822 398 m 432 1133 q 517 1275 446 1220 q 695 1331 588 1331 q 854 1275 801 1331 q 894 1133 908 1220 l 760 1133 q 748 1197 765 1169 q 678 1225 730 1225 q 598 1197 624 1225 q 566 1133 571 1168 l 432 1133 z "},"Ȫ":{"ha":1076,"x_min":70,"x_max":1049,"o":"m 1021 493 q 916 219 994 333 q 726 46 838 106 q 484 -14 614 -14 q 252 49 349 -14 q 112 231 155 112 q 97 515 70 350 q 201 790 123 676 q 392 964 280 904 q 636 1024 505 1024 q 867 961 770 1024 q 1006 778 963 897 q 1021 493 1049 659 m 841 515 q 808 772 869 684 q 628 860 748 860 q 470 817 543 860 q 346 692 397 774 q 277 493 296 611 q 310 237 248 324 q 490 150 372 150 q 648 193 576 150 q 771 317 720 235 q 841 515 822 398 m 819 1122 q 751 1152 777 1122 q 731 1226 724 1183 q 766 1284 737 1261 q 830 1308 795 1308 q 899 1277 873 1308 q 918 1203 925 1247 q 885 1146 913 1170 q 819 1122 856 1122 m 523 1122 q 455 1153 481 1122 q 435 1226 429 1184 q 470 1284 440 1261 q 534 1308 499 1308 q 603 1277 578 1308 q 622 1203 629 1247 q 589 1146 617 1170 q 523 1122 560 1122 m 962 1515 l 945 1406 l 470 1406 l 487 1515 l 962 1515 z "},"Ȭ":{"ha":1076,"x_min":70,"x_max":1049,"o":"m 1021 493 q 916 219 994 333 q 726 46 838 106 q 484 -14 614 -14 q 252 49 349 -14 q 112 231 155 112 q 97 515 70 350 q 201 790 123 676 q 392 964 280 904 q 636 1024 505 1024 q 867 961 770 1024 q 1006 778 963 897 q 1021 493 1049 659 m 841 515 q 808 772 869 684 q 628 860 748 860 q 470 817 543 860 q 346 692 397 774 q 277 493 296 611 q 310 237 248 324 q 490 150 372 150 q 648 193 576 150 q 771 317 720 235 q 841 515 822 398 m 952 1441 l 934 1330 l 458 1330 l 476 1441 l 952 1441 m 808 1263 l 882 1242 q 835 1155 873 1193 q 746 1118 796 1118 q 686 1130 709 1118 q 644 1154 664 1142 q 594 1165 624 1165 q 557 1147 574 1165 q 537 1106 541 1129 l 465 1127 q 510 1214 472 1176 q 597 1252 547 1252 q 651 1240 627 1252 q 697 1217 674 1229 q 748 1206 720 1206 q 786 1222 768 1206 q 808 1263 804 1238 z "},"Ȯ":{"ha":1076,"x_min":70,"x_max":1049,"o":"m 1021 493 q 916 219 994 333 q 726 46 838 106 q 484 -14 614 -14 q 252 49 349 -14 q 112 231 155 112 q 97 515 70 350 q 201 790 123 676 q 392 964 280 904 q 636 1024 505 1024 q 867 961 770 1024 q 1006 778 963 897 q 1021 493 1049 659 m 841 515 q 808 772 869 684 q 628 860 748 860 q 470 817 543 860 q 346 692 397 774 q 277 493 296 611 q 310 237 248 324 q 490 150 372 150 q 648 193 576 150 q 771 317 720 235 q 841 515 822 398 m 668 1118 q 597 1146 625 1118 q 572 1214 569 1174 q 609 1283 576 1255 q 684 1311 641 1311 q 754 1283 727 1311 q 779 1214 782 1255 q 743 1146 776 1174 q 668 1118 710 1118 z "},"Ȱ":{"ha":1076,"x_min":70,"x_max":1049,"o":"m 1021 493 q 916 219 994 333 q 726 46 838 106 q 484 -14 614 -14 q 252 49 349 -14 q 112 231 155 112 q 97 515 70 350 q 201 790 123 676 q 392 964 280 904 q 636 1024 505 1024 q 867 961 770 1024 q 1006 778 963 897 q 1021 493 1049 659 m 841 515 q 808 772 869 684 q 628 860 748 860 q 470 817 543 860 q 346 692 397 774 q 277 493 296 611 q 310 237 248 324 q 490 150 372 150 q 648 193 576 150 q 771 317 720 235 q 841 515 822 398 m 958 1515 l 940 1406 l 465 1406 l 482 1515 l 958 1515 m 663 1121 q 596 1149 623 1121 q 573 1214 569 1176 q 606 1280 576 1253 q 678 1308 637 1308 q 745 1280 718 1308 q 768 1214 771 1253 q 735 1149 765 1176 q 663 1121 704 1121 z "},"Ṍ":{"ha":1076,"x_min":70,"x_max":1049,"o":"m 1021 493 q 916 219 994 333 q 726 46 838 106 q 484 -14 614 -14 q 252 49 349 -14 q 112 231 155 112 q 97 515 70 350 q 201 790 123 676 q 392 964 280 904 q 636 1024 505 1024 q 867 961 770 1024 q 1006 778 963 897 q 1021 493 1049 659 m 841 515 q 808 772 869 684 q 628 860 748 860 q 470 817 543 860 q 346 692 397 774 q 277 493 296 611 q 310 237 248 324 q 490 150 372 150 q 648 193 576 150 q 771 317 720 235 q 841 515 822 398 m 513 1097 l 409 1099 q 475 1231 423 1183 q 591 1278 527 1278 q 659 1262 633 1278 q 706 1228 685 1245 q 758 1211 727 1211 q 804 1232 785 1211 q 829 1283 824 1252 l 931 1279 q 865 1148 917 1195 q 748 1102 812 1102 q 692 1112 713 1102 q 655 1135 671 1122 q 624 1158 640 1148 q 584 1168 608 1168 q 539 1149 558 1168 q 513 1097 519 1129 m 611 1326 l 771 1492 l 943 1492 l 746 1326 l 611 1326 z "},"Ṏ":{"ha":1076,"x_min":70,"x_max":1049,"o":"m 1021 493 q 916 219 994 333 q 726 46 838 106 q 484 -14 614 -14 q 252 49 349 -14 q 112 231 155 112 q 97 515 70 350 q 201 790 123 676 q 392 964 280 904 q 636 1024 505 1024 q 867 961 770 1024 q 1006 778 963 897 q 1021 493 1049 659 m 841 515 q 808 772 869 684 q 628 860 748 860 q 470 817 543 860 q 346 692 397 774 q 277 493 296 611 q 310 237 248 324 q 490 150 372 150 q 648 193 576 150 q 771 317 720 235 q 841 515 822 398 m 805 1255 l 880 1234 q 832 1147 871 1184 q 744 1110 794 1110 q 684 1122 707 1110 q 642 1146 662 1134 q 592 1158 622 1158 q 555 1140 572 1158 q 535 1098 539 1123 l 463 1120 q 507 1206 470 1168 q 595 1244 545 1244 q 649 1233 625 1244 q 695 1210 672 1221 q 746 1198 718 1198 q 784 1215 766 1198 q 805 1255 801 1232 m 767 1375 q 800 1431 772 1408 q 870 1453 828 1453 q 930 1431 910 1453 q 945 1375 950 1408 q 912 1319 940 1342 q 843 1297 884 1297 q 781 1319 801 1297 q 767 1375 761 1341 m 460 1375 q 492 1431 465 1408 q 561 1453 520 1453 q 623 1431 602 1453 q 639 1375 644 1408 q 605 1320 633 1342 q 535 1298 577 1298 q 474 1320 494 1298 q 460 1375 454 1342 z "},"Ṑ":{"ha":1076,"x_min":70,"x_max":1049,"o":"m 1021 493 q 916 219 994 333 q 726 46 838 106 q 484 -14 614 -14 q 252 49 349 -14 q 112 231 155 112 q 97 515 70 350 q 201 790 123 676 q 392 964 280 904 q 636 1024 505 1024 q 867 961 770 1024 q 1006 778 963 897 q 1021 493 1049 659 m 841 515 q 808 772 869 684 q 628 860 748 860 q 470 817 543 860 q 346 692 397 774 q 277 493 296 611 q 310 237 248 324 q 490 150 372 150 q 648 193 576 150 q 771 317 720 235 q 841 515 822 398 m 916 1238 l 899 1129 l 424 1129 l 441 1238 l 916 1238 m 628 1316 l 486 1483 l 659 1483 l 773 1316 l 628 1316 z "},"Ṓ":{"ha":1076,"x_min":70,"x_max":1049,"o":"m 1021 493 q 916 219 994 333 q 726 46 838 106 q 484 -14 614 -14 q 252 49 349 -14 q 112 231 155 112 q 97 515 70 350 q 201 790 123 676 q 392 964 280 904 q 636 1024 505 1024 q 867 961 770 1024 q 1006 778 963 897 q 1021 493 1049 659 m 841 515 q 808 772 869 684 q 628 860 748 860 q 470 817 543 860 q 346 692 397 774 q 277 493 296 611 q 310 237 248 324 q 490 150 372 150 q 648 193 576 150 q 771 317 720 235 q 841 515 822 398 m 913 1238 l 896 1129 l 421 1129 l 438 1238 l 913 1238 m 610 1316 l 779 1483 l 952 1483 l 756 1316 l 610 1316 z "},"Ọ":{"ha":1076,"x_min":70,"x_max":1049,"o":"m 1021 493 q 916 219 994 333 q 726 46 838 106 q 484 -14 614 -14 q 252 49 349 -14 q 112 231 155 112 q 97 515 70 350 q 201 790 123 676 q 392 964 280 904 q 636 1024 505 1024 q 867 961 770 1024 q 1006 778 963 897 q 1021 493 1049 659 m 841 515 q 808 772 869 684 q 628 860 748 860 q 470 817 543 860 q 346 692 397 774 q 277 493 296 611 q 310 237 248 324 q 490 150 372 150 q 648 193 576 150 q 771 317 720 235 q 841 515 822 398 m 444 -269 q 373 -240 401 -269 q 348 -172 345 -212 q 385 -103 352 -132 q 460 -75 417 -75 q 530 -103 503 -75 q 555 -172 558 -132 q 519 -240 552 -212 q 444 -269 486 -269 z "},"Ỏ":{"ha":1076,"x_min":70,"x_max":1049,"o":"m 1021 493 q 916 219 994 333 q 726 46 838 106 q 484 -14 614 -14 q 252 49 349 -14 q 112 231 155 112 q 97 515 70 350 q 201 790 123 676 q 392 964 280 904 q 636 1024 505 1024 q 867 961 770 1024 q 1006 778 963 897 q 1021 493 1049 659 m 841 515 q 808 772 869 684 q 628 860 748 860 q 470 817 543 860 q 346 692 397 774 q 277 493 296 611 q 310 237 248 324 q 490 150 372 150 q 648 193 576 150 q 771 317 720 235 q 841 515 822 398 m 729 1117 l 593 1117 l 601 1211 q 677 1225 654 1214 q 704 1257 701 1236 q 681 1294 709 1284 q 611 1305 654 1305 l 631 1393 q 810 1358 753 1393 q 857 1261 867 1322 q 813 1191 849 1214 q 736 1162 777 1168 l 729 1117 z "},"Ố":{"ha":1076,"x_min":70,"x_max":1173,"o":"m 1021 493 q 916 219 994 333 q 726 46 838 106 q 484 -14 614 -14 q 252 49 349 -14 q 112 231 155 112 q 97 515 70 350 q 201 790 123 676 q 392 964 280 904 q 636 1024 505 1024 q 867 961 770 1024 q 1006 778 963 897 q 1021 493 1049 659 m 841 515 q 808 772 869 684 q 628 860 748 860 q 470 817 543 860 q 346 692 397 774 q 277 493 296 611 q 310 237 248 324 q 490 150 372 150 q 648 193 576 150 q 771 317 720 235 q 841 515 822 398 m 401 1094 l 628 1257 l 740 1257 l 913 1094 l 764 1094 l 672 1185 l 550 1094 l 401 1094 m 877 1193 l 1017 1375 l 1173 1375 l 990 1193 l 877 1193 z "},"Ồ":{"ha":1076,"x_min":70,"x_max":1049,"o":"m 1021 493 q 916 219 994 333 q 726 46 838 106 q 484 -14 614 -14 q 252 49 349 -14 q 112 231 155 112 q 97 515 70 350 q 201 790 123 676 q 392 964 280 904 q 636 1024 505 1024 q 867 961 770 1024 q 1006 778 963 897 q 1021 493 1049 659 m 841 515 q 808 772 869 684 q 628 860 748 860 q 470 817 543 860 q 346 692 397 774 q 277 493 296 611 q 310 237 248 324 q 490 150 372 150 q 648 193 576 150 q 771 317 720 235 q 841 515 822 398 m 738 1256 l 912 1094 l 763 1094 l 672 1185 l 549 1094 l 401 1094 l 626 1256 l 738 1256 m 391 1375 l 470 1193 l 358 1193 l 235 1375 l 391 1375 z "},"Ổ":{"ha":1076,"x_min":70,"x_max":1077,"o":"m 1021 493 q 916 219 994 333 q 726 46 838 106 q 484 -14 614 -14 q 252 49 349 -14 q 112 231 155 112 q 97 515 70 350 q 201 790 123 676 q 392 964 280 904 q 636 1024 505 1024 q 867 961 770 1024 q 1006 778 963 897 q 1021 493 1049 659 m 841 515 q 808 772 869 684 q 628 860 748 860 q 470 817 543 860 q 346 692 397 774 q 277 493 296 611 q 310 237 248 324 q 490 150 372 150 q 648 193 576 150 q 771 317 720 235 q 841 515 822 398 m 744 1251 l 909 1089 l 772 1089 l 670 1188 l 537 1089 l 399 1089 l 618 1251 l 744 1251 m 961 1178 l 860 1178 l 866 1258 q 954 1296 948 1262 q 934 1327 958 1319 q 873 1336 911 1336 l 891 1411 q 1033 1381 988 1411 q 1068 1300 1077 1351 q 1031 1240 1062 1260 q 967 1215 1000 1221 l 961 1178 z "},"Ỗ":{"ha":1076,"x_min":70,"x_max":1049,"o":"m 1021 493 q 916 219 994 333 q 726 46 838 106 q 484 -14 614 -14 q 252 49 349 -14 q 112 231 155 112 q 97 515 70 350 q 201 790 123 676 q 392 964 280 904 q 636 1024 505 1024 q 867 961 770 1024 q 1006 778 963 897 q 1021 493 1049 659 m 841 515 q 808 772 869 684 q 628 860 748 860 q 470 817 543 860 q 346 692 397 774 q 277 493 296 611 q 310 237 248 324 q 490 150 372 150 q 648 193 576 150 q 771 317 720 235 q 841 515 822 398 m 731 1239 l 908 1083 l 771 1083 l 667 1173 l 537 1083 l 398 1083 l 625 1239 l 731 1239 m 819 1409 l 883 1386 q 843 1313 876 1346 q 765 1280 809 1280 q 712 1291 733 1280 q 673 1314 691 1303 q 629 1325 654 1325 q 596 1310 611 1325 q 578 1277 581 1296 l 516 1295 q 555 1368 522 1334 q 632 1401 588 1401 q 680 1391 658 1401 q 723 1369 701 1380 q 768 1358 744 1358 q 801 1374 786 1358 q 819 1409 816 1390 z "},"Ộ":{"ha":1076,"x_min":70,"x_max":1049,"o":"m 1021 493 q 916 219 994 333 q 726 46 838 106 q 484 -14 614 -14 q 252 49 349 -14 q 112 231 155 112 q 97 515 70 350 q 201 790 123 676 q 392 964 280 904 q 636 1024 505 1024 q 867 961 770 1024 q 1006 778 963 897 q 1021 493 1049 659 m 841 515 q 808 772 869 684 q 628 860 748 860 q 470 817 543 860 q 346 692 397 774 q 277 493 296 611 q 310 237 248 324 q 490 150 372 150 q 648 193 576 150 q 771 317 720 235 q 841 515 822 398 m 557 1101 l 401 1101 l 402 1108 l 625 1321 l 764 1321 l 915 1108 l 914 1101 l 758 1101 l 679 1227 l 557 1101 m 444 -269 q 373 -240 401 -269 q 348 -172 345 -212 q 385 -103 352 -132 q 460 -75 417 -75 q 530 -103 503 -75 q 555 -172 558 -132 q 519 -240 552 -212 q 444 -269 486 -269 z "},"Ớ":{"ha":1112,"x_min":70,"x_max":1208,"o":"m 1080 1067 l 1208 1067 q 1139 886 1190 957 q 1002 787 1088 814 q 1030 653 1024 727 q 1021 493 1035 580 q 916 219 994 333 q 726 46 838 106 q 484 -14 614 -14 q 252 49 349 -14 q 112 231 155 112 q 97 515 70 350 q 201 790 123 676 q 392 964 280 904 q 636 1024 505 1024 q 952 881 844 1024 q 1036 941 1007 893 q 1080 1067 1066 989 m 841 515 q 808 772 869 684 q 628 860 748 860 q 470 817 543 860 q 346 692 397 774 q 277 493 296 611 q 310 237 248 324 q 490 150 372 150 q 648 193 576 150 q 771 317 720 235 q 841 515 822 398 m 590 1110 l 738 1335 l 912 1335 l 724 1110 l 590 1110 z "},"Ờ":{"ha":1112,"x_min":70,"x_max":1208,"o":"m 1080 1067 l 1208 1067 q 1139 886 1190 957 q 1002 787 1088 814 q 1030 653 1024 727 q 1021 493 1035 580 q 916 219 994 333 q 726 46 838 106 q 484 -14 614 -14 q 252 49 349 -14 q 112 231 155 112 q 97 515 70 350 q 201 790 123 676 q 392 964 280 904 q 636 1024 505 1024 q 952 881 844 1024 q 1036 941 1007 893 q 1080 1067 1066 989 m 841 515 q 808 772 869 684 q 628 860 748 860 q 470 817 543 860 q 346 692 397 774 q 277 493 296 611 q 310 237 248 324 q 490 150 372 150 q 648 193 576 150 q 771 317 720 235 q 841 515 822 398 m 594 1110 l 480 1335 l 655 1335 l 727 1110 l 594 1110 z "},"Ở":{"ha":1112,"x_min":70,"x_max":1208,"o":"m 1080 1067 l 1208 1067 q 1139 886 1190 957 q 1002 787 1088 814 q 1030 653 1024 727 q 1021 493 1035 580 q 916 219 994 333 q 726 46 838 106 q 484 -14 614 -14 q 252 49 349 -14 q 112 231 155 112 q 97 515 70 350 q 201 790 123 676 q 392 964 280 904 q 636 1024 505 1024 q 952 881 844 1024 q 1036 941 1007 893 q 1080 1067 1066 989 m 841 515 q 808 772 869 684 q 628 860 748 860 q 470 817 543 860 q 346 692 397 774 q 277 493 296 611 q 310 237 248 324 q 490 150 372 150 q 648 193 576 150 q 771 317 720 235 q 841 515 822 398 m 729 1117 l 593 1117 l 601 1211 q 677 1225 654 1214 q 704 1257 701 1236 q 681 1294 709 1284 q 611 1305 654 1305 l 631 1393 q 810 1358 753 1393 q 857 1261 867 1322 q 813 1191 849 1214 q 736 1162 777 1168 l 729 1117 z "},"Ỡ":{"ha":1112,"x_min":70,"x_max":1208,"o":"m 1080 1067 l 1208 1067 q 1139 886 1190 957 q 1002 787 1088 814 q 1030 653 1024 727 q 1021 493 1035 580 q 916 219 994 333 q 726 46 838 106 q 484 -14 614 -14 q 252 49 349 -14 q 112 231 155 112 q 97 515 70 350 q 201 790 123 676 q 392 964 280 904 q 636 1024 505 1024 q 952 881 844 1024 q 1036 941 1007 893 q 1080 1067 1066 989 m 841 515 q 808 772 869 684 q 628 860 748 860 q 470 817 543 860 q 346 692 397 774 q 277 493 296 611 q 310 237 248 324 q 490 150 372 150 q 648 193 576 150 q 771 317 720 235 q 841 515 822 398 m 513 1102 l 406 1105 q 474 1243 421 1193 q 593 1292 528 1292 q 663 1275 637 1292 q 711 1240 689 1257 q 764 1222 733 1222 q 812 1243 792 1222 q 837 1298 833 1265 l 943 1293 q 874 1156 928 1205 q 755 1107 821 1108 q 697 1118 719 1107 q 659 1142 675 1128 q 627 1167 643 1156 q 586 1177 611 1177 q 540 1157 560 1177 q 513 1102 519 1136 z "},"Ợ":{"ha":1112,"x_min":70,"x_max":1208,"o":"m 1080 1067 l 1208 1067 q 1139 886 1190 957 q 1002 787 1088 814 q 1030 653 1024 727 q 1021 493 1035 580 q 916 219 994 333 q 726 46 838 106 q 484 -14 614 -14 q 252 49 349 -14 q 112 231 155 112 q 97 515 70 350 q 201 790 123 676 q 392 964 280 904 q 636 1024 505 1024 q 952 881 844 1024 q 1036 941 1007 893 q 1080 1067 1066 989 m 841 515 q 808 772 869 684 q 628 860 748 860 q 470 817 543 860 q 346 692 397 774 q 277 493 296 611 q 310 237 248 324 q 490 150 372 150 q 648 193 576 150 q 771 317 720 235 q 841 515 822 398 m 444 -269 q 373 -240 401 -269 q 348 -172 345 -212 q 385 -103 352 -132 q 460 -75 417 -75 q 530 -103 503 -75 q 555 -172 558 -132 q 519 -240 552 -212 q 444 -269 486 -269 z "},"Ǿ":{"ha":1078,"x_min":74,"x_max":1044,"o":"m 209 -46 l 125 15 l 189 101 q 100 273 126 169 q 97 514 74 378 q 201 789 123 675 q 392 963 280 903 q 636 1023 505 1023 q 847 972 757 1023 l 910 1054 l 994 993 l 929 907 q 1018 734 992 838 q 1021 492 1044 629 q 916 218 994 332 q 726 45 838 105 q 484 -15 614 -15 q 272 36 363 -15 l 209 -46 m 302 250 l 742 832 q 628 859 694 859 q 470 816 543 859 q 346 691 397 773 q 277 492 296 610 q 271 353 264 414 q 302 250 278 292 m 841 514 q 847 653 854 592 q 816 758 840 714 l 377 176 q 490 149 425 149 q 648 192 576 149 q 771 316 720 234 q 841 514 822 397 m 590 1109 l 738 1334 l 912 1334 l 724 1109 l 590 1109 z "},"Ο":{"ha":1076,"x_min":70,"x_max":1049,"o":"m 1021 493 q 916 219 994 333 q 726 46 838 106 q 484 -14 614 -14 q 252 49 349 -14 q 112 231 155 112 q 97 515 70 350 q 201 790 123 676 q 392 964 280 904 q 636 1024 505 1024 q 867 961 770 1024 q 1006 778 963 897 q 1021 493 1049 659 m 841 515 q 808 772 869 684 q 628 860 748 860 q 470 817 543 860 q 346 692 397 774 q 277 493 296 611 q 310 237 248 324 q 490 150 372 150 q 648 193 576 150 q 771 317 720 235 q 841 515 822 398 z "},"Ό":{"ha":1117,"x_min":65,"x_max":1112,"o":"m 1085 493 q 980 219 1058 333 q 790 46 902 106 q 548 -14 678 -14 q 315 49 412 -14 q 176 231 218 112 q 160 515 133 350 q 265 790 187 676 q 456 964 343 904 q 699 1024 569 1024 q 930 961 834 1024 q 1070 778 1027 897 q 1085 493 1112 659 m 905 515 q 872 772 932 684 q 692 860 811 860 q 534 817 607 860 q 410 692 461 774 q 341 493 360 611 q 374 237 312 324 q 554 150 436 150 q 711 193 639 150 q 835 317 784 235 q 905 515 885 398 m 65 846 l 150 1080 l 317 1080 l 175 846 l 65 846 z "},"Ὀ":{"ha":1146,"x_min":63,"x_max":1141,"o":"m 1113 493 q 1008 219 1087 333 q 818 46 930 106 q 577 -14 706 -14 q 344 49 441 -14 q 204 231 247 112 q 189 515 162 350 q 294 790 216 676 q 485 964 372 904 q 728 1024 597 1024 q 959 961 863 1024 q 1098 778 1055 897 q 1113 493 1141 659 m 933 515 q 900 772 961 684 q 721 860 840 860 q 562 817 635 860 q 439 692 489 774 q 369 493 388 611 q 402 237 340 324 q 582 150 464 150 q 740 193 668 150 q 863 317 812 235 q 933 515 914 398 m 268 1010 l 259 948 q 208 839 249 886 q 111 765 168 792 l 63 820 q 115 877 98 845 q 140 952 133 909 l 148 1010 l 268 1010 z "},"Ὁ":{"ha":1195,"x_min":141,"x_max":1192,"o":"m 1164 493 q 1059 219 1137 333 q 869 46 981 106 q 627 -14 757 -14 q 395 49 492 -14 q 255 231 298 112 q 240 515 213 350 q 345 790 266 676 q 535 964 423 904 q 779 1024 648 1024 q 1010 961 913 1024 q 1149 778 1106 897 q 1164 493 1192 659 m 984 515 q 951 772 1012 684 q 771 860 891 860 q 613 817 686 860 q 490 692 540 774 q 420 493 439 611 q 453 237 391 324 q 633 150 515 150 q 791 193 719 150 q 914 317 863 235 q 984 515 965 398 m 150 948 l 161 1010 l 281 1010 l 272 952 q 272 879 265 912 q 304 820 278 845 l 237 765 q 165 839 189 792 q 150 948 141 886 z "},"Ὂ":{"ha":1394,"x_min":64,"x_max":1389,"o":"m 1361 493 q 1256 219 1335 333 q 1066 46 1178 106 q 825 -14 954 -14 q 592 49 689 -14 q 453 231 495 112 q 437 515 410 350 q 542 790 464 676 q 733 964 620 904 q 976 1024 845 1024 q 1207 961 1111 1024 q 1346 778 1304 897 q 1361 493 1389 659 m 1181 515 q 1148 772 1209 684 q 969 860 1088 860 q 810 817 883 860 q 687 692 737 774 q 618 493 636 611 q 650 237 588 324 q 831 150 712 150 q 988 193 916 150 q 1111 317 1060 235 q 1181 515 1162 398 m 279 1010 l 271 955 q 218 847 260 896 q 111 765 177 798 l 64 807 q 118 874 97 838 q 145 959 138 911 l 153 1010 l 279 1010 m 498 791 l 496 781 l 432 781 l 308 996 l 310 1010 l 455 1010 l 498 791 z "},"Ὃ":{"ha":1347,"x_min":75,"x_max":1342,"o":"m 1314 493 q 1210 219 1288 333 q 1019 46 1131 106 q 778 -14 908 -14 q 545 49 642 -14 q 406 231 448 112 q 390 515 363 350 q 495 790 417 676 q 686 964 573 904 q 929 1024 799 1024 q 1160 961 1064 1024 q 1299 778 1257 897 q 1314 493 1342 659 m 1134 515 q 1102 772 1162 684 q 922 860 1041 860 q 763 817 836 860 q 640 692 690 774 q 571 493 589 611 q 603 237 542 324 q 784 150 665 150 q 941 193 869 150 q 1064 317 1014 235 q 1134 515 1115 398 m 85 948 l 95 1010 l 217 1010 l 208 952 q 206 879 200 912 q 240 820 212 845 l 174 765 q 100 839 124 792 q 85 948 75 886 m 457 794 l 455 780 l 390 780 l 267 996 l 269 1010 l 416 1010 l 457 794 z "},"Ὄ":{"ha":1294,"x_min":66,"x_max":1289,"o":"m 1262 493 q 1157 219 1235 333 q 967 46 1079 106 q 725 -14 855 -14 q 492 49 589 -14 q 353 231 396 112 q 337 515 310 350 q 442 790 364 676 q 633 964 520 904 q 876 1024 746 1024 q 1108 961 1011 1024 q 1247 778 1204 897 q 1262 493 1289 659 m 1082 515 q 1049 772 1109 684 q 869 860 988 860 q 711 817 784 860 q 587 692 638 774 q 518 493 537 611 q 551 237 489 324 q 731 150 613 150 q 889 193 816 150 q 1012 317 961 235 q 1082 515 1062 398 m 273 1010 l 262 948 q 211 840 253 887 q 112 765 170 792 l 66 820 q 117 879 100 845 q 142 952 134 912 l 151 1010 l 273 1010 m 252 780 l 254 794 l 368 1010 l 513 1010 l 511 996 l 317 780 l 252 780 z "},"Ὅ":{"ha":1311,"x_min":75,"x_max":1306,"o":"m 1278 493 q 1174 219 1252 333 q 983 46 1095 106 q 742 -14 872 -14 q 509 49 606 -14 q 370 231 412 112 q 354 515 327 350 q 459 790 381 676 q 650 964 537 904 q 893 1024 763 1024 q 1124 961 1028 1024 q 1263 778 1221 897 q 1278 493 1306 659 m 1098 515 q 1066 772 1126 684 q 886 860 1005 860 q 727 817 800 860 q 604 692 654 774 q 535 493 553 611 q 567 237 506 324 q 748 150 629 150 q 905 193 833 150 q 1028 317 978 235 q 1098 515 1079 398 m 172 765 q 101 838 126 792 q 85 948 75 885 l 96 1010 l 217 1010 l 207 952 q 207 877 200 909 q 239 820 214 845 l 172 765 m 267 780 l 269 794 l 380 1010 l 527 1010 l 525 996 l 330 780 l 267 780 z "},"Ὸ":{"ha":1197,"x_min":97,"x_max":1192,"o":"m 1164 493 q 1060 219 1138 333 q 870 46 981 106 q 628 -14 758 -14 q 395 49 492 -14 q 256 231 298 112 q 240 515 213 350 q 345 790 267 676 q 536 964 423 904 q 779 1024 649 1024 q 1010 961 914 1024 q 1149 778 1107 897 q 1164 493 1192 659 m 984 515 q 952 772 1012 684 q 772 860 891 860 q 614 817 687 860 q 490 692 541 774 q 421 493 439 611 q 454 237 392 324 q 634 150 515 150 q 791 193 719 150 q 914 317 864 235 q 984 515 965 398 m 220 779 l 97 996 l 97 1010 l 244 1010 l 286 796 l 286 779 l 220 779 z "},"ϴ":{"ha":1076,"x_min":70,"x_max":1049,"o":"m 1021 493 q 916 219 994 333 q 726 46 838 106 q 484 -14 614 -14 q 252 49 349 -14 q 112 231 155 112 q 97 515 70 350 q 201 790 123 676 q 392 964 280 904 q 636 1024 505 1024 q 867 961 770 1024 q 1006 778 963 897 q 1021 493 1049 659 m 490 150 q 694 225 604 150 q 824 441 784 300 l 270 441 q 320 224 258 297 q 490 150 381 150 m 847 569 q 798 786 859 712 q 628 860 737 860 q 424 784 514 860 q 294 569 334 709 l 847 569 z "},"Ό":{"ha":1097,"x_min":111,"x_max":1090,"o":"m 1062 493 q 958 219 1036 333 q 767 46 879 106 q 526 -14 655 -14 q 293 49 390 -14 q 154 231 196 112 q 138 515 111 350 q 243 790 165 676 q 434 964 321 904 q 677 1024 546 1024 q 908 961 812 1024 q 1047 778 1005 897 q 1062 493 1090 659 m 882 515 q 850 772 910 684 q 670 860 789 860 q 511 817 584 860 q 388 692 438 774 q 319 493 337 611 q 351 237 290 324 q 532 150 413 150 q 689 193 617 150 q 812 317 762 235 q 882 515 863 398 m 121 852 l 124 869 l 237 1083 l 410 1083 l 408 1069 l 212 852 l 121 852 z "},"О":{"ha":1076,"x_min":70,"x_max":1049,"o":"m 1021 493 q 916 219 994 333 q 726 46 838 106 q 484 -14 614 -14 q 252 49 349 -14 q 112 231 155 112 q 97 515 70 350 q 201 790 123 676 q 392 964 280 904 q 636 1024 505 1024 q 867 961 770 1024 q 1006 778 963 897 q 1021 493 1049 659 m 841 515 q 808 772 869 684 q 628 860 748 860 q 470 817 543 860 q 346 692 397 774 q 277 493 296 611 q 310 237 248 324 q 490 150 372 150 q 648 193 576 150 q 771 317 720 235 q 841 515 822 398 z "},"Ӧ":{"ha":1076,"x_min":70,"x_max":1049,"o":"m 1021 493 q 916 219 994 333 q 726 46 838 106 q 484 -14 614 -14 q 252 49 349 -14 q 112 231 155 112 q 97 515 70 350 q 201 790 123 676 q 392 964 280 904 q 636 1024 505 1024 q 867 961 770 1024 q 1006 778 963 897 q 1021 493 1049 659 m 841 515 q 808 772 869 684 q 628 860 748 860 q 470 817 543 860 q 346 692 397 774 q 277 493 296 611 q 310 237 248 324 q 490 150 372 150 q 648 193 576 150 q 771 317 720 235 q 841 515 822 398 m 819 1122 q 751 1152 777 1122 q 731 1226 724 1183 q 766 1284 737 1261 q 830 1308 795 1308 q 899 1277 873 1308 q 918 1203 925 1247 q 885 1146 913 1170 q 819 1122 856 1122 m 523 1122 q 455 1153 481 1122 q 435 1226 429 1184 q 470 1284 440 1261 q 534 1308 499 1308 q 603 1277 578 1308 q 622 1203 629 1247 q 589 1146 617 1170 q 523 1122 560 1122 z "},"Ɵ":{"ha":1076,"x_min":70,"x_max":1049,"o":"m 1021 493 q 916 219 994 333 q 726 46 838 106 q 484 -14 614 -14 q 252 49 349 -14 q 112 231 155 112 q 97 515 70 350 q 201 790 123 676 q 392 964 280 904 q 636 1024 505 1024 q 867 961 770 1024 q 1006 778 963 897 q 1021 493 1049 659 m 490 150 q 694 225 604 150 q 824 441 784 300 l 270 441 q 320 224 258 297 q 490 150 381 150 m 847 569 q 798 786 859 712 q 628 860 737 860 q 424 784 514 860 q 294 569 334 709 l 847 569 z "},"Ө":{"ha":1076,"x_min":70,"x_max":1049,"o":"m 1021 493 q 916 219 994 333 q 726 46 838 106 q 484 -14 614 -14 q 252 49 349 -14 q 112 231 155 112 q 97 515 70 350 q 201 790 123 676 q 392 964 280 904 q 636 1024 505 1024 q 867 961 770 1024 q 1006 778 963 897 q 1021 493 1049 659 m 490 150 q 694 225 604 150 q 824 441 784 300 l 270 441 q 320 224 258 297 q 490 150 381 150 m 847 569 q 798 786 859 712 q 628 860 737 860 q 424 784 514 860 q 294 569 334 709 l 847 569 z "},"Ӫ":{"ha":1076,"x_min":70,"x_max":1049,"o":"m 1021 493 q 916 219 994 333 q 726 46 838 106 q 484 -14 614 -14 q 252 49 349 -14 q 112 231 155 112 q 97 515 70 350 q 201 790 123 676 q 392 964 280 904 q 636 1024 505 1024 q 867 961 770 1024 q 1006 778 963 897 q 1021 493 1049 659 m 490 150 q 694 225 604 150 q 824 441 784 300 l 270 441 q 320 224 258 297 q 490 150 381 150 m 847 569 q 798 786 859 712 q 628 860 737 860 q 424 784 514 860 q 294 569 334 709 l 847 569 m 819 1122 q 751 1152 777 1122 q 731 1226 724 1183 q 766 1284 737 1261 q 830 1308 795 1308 q 899 1277 873 1308 q 918 1203 925 1247 q 885 1146 913 1170 q 819 1122 856 1122 m 523 1122 q 455 1153 481 1122 q 435 1226 429 1184 q 470 1284 440 1261 q 534 1308 499 1308 q 603 1277 578 1308 q 622 1203 629 1247 q 589 1146 617 1170 q 523 1122 560 1122 z "},"Œ":{"ha":1384,"x_min":69,"x_max":1401,"o":"m 465 0 q 241 60 333 0 q 108 232 148 119 q 95 504 69 345 q 198 778 121 664 q 388 950 275 891 q 633 1010 501 1010 l 1401 1010 l 1375 857 l 901 857 l 856 582 l 1296 582 l 1270 429 l 830 429 l 785 153 l 1263 153 l 1237 0 l 465 0 m 602 153 l 718 857 l 607 857 q 396 767 486 857 q 277 504 306 678 q 310 242 249 331 q 492 153 371 153 l 602 153 z "},"P":{"ha":893,"x_min":36,"x_max":900,"o":"m 36 0 l 204 1010 l 583 1010 q 771 967 699 1010 q 872 848 843 923 q 883 676 900 772 q 814 503 868 579 q 673 384 761 428 q 469 341 586 341 l 276 341 l 219 0 l 36 0 m 301 492 l 470 492 q 628 544 572 492 q 697 676 684 595 q 671 807 710 757 q 530 857 633 857 l 362 857 l 301 492 z "},"Ṕ":{"ha":893,"x_min":36,"x_max":900,"o":"m 36 0 l 204 1010 l 583 1010 q 771 967 699 1010 q 872 848 843 923 q 883 676 900 772 q 814 503 868 579 q 673 384 761 428 q 469 341 586 341 l 276 341 l 219 0 l 36 0 m 301 492 l 470 492 q 628 544 572 492 q 697 676 684 595 q 671 807 710 757 q 530 857 633 857 l 362 857 l 301 492 m 496 1110 l 643 1335 l 818 1335 l 629 1110 l 496 1110 z "},"Ṗ":{"ha":893,"x_min":36,"x_max":900,"o":"m 36 0 l 204 1010 l 583 1010 q 771 967 699 1010 q 872 848 843 923 q 883 676 900 772 q 814 503 868 579 q 673 384 761 428 q 469 341 586 341 l 276 341 l 219 0 l 36 0 m 301 492 l 470 492 q 628 544 572 492 q 697 676 684 595 q 671 807 710 757 q 530 857 633 857 l 362 857 l 301 492 m 573 1118 q 502 1146 531 1118 q 477 1214 474 1174 q 514 1283 481 1255 q 589 1311 546 1311 q 660 1283 632 1311 q 684 1214 688 1255 q 648 1146 681 1174 q 573 1118 616 1118 z "},"Ҏ":{"ha":905,"x_min":39,"x_max":902,"o":"m 39 0 l 207 1010 l 585 1010 q 774 967 702 1010 q 874 848 846 923 q 886 676 902 772 q 827 519 872 589 q 711 404 783 448 l 771 297 l 677 238 l 609 360 q 472 341 545 341 l 279 341 l 222 0 l 39 0 m 568 658 l 632 545 q 699 676 686 593 q 674 807 712 757 q 532 857 635 857 l 364 857 l 304 492 l 472 492 q 531 497 504 492 l 473 601 l 568 658 z "},"Ƥ":{"ha":1155,"x_min":106,"x_max":1161,"o":"m 271 681 l 106 681 l 120 769 q 217 944 137 877 q 419 1010 297 1010 l 844 1010 q 1032 967 960 1010 q 1132 848 1104 923 q 1144 676 1161 772 q 1075 503 1128 579 q 934 384 1021 428 q 730 341 847 341 l 537 341 l 480 0 l 297 0 l 440 857 l 396 857 q 331 839 355 857 q 296 792 308 821 q 279 733 284 763 l 271 681 m 562 492 l 730 492 q 889 544 833 492 q 958 676 945 595 q 932 807 971 757 q 791 857 894 857 l 623 857 l 562 492 z "},"Ρ":{"ha":893,"x_min":36,"x_max":900,"o":"m 36 0 l 204 1010 l 583 1010 q 771 967 699 1010 q 872 848 843 923 q 883 676 900 772 q 814 503 868 579 q 673 384 761 428 q 469 341 586 341 l 276 341 l 219 0 l 36 0 m 301 492 l 470 492 q 628 544 572 492 q 697 676 684 595 q 671 807 710 757 q 530 857 633 857 l 362 857 l 301 492 z "},"Ῥ":{"ha":1096,"x_min":152,"x_max":1092,"o":"m 229 0 l 397 1010 l 775 1010 q 964 967 892 1010 q 1064 848 1036 923 q 1076 676 1092 772 q 1006 503 1060 579 q 866 384 953 428 q 661 341 779 341 l 469 341 l 412 0 l 229 0 m 494 492 l 662 492 q 820 544 764 492 q 889 676 876 595 q 864 807 902 757 q 722 857 825 857 l 554 857 l 494 492 m 162 948 l 173 1010 l 293 1010 l 284 952 q 283 879 277 912 q 316 820 290 845 l 249 765 q 177 839 201 792 q 162 948 152 886 z "},"Q":{"ha":1088,"x_min":70,"x_max":1049,"o":"m 1021 493 q 942 263 999 363 q 804 98 885 163 l 937 -87 l 759 -87 l 679 24 q 484 -14 586 -14 q 252 49 349 -14 q 112 231 155 112 q 97 515 70 350 q 201 790 123 676 q 392 964 280 904 q 636 1024 505 1024 q 867 961 770 1024 q 1006 778 963 897 q 1021 493 1049 659 m 465 339 l 630 339 l 705 236 q 790 352 755 282 q 841 515 826 423 q 808 772 869 684 q 628 860 748 860 q 470 817 543 860 q 346 692 397 774 q 277 493 296 611 q 310 237 248 324 q 490 150 372 150 q 586 165 540 150 l 465 339 z "},"R":{"ha":909,"x_min":36,"x_max":909,"o":"m 36 0 l 204 1010 l 583 1010 q 833 921 757 1010 q 885 687 909 833 q 810 510 869 584 q 656 400 751 436 l 808 0 l 604 0 l 467 370 l 281 370 l 219 0 l 36 0 m 306 522 l 475 522 q 632 564 577 522 q 699 687 686 607 q 672 813 712 768 q 530 857 632 857 l 362 857 l 306 522 z "},"Ŕ":{"ha":909,"x_min":36,"x_max":909,"o":"m 36 0 l 204 1010 l 583 1010 q 833 921 757 1010 q 885 687 909 833 q 810 510 869 584 q 656 400 751 436 l 808 0 l 604 0 l 467 370 l 281 370 l 219 0 l 36 0 m 306 522 l 475 522 q 632 564 577 522 q 699 687 686 607 q 672 813 712 768 q 530 857 632 857 l 362 857 l 306 522 m 499 1110 l 647 1335 l 821 1335 l 632 1110 l 499 1110 z "},"Ŗ":{"ha":909,"x_min":36,"x_max":909,"o":"m 36 0 l 204 1010 l 583 1010 q 833 921 757 1010 q 885 687 909 833 q 810 510 869 584 q 656 400 751 436 l 808 0 l 604 0 l 467 370 l 281 370 l 219 0 l 36 0 m 306 522 l 475 522 q 632 564 577 522 q 699 687 686 607 q 672 813 712 768 q 530 857 632 857 l 362 857 l 306 522 m 202 -327 l 303 -80 l 472 -80 l 331 -327 l 202 -327 z "},"Ř":{"ha":909,"x_min":36,"x_max":909,"o":"m 36 0 l 204 1010 l 583 1010 q 833 921 757 1010 q 885 687 909 833 q 810 510 869 584 q 656 400 751 436 l 808 0 l 604 0 l 467 370 l 281 370 l 219 0 l 36 0 m 306 522 l 475 522 q 632 564 577 522 q 699 687 686 607 q 672 813 712 768 q 530 857 632 857 l 362 857 l 306 522 m 502 1321 l 581 1195 l 702 1321 l 859 1321 l 858 1314 l 636 1101 l 497 1101 l 345 1314 l 346 1321 l 502 1321 z "},"Ȑ":{"ha":909,"x_min":36,"x_max":909,"o":"m 36 0 l 204 1010 l 583 1010 q 833 921 757 1010 q 885 687 909 833 q 810 510 869 584 q 656 400 751 436 l 808 0 l 604 0 l 467 370 l 281 370 l 219 0 l 36 0 m 306 522 l 475 522 q 632 564 577 522 q 699 687 686 607 q 672 813 712 768 q 530 857 632 857 l 362 857 l 306 522 m 692 1110 l 573 1247 l 638 1335 l 748 1198 l 692 1110 m 462 1110 l 315 1247 l 358 1335 l 501 1198 l 462 1110 z "},"Ȓ":{"ha":909,"x_min":36,"x_max":909,"o":"m 36 0 l 204 1010 l 583 1010 q 833 921 757 1010 q 885 687 909 833 q 810 510 869 584 q 656 400 751 436 l 808 0 l 604 0 l 467 370 l 281 370 l 219 0 l 36 0 m 306 522 l 475 522 q 632 564 577 522 q 699 687 686 607 q 672 813 712 768 q 530 857 632 857 l 362 857 l 306 522 m 341 1133 q 426 1275 355 1220 q 604 1331 497 1331 q 763 1275 710 1331 q 802 1133 817 1220 l 669 1133 q 656 1197 674 1169 q 587 1225 639 1225 q 506 1197 533 1225 q 474 1133 479 1168 l 341 1133 z "},"Ṙ":{"ha":909,"x_min":36,"x_max":909,"o":"m 36 0 l 204 1010 l 583 1010 q 833 921 757 1010 q 885 687 909 833 q 810 510 869 584 q 656 400 751 436 l 808 0 l 604 0 l 467 370 l 281 370 l 219 0 l 36 0 m 306 522 l 475 522 q 632 564 577 522 q 699 687 686 607 q 672 813 712 768 q 530 857 632 857 l 362 857 l 306 522 m 577 1118 q 506 1146 534 1118 q 481 1214 477 1174 q 517 1283 485 1255 q 593 1311 550 1311 q 663 1283 635 1311 q 688 1214 691 1255 q 652 1146 685 1174 q 577 1118 619 1118 z "},"Ṛ":{"ha":909,"x_min":36,"x_max":909,"o":"m 36 0 l 204 1010 l 583 1010 q 833 921 757 1010 q 885 687 909 833 q 810 510 869 584 q 656 400 751 436 l 808 0 l 604 0 l 467 370 l 281 370 l 219 0 l 36 0 m 306 522 l 475 522 q 632 564 577 522 q 699 687 686 607 q 672 813 712 768 q 530 857 632 857 l 362 857 l 306 522 m 363 -271 q 293 -243 321 -271 q 268 -175 264 -215 q 304 -106 272 -134 q 380 -77 337 -77 q 450 -106 422 -77 q 474 -175 478 -134 q 439 -243 472 -215 q 363 -271 406 -271 z "},"Ṝ":{"ha":909,"x_min":36,"x_max":909,"o":"m 36 0 l 204 1010 l 583 1010 q 833 921 757 1010 q 885 687 909 833 q 810 510 869 584 q 656 400 751 436 l 808 0 l 604 0 l 467 370 l 281 370 l 219 0 l 36 0 m 306 522 l 475 522 q 632 564 577 522 q 699 687 686 607 q 672 813 712 768 q 530 857 632 857 l 362 857 l 306 522 m 363 -271 q 293 -243 321 -271 q 268 -175 264 -215 q 304 -106 272 -134 q 380 -77 337 -77 q 450 -106 422 -77 q 474 -175 478 -134 q 439 -243 472 -215 q 363 -271 406 -271 m 831 1263 l 813 1154 l 338 1154 l 355 1263 l 831 1263 z "},"Ṟ":{"ha":909,"x_min":36,"x_max":909,"o":"m 36 0 l 204 1010 l 583 1010 q 833 921 757 1010 q 885 687 909 833 q 810 510 869 584 q 656 400 751 436 l 808 0 l 604 0 l 467 370 l 281 370 l 219 0 l 36 0 m 306 522 l 475 522 q 632 564 577 522 q 699 687 686 607 q 672 813 712 768 q 530 857 632 857 l 362 857 l 306 522 m 617 -125 l 599 -234 l 124 -234 l 141 -125 l 617 -125 z "},"℟":{"ha":899,"x_min":39,"x_max":907,"o":"m 785 1149 l 722 991 q 865 880 823 960 q 888 687 907 800 q 812 510 871 584 q 658 400 754 436 l 811 0 l 607 0 l 470 369 l 222 -245 l 146 -232 l 391 370 l 284 370 l 222 0 l 39 0 l 207 1010 l 585 1010 q 649 1007 619 1010 l 686 1098 l 479 1153 l 515 1226 l 785 1149 m 452 522 l 587 853 q 532 857 562 857 l 364 857 l 309 522 l 452 522 m 655 828 l 533 526 q 649 577 608 536 q 701 687 690 618 q 655 828 717 787 z "},"℞":{"ha":1025,"x_min":36,"x_max":960,"o":"m 204 1010 l 576 1010 q 771 970 698 1010 q 871 860 844 930 q 883 697 899 790 q 808 525 866 594 q 666 418 750 456 l 713 335 l 818 453 l 960 453 l 768 236 l 903 0 l 732 0 l 665 119 l 559 0 l 412 0 l 609 220 l 519 381 l 283 381 l 219 0 l 36 0 l 204 1010 m 308 535 l 491 535 q 639 577 588 535 q 702 694 690 619 q 680 809 713 762 q 550 857 648 857 l 362 857 l 308 535 z "},"Ɍ":{"ha":914,"x_min":14,"x_max":928,"o":"m 55 0 l 118 380 l 14 380 l 37 523 l 142 523 l 222 1010 l 601 1010 q 852 921 775 1010 q 904 687 928 833 q 828 510 887 584 q 674 400 769 436 l 827 0 l 622 0 l 485 370 l 299 370 l 238 0 l 55 0 m 325 522 l 494 522 q 650 564 595 522 q 717 687 704 607 q 690 813 730 768 q 548 857 650 857 l 380 857 l 325 522 z "},"S":{"ha":902,"x_min":30,"x_max":894,"o":"m 706 727 q 664 833 708 796 q 539 869 621 869 q 399 832 453 869 q 335 737 345 795 q 349 668 327 695 q 407 625 370 641 q 484 598 444 608 l 575 575 q 709 522 647 557 q 804 429 771 487 q 822 284 837 371 q 751 127 807 195 q 603 22 694 60 q 390 -15 511 -15 q 122 66 214 -15 q 50 298 30 148 l 230 298 q 275 180 222 219 q 414 141 329 141 q 566 181 504 141 q 639 285 629 220 q 604 374 650 344 q 480 425 559 404 l 371 455 q 191 552 252 487 q 147 726 129 618 q 222 883 162 816 q 371 987 281 949 q 567 1024 461 1024 q 749 986 675 1024 q 859 882 824 949 q 882 727 894 815 l 706 727 z "},"Ś":{"ha":902,"x_min":30,"x_max":894,"o":"m 706 727 q 664 833 708 796 q 539 869 621 869 q 399 832 453 869 q 335 737 345 795 q 349 668 327 695 q 407 625 370 641 q 484 598 444 608 l 575 575 q 709 522 647 557 q 804 429 771 487 q 822 284 837 371 q 751 127 807 195 q 603 22 694 60 q 390 -15 511 -15 q 122 66 214 -15 q 50 298 30 148 l 230 298 q 275 180 222 219 q 414 141 329 141 q 566 181 504 141 q 639 285 629 220 q 604 374 650 344 q 480 425 559 404 l 371 455 q 191 552 252 487 q 147 726 129 618 q 222 883 162 816 q 371 987 281 949 q 567 1024 461 1024 q 749 986 675 1024 q 859 882 824 949 q 882 727 894 815 l 706 727 m 504 1110 l 652 1335 l 826 1335 l 637 1110 l 504 1110 z "},"Ŝ":{"ha":902,"x_min":30,"x_max":894,"o":"m 706 727 q 664 833 708 796 q 539 869 621 869 q 399 832 453 869 q 335 737 345 795 q 349 668 327 695 q 407 625 370 641 q 484 598 444 608 l 575 575 q 709 522 647 557 q 804 429 771 487 q 822 284 837 371 q 751 127 807 195 q 603 22 694 60 q 390 -15 511 -15 q 122 66 214 -15 q 50 298 30 148 l 230 298 q 275 180 222 219 q 414 141 329 141 q 566 181 504 141 q 639 285 629 220 q 604 374 650 344 q 480 425 559 404 l 371 455 q 191 552 252 487 q 147 726 129 618 q 222 883 162 816 q 371 987 281 949 q 567 1024 461 1024 q 749 986 675 1024 q 859 882 824 949 q 882 727 894 815 l 706 727 m 470 1101 l 314 1101 l 315 1108 l 538 1321 l 678 1321 l 828 1108 l 827 1101 l 671 1101 l 592 1227 l 470 1101 z "},"Ş":{"ha":902,"x_min":30,"x_max":894,"o":"m 706 727 q 664 833 708 796 q 539 869 621 869 q 399 832 453 869 q 335 737 345 795 q 349 668 327 695 q 407 625 370 641 q 484 598 444 608 l 575 575 q 709 522 647 557 q 804 429 771 487 q 822 284 837 371 q 751 127 807 195 q 603 22 694 60 q 390 -15 511 -15 q 122 66 214 -15 q 50 298 30 148 l 230 298 q 275 180 222 219 q 414 141 329 141 q 566 181 504 141 q 639 285 629 220 q 604 374 650 344 q 480 425 559 404 l 371 455 q 191 552 252 487 q 147 726 129 618 q 222 883 162 816 q 371 987 281 949 q 567 1024 461 1024 q 749 986 675 1024 q 859 882 824 949 q 882 727 894 815 l 706 727 m 343 4 l 439 4 l 424 -38 q 497 -74 469 -45 q 514 -157 524 -103 q 434 -269 504 -227 q 247 -312 363 -312 l 259 -224 q 352 -209 316 -224 q 394 -161 388 -193 q 378 -115 400 -130 q 304 -95 356 -101 l 343 4 z "},"Š":{"ha":902,"x_min":30,"x_max":894,"o":"m 706 727 q 664 833 708 796 q 539 869 621 869 q 399 832 453 869 q 335 737 345 795 q 349 668 327 695 q 407 625 370 641 q 484 598 444 608 l 575 575 q 709 522 647 557 q 804 429 771 487 q 822 284 837 371 q 751 127 807 195 q 603 22 694 60 q 390 -15 511 -15 q 122 66 214 -15 q 50 298 30 148 l 230 298 q 275 180 222 219 q 414 141 329 141 q 566 181 504 141 q 639 285 629 220 q 604 374 650 344 q 480 425 559 404 l 371 455 q 191 552 252 487 q 147 726 129 618 q 222 883 162 816 q 371 987 281 949 q 567 1024 461 1024 q 749 986 675 1024 q 859 882 824 949 q 882 727 894 815 l 706 727 m 506 1321 l 586 1195 l 707 1321 l 863 1321 l 862 1314 l 641 1101 l 501 1101 l 349 1314 l 350 1321 l 506 1321 z "},"Ș":{"ha":902,"x_min":30,"x_max":894,"o":"m 706 727 q 664 833 708 796 q 539 869 621 869 q 399 832 453 869 q 335 737 345 795 q 349 668 327 695 q 407 625 370 641 q 484 598 444 608 l 575 575 q 709 522 647 557 q 804 429 771 487 q 822 284 837 371 q 751 127 807 195 q 603 22 694 60 q 390 -15 511 -15 q 122 66 214 -15 q 50 298 30 148 l 230 298 q 275 180 222 219 q 414 141 329 141 q 566 181 504 141 q 639 285 629 220 q 604 374 650 344 q 480 425 559 404 l 371 455 q 191 552 252 487 q 147 726 129 618 q 222 883 162 816 q 371 987 281 949 q 567 1024 461 1024 q 749 986 675 1024 q 859 882 824 949 q 882 727 894 815 l 706 727 m 192 -338 l 292 -91 l 462 -91 l 321 -338 l 192 -338 z "},"Ṡ":{"ha":902,"x_min":30,"x_max":894,"o":"m 706 727 q 664 833 708 796 q 539 869 621 869 q 399 832 453 869 q 335 737 345 795 q 349 668 327 695 q 407 625 370 641 q 484 598 444 608 l 575 575 q 709 522 647 557 q 804 429 771 487 q 822 284 837 371 q 751 127 807 195 q 603 22 694 60 q 390 -15 511 -15 q 122 66 214 -15 q 50 298 30 148 l 230 298 q 275 180 222 219 q 414 141 329 141 q 566 181 504 141 q 639 285 629 220 q 604 374 650 344 q 480 425 559 404 l 371 455 q 191 552 252 487 q 147 726 129 618 q 222 883 162 816 q 371 987 281 949 q 567 1024 461 1024 q 749 986 675 1024 q 859 882 824 949 q 882 727 894 815 l 706 727 m 581 1118 q 511 1146 539 1118 q 486 1214 482 1174 q 522 1283 490 1255 q 598 1311 555 1311 q 668 1283 640 1311 q 692 1214 696 1255 q 657 1146 690 1174 q 581 1118 624 1118 z "},"Ṣ":{"ha":902,"x_min":30,"x_max":894,"o":"m 706 727 q 664 833 708 796 q 539 869 621 869 q 399 832 453 869 q 335 737 345 795 q 349 668 327 695 q 407 625 370 641 q 484 598 444 608 l 575 575 q 709 522 647 557 q 804 429 771 487 q 822 284 837 371 q 751 127 807 195 q 603 22 694 60 q 390 -15 511 -15 q 122 66 214 -15 q 50 298 30 148 l 230 298 q 275 180 222 219 q 414 141 329 141 q 566 181 504 141 q 639 285 629 220 q 604 374 650 344 q 480 425 559 404 l 371 455 q 191 552 252 487 q 147 726 129 618 q 222 883 162 816 q 371 987 281 949 q 567 1024 461 1024 q 749 986 675 1024 q 859 882 824 949 q 882 727 894 815 l 706 727 m 353 -282 q 282 -254 311 -282 q 257 -185 254 -225 q 294 -117 261 -145 q 369 -88 327 -88 q 440 -117 412 -88 q 464 -185 468 -145 q 428 -254 461 -225 q 353 -282 396 -282 z "},"Ṥ":{"ha":902,"x_min":30,"x_max":894,"o":"m 706 727 q 664 833 708 796 q 539 869 621 869 q 399 832 453 869 q 335 737 345 795 q 349 668 327 695 q 407 625 370 641 q 484 598 444 608 l 575 575 q 709 522 647 557 q 804 429 771 487 q 822 284 837 371 q 751 127 807 195 q 603 22 694 60 q 390 -15 511 -15 q 122 66 214 -15 q 50 298 30 148 l 230 298 q 275 180 222 219 q 414 141 329 141 q 566 181 504 141 q 639 285 629 220 q 604 374 650 344 q 480 425 559 404 l 371 455 q 191 552 252 487 q 147 726 129 618 q 222 883 162 816 q 371 987 281 949 q 567 1024 461 1024 q 749 986 675 1024 q 859 882 824 949 q 882 727 894 815 l 706 727 m 530 1114 l 656 1289 l 806 1289 l 639 1114 l 530 1114 m 397 1295 q 431 1351 403 1328 q 500 1374 460 1374 q 562 1351 543 1374 q 576 1295 582 1327 q 543 1239 571 1262 q 473 1216 515 1216 q 412 1240 432 1216 q 397 1295 392 1264 z "},"Ṧ":{"ha":902,"x_min":30,"x_max":894,"o":"m 706 727 q 664 833 708 796 q 539 869 621 869 q 399 832 453 869 q 335 737 345 795 q 349 668 327 695 q 407 625 370 641 q 484 598 444 608 l 575 575 q 709 522 647 557 q 804 429 771 487 q 822 284 837 371 q 751 127 807 195 q 603 22 694 60 q 390 -15 511 -15 q 122 66 214 -15 q 50 298 30 148 l 230 298 q 275 180 222 219 q 414 141 329 141 q 566 181 504 141 q 639 285 629 220 q 604 374 650 344 q 480 425 559 404 l 371 455 q 191 552 252 487 q 147 726 129 618 q 222 883 162 816 q 371 987 281 949 q 567 1024 461 1024 q 749 986 675 1024 q 859 882 824 949 q 882 727 894 815 l 706 727 m 508 1285 l 589 1205 l 695 1285 l 852 1285 l 850 1273 l 636 1120 l 514 1120 l 350 1273 l 351 1285 l 508 1285 m 531 1393 q 564 1450 536 1427 q 633 1472 592 1472 q 695 1449 675 1472 q 710 1393 715 1426 q 676 1338 704 1360 q 606 1316 648 1316 q 545 1338 566 1316 q 531 1393 525 1360 z "},"Ṩ":{"ha":902,"x_min":30,"x_max":894,"o":"m 706 727 q 664 833 708 796 q 539 869 621 869 q 399 832 453 869 q 335 737 345 795 q 349 668 327 695 q 407 625 370 641 q 484 598 444 608 l 575 575 q 709 522 647 557 q 804 429 771 487 q 822 284 837 371 q 751 127 807 195 q 603 22 694 60 q 390 -15 511 -15 q 122 66 214 -15 q 50 298 30 148 l 230 298 q 275 180 222 219 q 414 141 329 141 q 566 181 504 141 q 639 285 629 220 q 604 374 650 344 q 480 425 559 404 l 371 455 q 191 552 252 487 q 147 726 129 618 q 222 883 162 816 q 371 987 281 949 q 567 1024 461 1024 q 749 986 675 1024 q 859 882 824 949 q 882 727 894 815 l 706 727 m 353 -282 q 282 -254 311 -282 q 257 -185 254 -225 q 294 -117 261 -145 q 369 -88 327 -88 q 440 -117 412 -88 q 464 -185 468 -145 q 428 -254 461 -225 q 353 -282 396 -282 m 581 1118 q 511 1146 539 1118 q 486 1214 482 1174 q 522 1283 490 1255 q 598 1311 555 1311 q 668 1283 640 1311 q 692 1214 696 1255 q 657 1146 690 1174 q 581 1118 624 1118 z "},"Ѕ":{"ha":902,"x_min":30,"x_max":894,"o":"m 706 727 q 664 833 708 796 q 539 869 621 869 q 399 832 453 869 q 335 737 345 795 q 349 668 327 695 q 407 625 370 641 q 484 598 444 608 l 575 575 q 709 522 647 557 q 804 429 771 487 q 822 284 837 371 q 751 127 807 195 q 603 22 694 60 q 390 -15 511 -15 q 122 66 214 -15 q 50 298 30 148 l 230 298 q 275 180 222 219 q 414 141 329 141 q 566 181 504 141 q 639 285 629 220 q 604 374 650 344 q 480 425 559 404 l 371 455 q 191 552 252 487 q 147 726 129 618 q 222 883 162 816 q 371 987 281 949 q 567 1024 461 1024 q 749 986 675 1024 q 859 882 824 949 q 882 727 894 815 l 706 727 z "},"Ƨ":{"ha":901,"x_min":23,"x_max":881,"o":"m 308 727 l 132 727 q 206 882 149 815 q 350 986 263 949 q 545 1024 437 1024 q 729 987 651 1024 q 844 883 806 949 q 866 726 881 816 q 765 552 848 618 q 552 455 683 487 l 433 425 q 292 374 348 404 q 228 285 237 344 q 266 181 217 220 q 405 141 316 141 q 557 180 491 141 q 642 298 623 219 l 822 298 q 673 66 792 148 q 378 -15 554 -15 q 109 67 196 -15 q 44 284 23 150 q 111 429 59 371 q 237 522 163 487 q 389 575 310 557 l 487 598 q 573 625 530 608 q 646 668 616 641 q 682 737 676 695 q 649 832 691 795 q 521 869 607 869 q 384 833 440 869 q 308 727 329 796 z "},"ẞ":{"ha":980,"x_min":36,"x_max":928,"o":"m 36 0 l 148 667 q 281 930 176 836 q 547 1024 387 1024 q 757 976 658 1024 q 928 857 855 928 l 659 582 q 857 490 792 568 q 901 290 921 411 q 829 127 886 195 q 687 23 772 59 q 498 -14 601 -14 q 392 -4 446 -14 q 293 25 338 6 l 369 167 q 435 144 398 154 q 513 134 472 134 q 652 176 598 134 q 717 291 705 218 q 711 380 727 346 q 666 431 695 414 q 603 455 636 449 q 544 461 570 461 l 449 461 l 470 581 l 698 813 q 626 856 669 837 q 527 875 584 875 q 426 847 467 875 q 363 771 386 819 q 331 667 340 724 l 219 0 l 36 0 z "},"T":{"ha":916,"x_min":134,"x_max":966,"o":"m 134 857 l 160 1010 l 966 1010 l 940 857 l 628 857 l 486 0 l 304 0 l 446 857 l 134 857 z "},"Ţ":{"ha":916,"x_min":134,"x_max":966,"o":"m 134 857 l 160 1010 l 966 1010 l 940 857 l 628 857 l 486 0 l 304 0 l 446 857 l 134 857 m 354 4 l 450 4 l 435 -38 q 508 -74 480 -45 q 525 -157 535 -103 q 444 -269 514 -227 q 257 -312 374 -312 l 270 -224 q 363 -209 327 -224 q 405 -161 399 -193 q 389 -115 411 -130 q 315 -95 366 -101 l 354 4 z "},"Ť":{"ha":916,"x_min":134,"x_max":966,"o":"m 134 857 l 160 1010 l 966 1010 l 940 857 l 628 857 l 486 0 l 304 0 l 446 857 l 134 857 m 514 1321 l 594 1195 l 715 1321 l 871 1321 l 870 1314 l 649 1101 l 509 1101 l 357 1314 l 358 1321 l 514 1321 z "},"Ț":{"ha":916,"x_min":134,"x_max":966,"o":"m 134 857 l 160 1010 l 966 1010 l 940 857 l 628 857 l 486 0 l 304 0 l 446 857 l 134 857 m 197 -327 l 298 -80 l 468 -80 l 326 -327 l 197 -327 z "},"Ṫ":{"ha":916,"x_min":134,"x_max":966,"o":"m 134 857 l 160 1010 l 966 1010 l 940 857 l 628 857 l 486 0 l 304 0 l 446 857 l 134 857 m 589 1118 q 519 1146 547 1118 q 494 1214 490 1174 q 530 1283 498 1255 q 606 1311 563 1311 q 676 1283 648 1311 q 700 1214 704 1255 q 665 1146 697 1174 q 589 1118 632 1118 z "},"Ṭ":{"ha":916,"x_min":134,"x_max":966,"o":"m 134 857 l 160 1010 l 966 1010 l 940 857 l 628 857 l 486 0 l 304 0 l 446 857 l 134 857 m 359 -271 q 288 -243 316 -271 q 263 -175 259 -215 q 299 -106 267 -134 q 375 -77 332 -77 q 445 -106 417 -77 q 470 -175 473 -134 q 434 -243 467 -215 q 359 -271 401 -271 z "},"Ṯ":{"ha":916,"x_min":119,"x_max":966,"o":"m 134 857 l 160 1010 l 966 1010 l 940 857 l 628 857 l 486 0 l 304 0 l 446 857 l 134 857 m 612 -125 l 594 -234 l 119 -234 l 136 -125 l 612 -125 z "},"Ṱ":{"ha":916,"x_min":100,"x_max":966,"o":"m 134 857 l 160 1010 l 966 1010 l 940 857 l 628 857 l 486 0 l 304 0 l 446 857 l 134 857 m 256 -283 l 100 -283 l 101 -276 l 324 -63 l 464 -63 l 614 -276 l 613 -283 l 457 -283 l 378 -157 l 256 -283 z "},"Ƭ":{"ha":967,"x_min":106,"x_max":1016,"o":"m 1016 1010 l 990 857 l 678 857 l 536 0 l 355 0 l 497 857 l 386 857 q 302 819 328 857 q 269 737 276 782 l 260 686 l 106 686 l 120 770 q 214 945 138 880 q 411 1010 291 1010 l 1016 1010 z "},"Ʈ":{"ha":916,"x_min":134,"x_max":966,"o":"m 486 0 l 476 -58 q 499 -122 468 -107 q 574 -138 531 -138 l 615 -138 l 590 -284 l 503 -284 q 388 -264 441 -284 q 308 -195 335 -244 q 294 -58 280 -145 l 304 0 l 446 857 l 134 857 l 160 1010 l 966 1010 l 940 857 l 628 857 l 486 0 z "},"Ⱦ":{"ha":916,"x_min":115,"x_max":966,"o":"m 115 -128 l 366 372 l 446 857 l 134 857 l 160 1010 l 686 1010 l 750 1138 l 873 1138 l 809 1010 l 966 1010 l 940 857 l 732 857 l 576 545 l 486 0 l 304 0 l 305 3 l 239 -128 l 115 -128 z "},"Τ":{"ha":916,"x_min":134,"x_max":966,"o":"m 134 857 l 160 1010 l 966 1010 l 940 857 l 628 857 l 486 0 l 304 0 l 446 857 l 134 857 z "},"U":{"ha":1019,"x_min":77,"x_max":1024,"o":"m 841 1010 l 1024 1010 l 914 350 q 832 159 897 242 q 667 31 767 77 q 444 -15 567 -15 q 236 31 320 -15 q 114 159 151 77 q 95 350 77 242 l 204 1010 l 387 1010 l 280 365 q 316 209 265 271 q 472 148 367 148 q 647 209 576 148 q 734 365 719 271 l 841 1010 z "},"Ư":{"ha":1206,"x_min":77,"x_max":1263,"o":"m 1134 1054 l 1263 1054 q 1177 842 1241 921 q 980 747 1112 763 l 914 350 q 832 159 897 242 q 667 31 767 77 q 444 -15 567 -15 q 236 31 320 -15 q 114 159 151 77 q 95 350 77 242 l 204 1010 l 387 1010 l 280 365 q 316 209 265 271 q 472 148 367 148 q 647 209 576 148 q 734 365 719 271 l 841 1010 l 1024 1010 l 998 856 q 1094 923 1067 872 q 1134 1054 1121 974 z "},"Ù":{"ha":1019,"x_min":77,"x_max":1024,"o":"m 841 1010 l 1024 1010 l 914 350 q 832 159 897 242 q 667 31 767 77 q 444 -15 567 -15 q 236 31 320 -15 q 114 159 151 77 q 95 350 77 242 l 204 1010 l 387 1010 l 280 365 q 316 209 265 271 q 472 148 367 148 q 647 209 576 148 q 734 365 719 271 l 841 1010 m 565 1110 l 452 1335 l 626 1335 l 699 1110 l 565 1110 z "},"Ú":{"ha":1019,"x_min":77,"x_max":1024,"o":"m 841 1010 l 1024 1010 l 914 350 q 832 159 897 242 q 667 31 767 77 q 444 -15 567 -15 q 236 31 320 -15 q 114 159 151 77 q 95 350 77 242 l 204 1010 l 387 1010 l 280 365 q 316 209 265 271 q 472 148 367 148 q 647 209 576 148 q 734 365 719 271 l 841 1010 m 562 1110 l 709 1335 l 884 1335 l 695 1110 l 562 1110 z "},"Û":{"ha":1019,"x_min":77,"x_max":1024,"o":"m 841 1010 l 1024 1010 l 914 350 q 832 159 897 242 q 667 31 767 77 q 444 -15 567 -15 q 236 31 320 -15 q 114 159 151 77 q 95 350 77 242 l 204 1010 l 387 1010 l 280 365 q 316 209 265 271 q 472 148 367 148 q 647 209 576 148 q 734 365 719 271 l 841 1010 m 528 1101 l 372 1101 l 373 1108 l 596 1321 l 736 1321 l 886 1108 l 885 1101 l 729 1101 l 650 1227 l 528 1101 z "},"Ü":{"ha":1019,"x_min":77,"x_max":1024,"o":"m 841 1010 l 1024 1010 l 914 350 q 832 159 897 242 q 667 31 767 77 q 444 -15 567 -15 q 236 31 320 -15 q 114 159 151 77 q 95 350 77 242 l 204 1010 l 387 1010 l 280 365 q 316 209 265 271 q 472 148 367 148 q 647 209 576 148 q 734 365 719 271 l 841 1010 m 791 1122 q 722 1152 749 1122 q 702 1226 695 1183 q 738 1284 709 1261 q 801 1308 766 1308 q 871 1277 845 1308 q 889 1203 896 1247 q 856 1146 884 1170 q 791 1122 828 1122 m 495 1122 q 426 1153 453 1122 q 406 1226 400 1184 q 441 1284 412 1261 q 505 1308 471 1308 q 575 1277 549 1308 q 593 1203 600 1247 q 560 1146 588 1170 q 495 1122 532 1122 z "},"Ũ":{"ha":1019,"x_min":77,"x_max":1024,"o":"m 841 1010 l 1024 1010 l 914 350 q 832 159 897 242 q 667 31 767 77 q 444 -15 567 -15 q 236 31 320 -15 q 114 159 151 77 q 95 350 77 242 l 204 1010 l 387 1010 l 280 365 q 316 209 265 271 q 472 148 367 148 q 647 209 576 148 q 734 365 719 271 l 841 1010 m 485 1102 l 378 1105 q 446 1243 392 1193 q 565 1292 499 1292 q 634 1275 608 1292 q 682 1240 660 1257 q 735 1222 704 1222 q 784 1243 763 1222 q 809 1298 804 1265 l 914 1293 q 846 1156 899 1205 q 726 1107 792 1108 q 668 1118 690 1107 q 630 1142 646 1128 q 598 1167 615 1156 q 557 1177 582 1177 q 511 1157 531 1177 q 485 1102 491 1136 z "},"Ū":{"ha":1019,"x_min":77,"x_max":1024,"o":"m 841 1010 l 1024 1010 l 914 350 q 832 159 897 242 q 667 31 767 77 q 444 -15 567 -15 q 236 31 320 -15 q 114 159 151 77 q 95 350 77 242 l 204 1010 l 387 1010 l 280 365 q 316 209 265 271 q 472 148 367 148 q 647 209 576 148 q 734 365 719 271 l 841 1010 m 893 1263 l 875 1154 l 400 1154 l 417 1263 l 893 1263 z "},"Ŭ":{"ha":1019,"x_min":77,"x_max":1024,"o":"m 841 1010 l 1024 1010 l 914 350 q 832 159 897 242 q 667 31 767 77 q 444 -15 567 -15 q 236 31 320 -15 q 114 159 151 77 q 95 350 77 242 l 204 1010 l 387 1010 l 280 365 q 316 209 265 271 q 472 148 367 148 q 647 209 576 148 q 734 365 719 271 l 841 1010 m 754 1271 l 888 1271 q 802 1131 873 1184 q 624 1077 731 1077 q 466 1131 519 1077 q 427 1271 412 1184 l 560 1271 q 571 1207 553 1235 q 642 1179 589 1179 q 721 1207 694 1179 q 754 1271 748 1235 z "},"Ů":{"ha":1019,"x_min":77,"x_max":1024,"o":"m 841 1010 l 1024 1010 l 914 350 q 832 159 897 242 q 667 31 767 77 q 444 -15 567 -15 q 236 31 320 -15 q 114 159 151 77 q 95 350 77 242 l 204 1010 l 387 1010 l 280 365 q 316 209 265 271 q 472 148 367 148 q 647 209 576 148 q 734 365 719 271 l 841 1010 m 623 1068 q 518 1113 558 1068 q 488 1222 477 1159 q 522 1299 495 1264 q 588 1354 548 1334 q 673 1375 628 1375 q 781 1330 740 1375 q 810 1222 823 1286 q 746 1112 798 1156 q 623 1068 694 1068 m 637 1151 q 693 1172 667 1151 q 723 1222 720 1193 q 709 1273 727 1253 q 659 1293 692 1293 q 605 1271 630 1293 q 575 1222 581 1250 q 588 1171 570 1192 q 637 1151 606 1151 z "},"Ű":{"ha":1019,"x_min":77,"x_max":1024,"o":"m 841 1010 l 1024 1010 l 914 350 q 832 159 897 242 q 667 31 767 77 q 444 -15 567 -15 q 236 31 320 -15 q 114 159 151 77 q 95 350 77 242 l 204 1010 l 387 1010 l 280 365 q 316 209 265 271 q 472 148 367 148 q 647 209 576 148 q 734 365 719 271 l 841 1010 m 662 1096 l 852 1302 l 1014 1302 l 795 1096 l 662 1096 m 426 1096 l 585 1302 l 746 1302 l 554 1096 l 426 1096 z "},"Ų":{"ha":1019,"x_min":77,"x_max":1024,"o":"m 841 1010 l 1024 1010 l 914 350 q 832 159 897 242 q 667 31 767 77 q 444 -15 567 -15 q 236 31 320 -15 q 114 159 151 77 q 95 350 77 242 l 204 1010 l 387 1010 l 280 365 q 316 209 265 271 q 472 148 367 148 q 647 209 576 148 q 734 365 719 271 l 841 1010 m 422 -286 q 321 -253 358 -286 q 287 -156 284 -219 q 330 -40 289 -98 q 452 53 371 18 l 565 1 q 480 -53 516 -25 q 438 -120 444 -82 q 478 -170 428 -170 q 511 -165 497 -170 q 537 -156 526 -160 l 538 -256 q 489 -276 519 -267 q 422 -286 459 -286 z "},"Ǔ":{"ha":1019,"x_min":77,"x_max":1024,"o":"m 841 1010 l 1024 1010 l 914 350 q 832 159 897 242 q 667 31 767 77 q 444 -15 567 -15 q 236 31 320 -15 q 114 159 151 77 q 95 350 77 242 l 204 1010 l 387 1010 l 280 365 q 316 209 265 271 q 472 148 367 148 q 647 209 576 148 q 734 365 719 271 l 841 1010 m 564 1321 l 644 1195 l 765 1321 l 921 1321 l 920 1314 l 699 1101 l 559 1101 l 407 1314 l 408 1321 l 564 1321 z "},"Ǖ":{"ha":1019,"x_min":77,"x_max":1024,"o":"m 841 1010 l 1024 1010 l 914 350 q 832 159 897 242 q 667 31 767 77 q 444 -15 567 -15 q 236 31 320 -15 q 114 159 151 77 q 95 350 77 242 l 204 1010 l 387 1010 l 280 365 q 316 209 265 271 q 472 148 367 148 q 647 209 576 148 q 734 365 719 271 l 841 1010 m 791 1122 q 722 1152 749 1122 q 702 1226 695 1183 q 738 1284 709 1261 q 801 1308 766 1308 q 871 1277 845 1308 q 889 1203 896 1247 q 856 1146 884 1170 q 791 1122 828 1122 m 495 1122 q 426 1153 453 1122 q 406 1226 400 1184 q 441 1284 412 1261 q 505 1308 471 1308 q 575 1277 549 1308 q 593 1203 600 1247 q 560 1146 588 1170 q 495 1122 532 1122 m 934 1515 l 916 1406 l 441 1406 l 458 1515 l 934 1515 z "},"Ǘ":{"ha":1019,"x_min":77,"x_max":1024,"o":"m 841 1010 l 1024 1010 l 914 350 q 832 159 897 242 q 667 31 767 77 q 444 -15 567 -15 q 236 31 320 -15 q 114 159 151 77 q 95 350 77 242 l 204 1010 l 387 1010 l 280 365 q 316 209 265 271 q 472 148 367 148 q 647 209 576 148 q 734 365 719 271 l 841 1010 m 774 1082 q 707 1111 733 1082 q 688 1182 681 1141 q 722 1238 694 1215 q 784 1260 750 1260 q 852 1231 827 1260 q 870 1160 877 1202 q 837 1105 865 1128 q 774 1082 810 1082 m 486 1082 q 419 1111 445 1082 q 400 1182 394 1141 q 434 1238 405 1215 q 496 1260 462 1260 q 563 1231 539 1260 q 581 1160 588 1202 q 549 1105 577 1128 q 486 1082 522 1082 m 588 1326 l 749 1492 l 920 1492 l 723 1326 l 588 1326 z "},"Ǚ":{"ha":1019,"x_min":77,"x_max":1024,"o":"m 841 1010 l 1024 1010 l 914 350 q 832 159 897 242 q 667 31 767 77 q 444 -15 567 -15 q 236 31 320 -15 q 114 159 151 77 q 95 350 77 242 l 204 1010 l 387 1010 l 280 365 q 316 209 265 271 q 472 148 367 148 q 647 209 576 148 q 734 365 719 271 l 841 1010 m 591 1438 l 672 1360 l 778 1438 l 935 1438 l 933 1427 l 718 1273 l 595 1273 l 433 1427 l 435 1438 l 591 1438 m 708 1197 q 741 1252 713 1229 q 810 1274 768 1274 q 871 1252 850 1274 q 887 1197 891 1229 q 853 1141 880 1164 q 784 1118 825 1118 q 722 1141 742 1118 q 708 1197 701 1163 m 401 1197 q 434 1253 406 1230 q 502 1275 462 1275 q 564 1253 544 1275 q 579 1197 584 1230 q 545 1141 573 1163 q 476 1119 518 1119 q 416 1141 436 1119 q 401 1197 395 1164 z "},"Ǜ":{"ha":1019,"x_min":77,"x_max":1024,"o":"m 841 1010 l 1024 1010 l 914 350 q 832 159 897 242 q 667 31 767 77 q 444 -15 567 -15 q 236 31 320 -15 q 114 159 151 77 q 95 350 77 242 l 204 1010 l 387 1010 l 280 365 q 316 209 265 271 q 472 148 367 148 q 647 209 576 148 q 734 365 719 271 l 841 1010 m 401 1197 q 434 1253 406 1230 q 502 1275 462 1275 q 564 1253 544 1275 q 580 1197 585 1230 q 546 1141 574 1163 q 476 1119 518 1119 q 416 1141 436 1119 q 401 1197 395 1164 m 707 1197 q 741 1252 713 1229 q 810 1274 769 1274 q 872 1252 851 1274 q 886 1197 892 1229 q 854 1141 881 1164 q 784 1118 826 1118 q 723 1140 743 1118 q 707 1197 702 1163 m 649 1395 l 714 1257 l 611 1257 l 509 1395 l 649 1395 z "},"Ȕ":{"ha":1019,"x_min":77,"x_max":1024,"o":"m 841 1010 l 1024 1010 l 914 350 q 832 159 897 242 q 667 31 767 77 q 444 -15 567 -15 q 236 31 320 -15 q 114 159 151 77 q 95 350 77 242 l 204 1010 l 387 1010 l 280 365 q 316 209 265 271 q 472 148 367 148 q 647 209 576 148 q 734 365 719 271 l 841 1010 m 755 1110 l 635 1247 l 701 1335 l 811 1198 l 755 1110 m 524 1110 l 377 1247 l 420 1335 l 563 1198 l 524 1110 z "},"Ȗ":{"ha":1019,"x_min":77,"x_max":1024,"o":"m 841 1010 l 1024 1010 l 914 350 q 832 159 897 242 q 667 31 767 77 q 444 -15 567 -15 q 236 31 320 -15 q 114 159 151 77 q 95 350 77 242 l 204 1010 l 387 1010 l 280 365 q 316 209 265 271 q 472 148 367 148 q 647 209 576 148 q 734 365 719 271 l 841 1010 m 403 1133 q 489 1275 418 1220 q 666 1331 559 1331 q 826 1275 772 1331 q 865 1133 879 1220 l 731 1133 q 719 1197 737 1169 q 650 1225 701 1225 q 569 1197 596 1225 q 537 1133 542 1168 l 403 1133 z "},"Ṳ":{"ha":1019,"x_min":77,"x_max":1024,"o":"m 841 1010 l 1024 1010 l 914 350 q 832 159 897 242 q 667 31 767 77 q 444 -15 567 -15 q 236 31 320 -15 q 114 159 151 77 q 95 350 77 242 l 204 1010 l 387 1010 l 280 365 q 316 209 265 271 q 472 148 367 148 q 647 209 576 148 q 734 365 719 271 l 841 1010 m 190 -277 q 119 -249 147 -277 q 94 -181 91 -220 q 131 -112 98 -140 q 206 -83 163 -83 q 276 -112 249 -83 q 301 -181 304 -140 q 265 -249 298 -220 q 190 -277 232 -277 m 522 -277 q 451 -249 479 -277 q 426 -181 423 -220 q 463 -112 430 -140 q 538 -83 495 -83 q 608 -112 581 -83 q 633 -181 636 -140 q 597 -249 630 -220 q 522 -277 564 -277 z "},"Ṵ":{"ha":1019,"x_min":77,"x_max":1024,"o":"m 841 1010 l 1024 1010 l 914 350 q 832 159 897 242 q 667 31 767 77 q 444 -15 567 -15 q 236 31 320 -15 q 114 159 151 77 q 95 350 77 242 l 204 1010 l 387 1010 l 280 365 q 316 209 265 271 q 472 148 367 148 q 647 209 576 148 q 734 365 719 271 l 841 1010 m 283 -270 l 176 -267 q 243 -129 190 -179 q 363 -80 297 -80 q 432 -97 406 -80 q 480 -132 458 -115 q 533 -150 502 -150 q 581 -129 561 -150 q 607 -74 602 -108 l 712 -79 q 643 -216 697 -167 q 524 -265 590 -264 q 466 -254 488 -265 q 428 -230 444 -244 q 396 -205 412 -216 q 355 -195 380 -195 q 309 -216 329 -195 q 283 -270 289 -236 z "},"Ṷ":{"ha":1019,"x_min":77,"x_max":1024,"o":"m 841 1010 l 1024 1010 l 914 350 q 832 159 897 242 q 667 31 767 77 q 444 -15 567 -15 q 236 31 320 -15 q 114 159 151 77 q 95 350 77 242 l 204 1010 l 387 1010 l 280 365 q 316 209 265 271 q 472 148 367 148 q 647 209 576 148 q 734 365 719 271 l 841 1010 m 307 -289 l 151 -289 l 152 -282 l 375 -69 l 514 -69 l 665 -282 l 664 -289 l 508 -289 l 429 -163 l 307 -289 z "},"Ṹ":{"ha":1019,"x_min":77,"x_max":1024,"o":"m 841 1010 l 1024 1010 l 914 350 q 832 159 897 242 q 667 31 767 77 q 444 -15 567 -15 q 236 31 320 -15 q 114 159 151 77 q 95 350 77 242 l 204 1010 l 387 1010 l 280 365 q 316 209 265 271 q 472 148 367 148 q 647 209 576 148 q 734 365 719 271 l 841 1010 m 485 1097 l 381 1099 q 447 1231 395 1183 q 563 1278 499 1278 q 630 1262 605 1278 q 677 1228 656 1245 q 729 1211 699 1211 q 776 1232 756 1211 q 800 1283 796 1252 l 903 1279 q 836 1148 888 1195 q 720 1102 784 1102 q 663 1112 685 1102 q 627 1135 642 1122 q 595 1158 611 1148 q 555 1168 580 1168 q 510 1149 530 1168 q 485 1097 491 1129 m 582 1326 l 743 1492 l 914 1492 l 717 1326 l 582 1326 z "},"Ṻ":{"ha":1019,"x_min":77,"x_max":1024,"o":"m 841 1010 l 1024 1010 l 914 350 q 832 159 897 242 q 667 31 767 77 q 444 -15 567 -15 q 236 31 320 -15 q 114 159 151 77 q 95 350 77 242 l 204 1010 l 387 1010 l 280 365 q 316 209 265 271 q 472 148 367 148 q 647 209 576 148 q 734 365 719 271 l 841 1010 m 887 1229 l 868 1119 l 393 1119 l 412 1229 l 887 1229 m 431 1371 q 463 1427 435 1403 q 532 1450 490 1450 q 593 1427 573 1450 q 609 1371 614 1404 q 575 1316 603 1338 q 506 1293 547 1293 q 445 1316 465 1293 q 431 1371 424 1338 m 737 1370 q 770 1426 742 1403 q 839 1449 798 1449 q 900 1426 880 1449 q 916 1370 920 1403 q 881 1315 909 1337 q 813 1293 853 1293 q 751 1315 771 1293 q 737 1370 730 1337 z "},"Ụ":{"ha":1019,"x_min":77,"x_max":1024,"o":"m 841 1010 l 1024 1010 l 914 350 q 832 159 897 242 q 667 31 767 77 q 444 -15 567 -15 q 236 31 320 -15 q 114 159 151 77 q 95 350 77 242 l 204 1010 l 387 1010 l 280 365 q 316 209 265 271 q 472 148 367 148 q 647 209 576 148 q 734 365 719 271 l 841 1010 m 409 -277 q 339 -249 367 -277 q 314 -181 310 -220 q 350 -112 318 -140 q 426 -83 383 -83 q 496 -112 468 -83 q 520 -181 524 -140 q 485 -249 517 -220 q 409 -277 452 -277 z "},"Ủ":{"ha":1019,"x_min":77,"x_max":1024,"o":"m 841 1010 l 1024 1010 l 914 350 q 832 159 897 242 q 667 31 767 77 q 444 -15 567 -15 q 236 31 320 -15 q 114 159 151 77 q 95 350 77 242 l 204 1010 l 387 1010 l 280 365 q 316 209 265 271 q 472 148 367 148 q 647 209 576 148 q 734 365 719 271 l 841 1010 m 700 1117 l 564 1117 l 573 1211 q 649 1225 625 1214 q 675 1257 672 1236 q 653 1294 680 1284 q 582 1305 625 1305 l 602 1393 q 781 1358 724 1393 q 829 1261 838 1322 q 784 1191 821 1214 q 707 1162 748 1168 l 700 1117 z "},"Ứ":{"ha":1206,"x_min":77,"x_max":1263,"o":"m 1134 1054 l 1263 1054 q 1177 842 1241 921 q 980 747 1112 763 l 914 350 q 832 159 897 242 q 667 31 767 77 q 444 -15 567 -15 q 236 31 320 -15 q 114 159 151 77 q 95 350 77 242 l 204 1010 l 387 1010 l 280 365 q 316 209 265 271 q 472 148 367 148 q 647 209 576 148 q 734 365 719 271 l 841 1010 l 1024 1010 l 998 856 q 1094 923 1067 872 q 1134 1054 1121 974 m 562 1110 l 709 1335 l 884 1335 l 695 1110 l 562 1110 z "},"Ừ":{"ha":1206,"x_min":77,"x_max":1263,"o":"m 1134 1054 l 1263 1054 q 1177 842 1241 921 q 980 747 1112 763 l 914 350 q 832 159 897 242 q 667 31 767 77 q 444 -15 567 -15 q 236 31 320 -15 q 114 159 151 77 q 95 350 77 242 l 204 1010 l 387 1010 l 280 365 q 316 209 265 271 q 472 148 367 148 q 647 209 576 148 q 734 365 719 271 l 841 1010 l 1024 1010 l 998 856 q 1094 923 1067 872 q 1134 1054 1121 974 m 565 1110 l 452 1335 l 626 1335 l 699 1110 l 565 1110 z "},"Ử":{"ha":1206,"x_min":77,"x_max":1263,"o":"m 1134 1054 l 1263 1054 q 1177 842 1241 921 q 980 747 1112 763 l 914 350 q 832 159 897 242 q 667 31 767 77 q 444 -15 567 -15 q 236 31 320 -15 q 114 159 151 77 q 95 350 77 242 l 204 1010 l 387 1010 l 280 365 q 316 209 265 271 q 472 148 367 148 q 647 209 576 148 q 734 365 719 271 l 841 1010 l 1024 1010 l 998 856 q 1094 923 1067 872 q 1134 1054 1121 974 m 700 1117 l 564 1117 l 573 1211 q 649 1225 625 1214 q 675 1257 672 1236 q 653 1294 680 1284 q 582 1305 625 1305 l 602 1393 q 781 1358 724 1393 q 829 1261 838 1322 q 784 1191 821 1214 q 707 1162 748 1168 l 700 1117 z "},"Ữ":{"ha":1206,"x_min":77,"x_max":1263,"o":"m 1134 1054 l 1263 1054 q 1177 842 1241 921 q 980 747 1112 763 l 914 350 q 832 159 897 242 q 667 31 767 77 q 444 -15 567 -15 q 236 31 320 -15 q 114 159 151 77 q 95 350 77 242 l 204 1010 l 387 1010 l 280 365 q 316 209 265 271 q 472 148 367 148 q 647 209 576 148 q 734 365 719 271 l 841 1010 l 1024 1010 l 998 856 q 1094 923 1067 872 q 1134 1054 1121 974 m 485 1102 l 378 1105 q 446 1243 392 1193 q 565 1292 499 1292 q 634 1275 608 1292 q 682 1240 660 1257 q 735 1222 704 1222 q 784 1243 763 1222 q 809 1298 804 1265 l 914 1293 q 846 1156 899 1205 q 726 1107 792 1108 q 668 1118 690 1107 q 630 1142 646 1128 q 598 1167 615 1156 q 557 1177 582 1177 q 511 1157 531 1177 q 485 1102 491 1136 z "},"Ự":{"ha":1206,"x_min":77,"x_max":1263,"o":"m 1134 1054 l 1263 1054 q 1177 842 1241 921 q 980 747 1112 763 l 914 350 q 832 159 897 242 q 667 31 767 77 q 444 -15 567 -15 q 236 31 320 -15 q 114 159 151 77 q 95 350 77 242 l 204 1010 l 387 1010 l 280 365 q 316 209 265 271 q 472 148 367 148 q 647 209 576 148 q 734 365 719 271 l 841 1010 l 1024 1010 l 998 856 q 1094 923 1067 872 q 1134 1054 1121 974 m 409 -277 q 339 -249 367 -277 q 314 -181 310 -220 q 350 -112 318 -140 q 426 -83 383 -83 q 496 -112 468 -83 q 520 -181 524 -140 q 485 -249 517 -220 q 409 -277 452 -277 z "},"Ʉ":{"ha":1047,"x_min":10,"x_max":1086,"o":"m 1086 578 l 1068 470 l 951 470 l 931 350 q 849 159 913 242 q 684 31 784 77 q 461 -15 584 -15 q 253 31 337 -15 q 131 159 168 77 q 111 350 94 242 l 131 470 l 10 470 l 27 578 l 149 578 l 221 1010 l 404 1010 l 332 578 l 786 578 l 858 1010 l 1041 1010 l 969 578 l 1086 578 m 768 470 l 314 470 l 297 365 q 333 209 282 271 q 488 148 384 148 q 664 209 593 148 q 751 365 735 271 l 768 470 z "},"V":{"ha":1005,"x_min":139,"x_max":1076,"o":"m 339 1010 l 471 215 l 481 215 l 875 1010 l 1076 1010 l 552 0 l 327 0 l 139 1010 l 339 1010 z "},"Ṽ":{"ha":1005,"x_min":139,"x_max":1076,"o":"m 339 1010 l 471 215 l 481 215 l 875 1010 l 1076 1010 l 552 0 l 327 0 l 139 1010 l 339 1010 m 479 1102 l 372 1105 q 440 1243 386 1193 q 559 1292 493 1292 q 628 1275 602 1292 q 676 1240 654 1257 q 729 1222 698 1222 q 778 1243 758 1222 q 803 1298 798 1265 l 908 1293 q 840 1156 893 1205 q 720 1107 786 1108 q 662 1118 684 1107 q 624 1142 640 1128 q 592 1167 609 1156 q 551 1177 576 1177 q 505 1157 525 1177 q 479 1102 485 1136 z "},"Ṿ":{"ha":1005,"x_min":139,"x_max":1076,"o":"m 339 1010 l 471 215 l 481 215 l 875 1010 l 1076 1010 l 552 0 l 327 0 l 139 1010 l 339 1010 m 405 -271 q 334 -243 363 -271 q 309 -175 306 -215 q 346 -106 313 -134 q 421 -77 378 -77 q 491 -106 464 -77 q 516 -175 519 -134 q 480 -243 513 -215 q 405 -271 447 -271 z "},"W":{"ha":1398,"x_min":132,"x_max":1476,"o":"m 249 0 l 132 1010 l 328 1010 l 388 268 l 397 268 l 714 1010 l 893 1010 l 965 267 l 974 267 l 1279 1010 l 1476 1010 l 1023 0 l 842 0 l 759 709 l 751 709 l 430 0 l 249 0 z "},"Ŵ":{"ha":1398,"x_min":132,"x_max":1476,"o":"m 249 0 l 132 1010 l 328 1010 l 388 268 l 397 268 l 714 1010 l 893 1010 l 965 267 l 974 267 l 1279 1010 l 1476 1010 l 1023 0 l 842 0 l 759 709 l 751 709 l 430 0 l 249 0 m 719 1101 l 563 1101 l 564 1108 l 787 1321 l 926 1321 l 1077 1108 l 1076 1101 l 919 1101 l 840 1227 l 719 1101 z "},"Ẁ":{"ha":1398,"x_min":132,"x_max":1476,"o":"m 249 0 l 132 1010 l 328 1010 l 388 268 l 397 268 l 714 1010 l 893 1010 l 965 267 l 974 267 l 1279 1010 l 1476 1010 l 1023 0 l 842 0 l 759 709 l 751 709 l 430 0 l 249 0 m 756 1110 l 643 1335 l 817 1335 l 890 1110 l 756 1110 z "},"Ẃ":{"ha":1398,"x_min":132,"x_max":1476,"o":"m 249 0 l 132 1010 l 328 1010 l 388 268 l 397 268 l 714 1010 l 893 1010 l 965 267 l 974 267 l 1279 1010 l 1476 1010 l 1023 0 l 842 0 l 759 709 l 751 709 l 430 0 l 249 0 m 753 1110 l 900 1335 l 1075 1335 l 886 1110 l 753 1110 z "},"Ẅ":{"ha":1398,"x_min":132,"x_max":1476,"o":"m 249 0 l 132 1010 l 328 1010 l 388 268 l 397 268 l 714 1010 l 893 1010 l 965 267 l 974 267 l 1279 1010 l 1476 1010 l 1023 0 l 842 0 l 759 709 l 751 709 l 430 0 l 249 0 m 981 1122 q 913 1152 940 1122 q 893 1226 886 1183 q 928 1284 900 1261 q 992 1308 957 1308 q 1061 1277 1036 1308 q 1080 1203 1087 1247 q 1047 1146 1075 1170 q 981 1122 1018 1122 m 686 1122 q 617 1153 644 1122 q 597 1226 591 1184 q 632 1284 603 1261 q 696 1308 661 1308 q 765 1277 740 1308 q 784 1203 791 1247 q 751 1146 779 1170 q 686 1122 723 1122 z "},"Ẇ":{"ha":1398,"x_min":132,"x_max":1476,"o":"m 249 0 l 132 1010 l 328 1010 l 388 268 l 397 268 l 714 1010 l 893 1010 l 965 267 l 974 267 l 1279 1010 l 1476 1010 l 1023 0 l 842 0 l 759 709 l 751 709 l 430 0 l 249 0 m 830 1118 q 759 1146 788 1118 q 734 1214 731 1174 q 771 1283 738 1255 q 846 1311 803 1311 q 917 1283 889 1311 q 941 1214 945 1255 q 905 1146 938 1174 q 830 1118 872 1118 z "},"Ẉ":{"ha":1398,"x_min":132,"x_max":1476,"o":"m 249 0 l 132 1010 l 328 1010 l 388 268 l 397 268 l 714 1010 l 893 1010 l 965 267 l 974 267 l 1279 1010 l 1476 1010 l 1023 0 l 842 0 l 759 709 l 751 709 l 430 0 l 249 0 m 601 -266 q 530 -238 559 -266 q 506 -170 502 -210 q 542 -101 509 -129 q 618 -73 575 -73 q 688 -101 660 -73 q 712 -170 716 -129 q 676 -238 709 -210 q 601 -266 644 -266 z "},"X":{"ha":959,"x_min":-24,"x_max":1019,"o":"m 352 1010 l 514 640 l 522 640 l 806 1010 l 1019 1010 l 625 505 l 857 0 l 648 0 l 484 367 l 476 367 l 190 0 l -24 0 l 380 505 l 147 1010 l 352 1010 z "}}}
